<?xml version="1.0" encoding="UTF-8"?>
<svg version="1.1" xmlns="http://www.w3.org/2000/svg" height="56pt" viewBox="0 0 148 56" xmlns:inkscape="http://www.inkscape.org/namespaces/inkscape" width="148pt" xmlns:xlink="http://www.w3.org/1999/xlink">
 <defs>
  <clipPath id="Clip0">
   <path d="M0 0 L131.447 0 L131.119 27.2707 L0 25.7731 L0 0 Z"/>
  </clipPath>
 </defs>
 <g inkscape:groupmode="layer" inkscape:label="Background" id="Background">
  <g style="fill:none; stroke:none" clip-path="url(#Clip0)" clip-rule="evenodd" transform="translate(4.0685, 17.8112) scale(1.46072, 1.46678)">
   <path style="fill:#ffffff; fill-rule:nonzero;stroke:none;" d="M0 0 L8.21785 0 L8.21785 2.5574 L3.04987 2.5574 L3.04987 5.0009 L7.91016 5.0009 L7.91016 7.5586 L3.04987 7.5586 L3.04987 13.122 L0 13.122 L0 0 Z" transform="translate(1.48528, 0.56378)"/>
   <path style="fill:#ffffff; fill-rule:nonzero;stroke:none;" d="M0 3.83204 L2.82993 3.83204 L2.82993 13.6758 L0 13.6758 L0 3.83204 L0 3.83204 M0 0 L2.82993 0 L2.82993 2.56642 L0 2.56642 L0 0 " transform="translate(12.3624, 0.009992)"/>
   <path style="fill:#ffffff; fill-rule:nonzero;stroke:none;" d="M6.58293 2.91796 C6.33093 2.78915 6.08334 2.69399 5.84016 2.63248 C5.59716 2.5708 5.34966 2.53996 5.09766 2.53996 C4.37109 2.53996 3.81151 2.79927 3.41887 3.3179 C3.02624 3.83652 2.82993 4.57922 2.82993 5.54596 L2.82993 10.0811 L0 10.0811 L0 0.237366 L2.82993 0.237366 L2.82993 1.85456 C3.19332 1.20992 3.61077 0.739674 4.08234 0.443808 C4.5541 0.147924 5.12101 0 5.78307 0 C5.87681 0 5.97938 0.004392 6.09076 0.013212 C6.20212 0.022014 6.36328 0.041058 6.57422 0.070308 L6.58293 2.91796 Z" transform="translate(17.8624, 3.60466)"/>
   <path style="fill:#ffffff; fill-rule:nonzero;stroke:none;" d="M9.50963 5.13281 L9.50963 6.02942 L2.89154 6.02942 C2.95603 6.76762 3.19482 7.3213 3.60788 7.6905 C4.02095 8.05968 4.59666 8.24427 5.33504 8.24427 C5.9326 8.24427 6.54338 8.14612 7.16738 7.94981 C7.79137 7.7535 8.4315 7.45612 9.08775 7.05767 L9.08775 9.48346 C8.41988 9.76471 7.75049 9.97706 7.07963 10.1205 C6.40875 10.2642 5.73928 10.336 5.07123 10.336 C3.46584 10.336 2.21925 9.8833 1.33144 8.97806 C0.443813 8.0728 0 6.80278 0 5.16796 C0 3.56258 0.4365 2.29997 1.3095 1.38008 C2.1825 0.460026 3.38373 0 4.91315 0 C6.30759 0 7.42228 0.46584 8.25723 1.39752 C9.09216 2.32922 9.50963 3.5743 9.50963 5.13281 L9.50963 5.13281 M6.60065 4.08683 C6.60065 3.48926 6.44391 3.0074 6.1304 2.64121 C5.81691 2.27502 5.40525 2.09192 4.89544 2.09192 C4.35056 2.09192 3.90675 2.2633 3.564 2.60606 C3.22124 2.9488 3.00591 3.44239 2.91796 4.08683 L6.60065 4.08683 " transform="translate(25.0944, 3.60466)"/>
   <path style="fill:#ffffff; fill-rule:nonzero;stroke:none;" d="M1.59975 1.45885 L1.59975 11.6629 L3.52462 11.6629 C5.15344 11.6629 6.34725 11.2527 7.10606 10.4324 C7.86487 9.61209 8.24429 8.31722 8.24429 6.54779 C8.24429 4.78996 7.86487 3.5024 7.10606 2.6851 C6.34725 1.86759 5.15344 1.45885 3.52462 1.45885 L1.59975 1.45885 L1.59975 1.45885 M0 0 L3.27854 0 C5.5694 0 7.2495 0.52884 8.31881 1.58654 C9.38831 2.64404 9.92306 4.29779 9.92306 6.54779 C9.92306 8.8094 9.3854 10.4706 8.3101 11.5313 C7.23497 12.5918 5.55779 13.122 3.27854 13.122 L0 13.122 L0 0 " transform="translate(36.8907, 0.56378)"/>
   <path style="fill:#ffffff; fill-rule:nonzero;stroke:none;" d="M5.19441 1.74908 C5.03034 1.64353 4.85156 1.56589 4.65806 1.51621 C4.46476 1.46633 4.25382 1.4414 4.02525 1.4414 C3.19912 1.4414 2.56632 1.73876 2.12681 2.33352 C1.6875 2.92828 1.46785 3.78223 1.46785 4.89542 L1.46785 10.0811 L0 10.0811 L0 0.237366 L1.46785 0.237366 L1.46785 1.76652 C1.77253 1.16896 2.17096 0.725148 2.66316 0.435078 C3.15535 0.145026 3.75 0 4.44712 0 C4.54687 0 4.65826 0.007308 4.78125 0.021924 C4.90425 0.036558 5.03898 0.05859 5.18541 0.08802 L5.19441 1.74908 Z" transform="translate(49.1678, 3.60466)"/>
   <path style="fill:#ffffff; fill-rule:nonzero;stroke:none;" d="M4.57904 5.13281 C3.40135 5.13281 2.58545 5.28224 2.13131 5.58112 C1.67718 5.87999 1.45013 6.38971 1.45013 7.11027 C1.45013 7.68458 1.62 8.14021 1.95975 8.47715 C2.2997 8.81408 2.76262 8.98256 3.34856 8.98256 C4.15724 8.98256 4.80468 8.66464 5.29088 8.02883 C5.77724 7.39301 6.02044 6.54777 6.02044 5.49308 L6.02044 5.13281 L4.57904 5.13281 L4.57904 5.13281 M7.47956 4.46483 L7.47956 10.0811 L6.02044 10.0811 L6.02044 8.58683 C5.69232 9.18459 5.28066 9.62559 4.78548 9.90983 C4.29048 10.194 3.6826 10.336 2.96184 10.336 C2.0536 10.336 1.33284 10.0533 0.799594 9.48796 C0.266531 8.92246 0 8.16505 0 7.21575 C0 6.10837 0.332532 5.27342 0.997594 4.71092 C1.66266 4.14842 2.65725 3.86717 3.98138 3.86717 L6.02044 3.86717 L6.02044 3.70912 C6.02044 2.96492 5.8007 2.38921 5.36119 1.98196 C4.92188 1.57471 4.30378 1.37108 3.5069 1.37108 C3.0029 1.37108 2.51062 1.43849 2.03006 1.57331 C1.54969 1.70811 1.08684 1.91025 0.641533 2.17967 L0.641533 0.685674 C1.17479 0.45711 1.69191 0.285732 2.1929 0.171558 C2.69391 0.057186 3.1817 0 3.65625 0 C4.9395 0 5.89754 0.36918 6.53034 1.10756 C7.16315 1.84574 7.47956 2.96483 7.47956 4.46483 " transform="translate(55.2757, 3.60466)"/>
   <path style="fill:#ffffff; fill-rule:nonzero;stroke:none;" d="M6.45976 5.04506 C6.45976 3.87319 6.24151 2.96501 5.80501 2.32058 C5.36849 1.67596 4.75772 1.35365 3.97266 1.35365 C3.19323 1.35365 2.58666 1.67596 2.15297 2.32058 C1.71948 2.96501 1.50272 3.87319 1.50272 5.04506 C1.50272 6.21094 1.71948 7.11617 2.15297 7.76081 C2.58666 8.40524 3.19323 8.72746 3.97266 8.72746 C4.75772 8.72746 5.36849 8.40524 5.80501 7.76081 C6.24151 7.11617 6.45976 6.21094 6.45976 5.04506 L6.45976 5.04506 M7.91887 8.85937 C7.91887 10.5353 7.58344 11.7818 6.91257 12.5991 C6.24169 13.4167 5.21484 13.8255 3.83203 13.8255 C3.32221 13.8255 2.84025 13.7828 2.38613 13.6977 C1.932 13.6127 1.49109 13.4824 1.06341 13.3067 L1.06341 11.7335 C1.49109 11.9913 1.91298 12.1817 2.32903 12.3047 C2.7451 12.428 3.16988 12.4895 3.60337 12.4895 C4.55851 12.4895 5.27334 12.2125 5.74791 11.6586 C6.22246 11.105 6.45976 10.2685 6.45976 9.14933 L6.45976 8.34975 C6.16107 8.92967 5.77734 9.36328 5.30859 9.65052 C4.83985 9.93758 4.27735 10.0811 3.62109 10.0811 C2.53115 10.0811 1.65516 9.62118 0.993087 8.70131 C0.331031 7.78124 0 6.56249 0 5.04506 C0 3.52161 0.331031 2.29997 0.993087 1.38008 C1.65516 0.460026 2.53115 0 3.62109 0 C4.27735 0 4.83985 0.143622 5.30859 0.430866 C5.77734 0.71793 6.16107 1.15142 6.45976 1.73137 L6.45976 0.237366 L7.91887 0.237366 L7.91887 8.85937 " transform="translate(65.0966, 3.60466)"/>
   <path style="fill:#ffffff; fill-rule:nonzero;stroke:none;" d="M4.06041 1.37108 C3.28116 1.37108 2.66448 1.70951 2.21034 2.3864 C1.75621 3.06308 1.52916 3.99028 1.52916 5.16796 C1.52916 6.34565 1.75472 7.27294 2.20584 7.94981 C2.65715 8.62648 3.27534 8.96483 4.06041 8.96483 C4.83965 8.96483 5.45484 8.62499 5.90597 7.94531 C6.35728 7.26561 6.58293 6.33983 6.58293 5.16796 C6.58293 4.0019 6.35728 3.07762 5.90597 2.39512 C5.45484 1.71243 4.83965 1.37108 4.06041 1.37108 L4.06041 1.37108 M4.06041 0 C5.32603 0 6.32062 0.45702 7.04418 1.37108 C7.76794 2.28515 8.12982 3.55077 8.12982 5.16796 C8.12982 6.77934 7.76794 8.04355 7.04418 8.96062 C6.32062 9.87748 5.32603 10.336 4.06041 10.336 C2.78897 10.336 1.79438 9.87748 1.07662 8.96062 C0.358875 8.04355 0 6.77934 0 5.16796 C0 3.55077 0.358875 2.28515 1.07662 1.37108 C1.79438 0.45702 2.78897 0 4.06041 0 " transform="translate(75.2966, 3.60466)"/>
   <path style="fill:#ffffff; fill-rule:nonzero;stroke:none;" d="M7.42669 4.13971 L7.42669 10.0811 L5.96785 10.0811 L5.96785 4.19231 C5.96785 3.26081 5.80378 2.56358 5.47566 2.10065 C5.14753 1.63771 4.65826 1.40625 4.00781 1.40625 C3.22256 1.40625 2.60287 1.68458 2.14875 2.24127 C1.69481 2.79796 1.46785 3.55676 1.46785 4.51771 L1.46785 10.0811 L0 10.0811 L0 0.237366 L1.46785 0.237366 L1.46785 1.76652 C1.81341 1.17477 2.22207 0.732456 2.69381 0.439578 C3.16555 0.14652 3.71194 0 4.33294 0 C5.34656 0 6.11559 0.350154 6.64004 1.05046 C7.16447 1.75059 7.42669 2.78033 7.42669 4.13971 Z" transform="translate(85.7678, 3.60466)"/>
   <path style="fill:none;stroke:none;" d="M0 0 L131.447 0 L131.447 27.2707 L0 27.2707 L0 0 Z" transform="translate(0, 0)"/>
  </g>
 </g>
</svg>
