<?xml version="1.0" encoding="utf-8"?>
<!-- Generator: Adobe Illustrator 25.2.3, SVG Export Plug-In . SVG Version: 6.00 Build 0)  -->
<svg version="1.1" id="Layer_1" xmlns:inkscape="http://www.inkscape.org/namespaces/inkscape"
	 xmlns="http://www.w3.org/2000/svg" xmlns:xlink="http://www.w3.org/1999/xlink" x="0px" y="0px" viewBox="0 0 148 56"
	 style="enable-background:new 0 0 148 56;" xml:space="preserve">
<style type="text/css">
	.st0{fill:#FFFFFF;}
</style>
<g>
	<path class="st0" d="M0,22.5h12.9v4H4.8v3.9h7.6v4H4.8v8.8H0V22.5z"/>
	<polyline class="st0" points="14.9,27.7 19.4,27.7 19.4,43.2 14.9,43.2 14.9,27.7 14.9,27.7 	"/>
	<polyline class="st0" points="14.9,21.6 19.4,21.6 19.4,25.7 14.9,25.7 14.9,21.6 	"/>
	<path class="st0" d="M32.8,31.9c-0.4-0.2-0.8-0.4-1.2-0.5c-0.4-0.1-0.8-0.1-1.2-0.1c-1.1,0-2,0.4-2.6,1.2c-0.6,0.8-0.9,2-0.9,3.5
		v7.1h-4.4V27.7h4.4v2.5c0.6-1,1.2-1.8,2-2.2c0.7-0.5,1.6-0.7,2.7-0.7c0.1,0,0.3,0,0.5,0c0.2,0,0.4,0,0.8,0.1L32.8,31.9z"/>
	<path class="st0" d="M48.8,35.4v1.4H38.4c0.1,1.2,0.5,2,1.1,2.6c0.6,0.6,1.6,0.9,2.7,0.9c0.9,0,1.9-0.2,2.9-0.5c1-0.3,2-0.8,3-1.4
		v3.8c-1,0.4-2.1,0.8-3.2,1c-1.1,0.2-2.1,0.3-3.2,0.3c-2.5,0-4.5-0.7-5.9-2.1c-1.4-1.4-2.1-3.4-2.1-6c0-2.5,0.7-4.5,2.1-6
		c1.4-1.5,3.3-2.2,5.7-2.2c2.2,0,3.9,0.7,5.3,2.2C48.1,31,48.8,32.9,48.8,35.4L48.8,35.4 M44.2,33.7c0-0.9-0.2-1.7-0.7-2.3
		c-0.5-0.6-1.1-0.9-1.9-0.9c-0.9,0-1.6,0.3-2.1,0.8c-0.5,0.5-0.9,1.3-1,2.3H44.2"/>
	<path class="st0" d="M54.9,24.8v16.1h3c2.6,0,4.4-0.6,5.6-1.9c1.2-1.3,1.8-3.3,1.8-6.1c0-2.8-0.6-4.8-1.8-6.1
		c-1.2-1.3-3.1-1.9-5.6-1.9H54.9L54.9,24.8 M52.4,22.5h5.1c3.6,0,6.2,0.8,7.9,2.5c1.7,1.7,2.5,4.3,2.5,7.8c0,3.6-0.8,6.2-2.5,7.9
		c-1.7,1.7-4.3,2.5-7.9,2.5h-5.1V22.5"/>
	<path class="st0" d="M78.7,30c-0.3-0.2-0.5-0.3-0.8-0.4c-0.3-0.1-0.6-0.1-1-0.1c-1.3,0-2.3,0.5-3,1.4c-0.7,0.9-1,2.3-1,4v8.2h-2.3
		V27.7h2.3v2.4c0.5-0.9,1.1-1.6,1.9-2.1c0.8-0.5,1.7-0.7,2.8-0.7c0.2,0,0.3,0,0.5,0c0.2,0,0.4,0.1,0.6,0.1L78.7,30z"/>
	<path class="st0" d="M87.3,35.4c-1.8,0-3.1,0.2-3.8,0.7c-0.7,0.5-1.1,1.3-1.1,2.4c0,0.9,0.3,1.6,0.8,2.2c0.5,0.5,1.3,0.8,2.2,0.8
		c1.3,0,2.3-0.5,3-1.5c0.8-1,1.1-2.3,1.1-4v-0.6H87.3L87.3,35.4 M91.9,34.3v8.9h-2.3v-2.4c-0.5,0.9-1.2,1.6-1.9,2.1
		c-0.8,0.4-1.7,0.7-2.9,0.7c-1.4,0-2.6-0.4-3.4-1.3c-0.8-0.9-1.3-2.1-1.3-3.6c0-1.7,0.5-3.1,1.6-3.9c1-0.9,2.6-1.3,4.7-1.3h3.2v-0.2
		c0-1.2-0.3-2.1-1-2.7c-0.7-0.6-1.7-1-2.9-1c-0.8,0-1.6,0.1-2.3,0.3c-0.8,0.2-1.5,0.5-2.2,1v-2.4c0.8-0.4,1.6-0.6,2.4-0.8
		c0.8-0.2,1.6-0.3,2.3-0.3c2,0,3.5,0.6,4.5,1.7C91.4,30.2,91.9,32,91.9,34.3"/>
	<path class="st0" d="M104.6,35.2c0-1.8-0.3-3.3-1-4.3c-0.7-1-1.6-1.5-2.9-1.5c-1.2,0-2.2,0.5-2.9,1.5c-0.7,1-1,2.4-1,4.3
		c0,1.8,0.3,3.3,1,4.3c0.7,1,1.6,1.5,2.9,1.5c1.2,0,2.2-0.5,2.9-1.5C104.3,38.5,104.6,37.1,104.6,35.2L104.6,35.2 M106.9,41.2
		c0,2.6-0.5,4.6-1.6,5.9c-1.1,1.3-2.7,1.9-4.8,1.9c-0.8,0-1.6-0.1-2.3-0.2c-0.7-0.1-1.4-0.3-2.1-0.6v-2.5c0.7,0.4,1.3,0.7,2,0.9
		c0.7,0.2,1.3,0.3,2,0.3c1.5,0,2.6-0.4,3.4-1.3c0.7-0.9,1.1-2.2,1.1-4v-1.3c-0.5,0.9-1.1,1.6-1.8,2.1c-0.7,0.5-1.6,0.7-2.6,0.7
		c-1.7,0-3.1-0.7-4.1-2.2c-1-1.5-1.6-3.4-1.6-5.8c0-2.4,0.5-4.3,1.6-5.8c1-1.5,2.4-2.2,4.1-2.2c1,0,1.9,0.2,2.6,0.7
		c0.7,0.5,1.3,1.1,1.8,2.1v-2.4h2.3V41.2"/>
	<path class="st0" d="M115.8,29.4c-1.2,0-2.2,0.5-2.9,1.6c-0.7,1.1-1.1,2.5-1.1,4.4c0,1.9,0.4,3.3,1.1,4.4c0.7,1.1,1.7,1.6,2.9,1.6
		c1.2,0,2.2-0.5,2.9-1.6c0.7-1.1,1.1-2.5,1.1-4.4c0-1.8-0.4-3.3-1.1-4.4C118,30,117,29.4,115.8,29.4L115.8,29.4 M115.8,27.3
		c2,0,3.5,0.7,4.7,2.2c1.1,1.4,1.7,3.4,1.7,6c0,2.5-0.6,4.5-1.7,6c-1.1,1.4-2.7,2.2-4.7,2.2c-2,0-3.6-0.7-4.7-2.2
		c-1.1-1.4-1.7-3.4-1.7-6c0-2.5,0.6-4.5,1.7-6C112.3,28,113.8,27.3,115.8,27.3"/>
	<path class="st0" d="M136.5,33.8v9.4h-2.3v-9.3c0-1.5-0.3-2.6-0.8-3.3c-0.5-0.7-1.3-1.1-2.3-1.1c-1.2,0-2.2,0.4-2.9,1.3
		c-0.7,0.9-1.1,2.1-1.1,3.6v8.8h-2.3V27.7h2.3v2.4c0.5-0.9,1.2-1.6,1.9-2.1c0.7-0.5,1.6-0.7,2.6-0.7c1.6,0,2.8,0.6,3.6,1.7
		C136.1,30,136.5,31.7,136.5,33.8z"/>
	<g>
		<path class="st0" d="M37,9.9C35.9,8,34.6,6.3,35.5,4c0.2,0.1,0.3,0.2,0.3,0.3c1.3,2.1,3.3,3.5,5.2,4.9c1.1,0.9,2.2,1.9,3.2,2.8
			c1.1,1,2.1,2.1,3.1,3.2c0.3,0.3,0.5,0.5,0,0.9c-0.2,0.1-0.3,0.5-0.2,0.7c0.4,0.8,0.8,1.7,1.3,2.5c0.4,0.7,0.7,0.6,1.8-0.2
			c0.1,0.7,0.3,1.3,0.4,1.9c0,0.8-0.1,1.5-0.2,2.3c0,0.1-0.3,0.4-0.4,0.4c-0.6-0.2-0.8,0.3-1,0.6c-1,1.4-3.2,2.2-4.9,1.6
			c0.4-0.3,0.8-0.6,1.1-0.9c0.8-0.7,0.8-1.2,0.3-2c-0.6-0.9-1.8-1.3-2.9-1C42,22,41.4,22.4,41,21.5c-0.1-0.1-0.5-0.1-0.7-0.2
			c-0.7,0-1.5,0-2.2,0c0-0.1-0.1-0.2-0.1-0.2c0.4-1.5,0.4-1.5-0.8-2.4c-0.4-0.3-0.6-0.5-0.3-1c0.1-0.2-0.2-0.8-0.4-0.9
			c-2.7-1.2-5.4-1.9-8.1-0.2c-1,0.7-2.1,1.2-3.2,1.7c-1,0.5-2.2,0.6-3.3,0.3c-0.2-0.1-0.5-0.2-0.7-0.4c2.3-0.6,4.1-1.6,5.6-3.6
			c-0.6,0-0.9,0-1.3,0c0-0.1,0-0.1-0.1-0.2C28.3,10.7,32.2,9.3,37,9.9z"/>
		<path class="st0" d="M34.8,16.9c-0.6,0.1-1.1,0.2-1.7,0.3c-2.1,0.3-3.6,1.6-4.7,3.3c-0.6,0.9-1.3,1.9-2,2.8c-0.5,0.6-1,1-1.6,1.5
			c-0.2,0.2-0.5,0.2-0.7,0.3c0-0.1-0.1-0.1-0.1-0.2c0.4-0.6,0.9-1.2,1.4-1.9c-1.1-0.1-2.1,0.5-3.1-0.2c0.1-0.2,0.2-0.4,0.3-0.5
			c1.8-1.6,3.6-3.2,5.6-4.6c1.4-1,3-1.6,4.7-1.5c0.6,0,1.3,0.3,1.9,0.4C34.8,16.7,34.8,16.8,34.8,16.9z"/>
		<path class="st0" d="M26.2,4.9c1.5,0.9,3.2,0.6,4.8,0.8c0.7,0.1,1.4,0.1,2,0.3c1.1,0.3,1.7,1.1,1.9,2.1C35,8.5,35,8.8,34.6,8.7
			c-2.2-0.2-4.4-0.3-6.4-1.2c-0.6-0.3-1.2-0.7-1.7-1.1C26.1,6.1,25.9,5.5,26.2,4.9z"/>
		<path class="st0" d="M35.4,18.1c-2.1,1.5-3.8,3-2.5,5.7c-0.1,0.1-0.1,0.1-0.2,0.1c-1.3-0.5-2.4-1.4-3.1-2.7
			c-0.1-0.2-0.1-0.6,0-0.9c0.8-1.6,3.4-2.9,5.2-2.6C34.9,17.8,35,17.9,35.4,18.1z"/>
	</g>
</g>
</svg>
