<?xml version="1.0" encoding="UTF-8"?>
<svg version="1.1" xmlns="http://www.w3.org/2000/svg" width="148pt" xmlns:inkscape="http://www.inkscape.org/namespaces/inkscape" viewBox="0 0 148 56" height="56pt" xmlns:xlink="http://www.w3.org/1999/xlink">
 <defs>
  <path d="M0.917969 2.71 L5.99125 2.71 L5.99125 4.13078 L2.79781 4.13078 L2.79781 5.48828 L5.80078 5.48828 L5.80078 6.90922 L2.79781 6.90922 L2.79781 10 L0.917969 10 L0.917969 2.71 Z" id="GlDejaVuSans-Bold41"/>
  <path d="M0.839844 4.53125 L2.58797 4.53125 L2.58797 10 L0.839844 10 L0.839844 4.53125 L0.839844 4.53125 Z M0.839844 2.40234 L2.58797 2.40234 L2.58797 3.82813 L0.839844 3.82813 L0.839844 2.40234 Z" id="GlDejaVuSans-Bold76"/>
  <path d="M4.90234 6.02047 C4.74932 5.94891 4.59714 5.89604 4.44578 5.86187 C4.29443 5.8276 4.14224 5.81047 3.98922 5.81047 C3.54005 5.81047 3.19422 5.95453 2.95172 6.24266 C2.70922 6.53078 2.58797 6.94339 2.58797 7.48047 L2.58797 10 L0.839844 10 L0.839844 4.53125 L2.58797 4.53125 L2.58797 5.42969 C2.81255 5.07156 3.07052 4.81031 3.36187 4.64594 C3.65323 4.48156 4.00234 4.39938 4.40922 4.39938 C4.46776 4.39938 4.5312 4.40182 4.59953 4.40672 C4.66797 4.41161 4.76729 4.42219 4.8975 4.43844 L4.90234 6.02047 Z" id="GlDejaVuSans-Bold85"/>
  <path d="M6.29891 7.25094 L6.29891 7.74906 L2.21188 7.74906 C2.25427 8.15917 2.4024 8.46677 2.65625 8.67188 C2.91021 8.87698 3.26505 8.97953 3.72078 8.97953 C4.08859 8.97953 4.46536 8.925 4.85109 8.81594 C5.23682 8.70688 5.63312 8.54167 6.04 8.32031 L6.04 9.66797 C5.62667 9.82422 5.21328 9.94219 4.79984 10.0219 C4.38641 10.1017 3.97297 10.1416 3.55953 10.1416 C2.56995 10.1416 1.80089 9.8901 1.25234 9.38719 C0.703906 8.88427 0.429688 8.1787 0.429688 7.27047 C0.429688 6.37859 0.699063 5.67714 1.23781 5.16609 C1.77656 4.65495 2.51792 4.39938 3.46188 4.39938 C4.32125 4.39938 5.00891 4.65818 5.52484 5.17578 C6.04089 5.69339 6.29891 6.3851 6.29891 7.25094 L6.29891 7.25094 Z M4.50203 6.66984 C4.50203 6.33786 4.40516 6.07016 4.21141 5.86672 C4.01776 5.66328 3.76469 5.56156 3.45219 5.56156 C3.11365 5.56156 2.83854 5.65677 2.62688 5.84719 C2.41531 6.0376 2.28349 6.31182 2.23141 6.66984 L4.50203 6.66984 Z" id="GlDejaVuSans-Bold72"/>
  <path d="M1.96781 3.52047 L1.96781 9.18938 L3.15922 9.18938 C4.16505 9.18938 4.90151 8.96151 5.36859 8.50578 C5.83578 8.05005 6.06937 7.33068 6.06937 6.34766 C6.06937 5.37109 5.83578 4.65578 5.36859 4.20172 C4.90151 3.74755 4.16505 3.52047 3.15922 3.52047 L1.96781 3.52047 L1.96781 3.52047 Z M0.981406 2.71 L3.00781 2.71 C4.42063 2.71 5.4574 3.0038 6.11813 3.59141 C6.77896 4.17891 7.10938 5.09766 7.10938 6.34766 C7.10938 7.60411 6.77734 8.52698 6.11328 9.11625 C5.44922 9.70542 4.41406 10 3.00781 10 L0.981406 10 L0.981406 2.71 Z" id="GlDejaVuSans39"/>
  <path d="M4.11141 5.37109 C4.01047 5.31245 3.90057 5.26932 3.78172 5.24172 C3.66297 5.21401 3.53198 5.20016 3.38875 5.20016 C2.88094 5.20016 2.49109 5.36536 2.21922 5.69578 C1.94745 6.0262 1.81156 6.50062 1.81156 7.11906 L1.81156 10 L0.908281 10 L0.908281 4.53125 L1.81156 4.53125 L1.81156 5.38078 C2.00031 5.0488 2.24604 4.80224 2.54875 4.64109 C2.85156 4.47995 3.21943 4.39938 3.65234 4.39938 C3.71422 4.39938 3.78255 4.40344 3.85734 4.41156 C3.93224 4.41969 4.01526 4.43193 4.10641 4.44828 L4.11141 5.37109 Z" id="GlDejaVuSans85"/>
  <path d="M3.42781 7.25094 C2.70188 7.25094 2.19891 7.33396 1.91891 7.5 C1.63901 7.66604 1.49906 7.94922 1.49906 8.34953 C1.49906 8.66859 1.60401 8.92172 1.81391 9.10891 C2.02391 9.29609 2.30958 9.38969 2.67094 9.38969 C3.16896 9.38969 3.56849 9.21307 3.86953 8.85984 C4.17068 8.50661 4.32125 8.03703 4.32125 7.45109 L4.32125 7.25094 L3.42781 7.25094 L3.42781 7.25094 Z M5.21969 6.87984 L5.21969 10 L4.32125 10 L4.32125 9.16984 C4.11625 9.50193 3.86073 9.74693 3.55469 9.90484 C3.24875 10.0627 2.87443 10.1416 2.43172 10.1416 C1.87182 10.1416 1.42667 9.98453 1.09625 9.67047 C0.765833 9.3563 0.600625 8.93552 0.600625 8.40813 C0.600625 7.79292 0.80651 7.32906 1.21828 7.01656 C1.63005 6.70406 2.24448 6.54781 3.06156 6.54781 L4.32125 6.54781 L4.32125 6.46 C4.32125 6.04656 4.18536 5.72672 3.91359 5.50047 C3.64182 5.27422 3.26016 5.16109 2.76859 5.16109 C2.45609 5.16109 2.15172 5.19854 1.85547 5.27344 C1.55922 5.34833 1.27438 5.46063 1.00094 5.61031 L1.00094 4.78031 C1.32979 4.65333 1.6488 4.55812 1.95797 4.49469 C2.26724 4.43115 2.56839 4.39938 2.86141 4.39938 C3.65234 4.39938 4.24313 4.60448 4.63375 5.01469 C5.02438 5.42479 5.21969 6.04651 5.21969 6.87984 Z" id="GlDejaVuSans68"/>
  <path d="M4.54109 7.20219 C4.54109 6.55115 4.40677 6.04661 4.13813 5.68859 C3.86958 5.33047 3.49281 5.15141 3.00781 5.15141 C2.52604 5.15141 2.15089 5.33047 1.88234 5.68859 C1.6138 6.04661 1.47953 6.55115 1.47953 7.20219 C1.47953 7.8499 1.6138 8.35281 1.88234 8.71094 C2.15089 9.06896 2.52604 9.24797 3.00781 9.24797 C3.49281 9.24797 3.86958 9.06896 4.13813 8.71094 C4.40677 8.35281 4.54109 7.8499 4.54109 7.20219 L4.54109 7.20219 Z M5.43953 9.32125 C5.43953 10.2523 5.23281 10.9448 4.81937 11.3989 C4.40594 11.8531 3.77281 12.0802 2.92 12.0802 C2.60417 12.0802 2.30625 12.0565 2.02625 12.0092 C1.74635 11.962 1.47458 11.8896 1.21094 11.792 L1.21094 10.918 C1.47458 11.0612 1.735 11.167 1.99219 11.2353 C2.24938 11.3038 2.51141 11.338 2.77828 11.338 C3.36755 11.338 3.80865 11.1841 4.10156 10.8764 C4.39458 10.5688 4.54109 10.1041 4.54109 9.48234 L4.54109 9.03813 C4.35547 9.36031 4.11781 9.6012 3.82813 9.76078 C3.53844 9.92026 3.19177 10 2.78812 10 C2.1175 10 1.57708 9.74448 1.16688 9.23344 C0.756771 8.72229 0.551719 8.04521 0.551719 7.20219 C0.551719 6.35583 0.756771 5.67714 1.16688 5.16609 C1.57708 4.65495 2.1175 4.39938 2.78812 4.39938 C3.19177 4.39938 3.53844 4.47917 3.82813 4.63875 C4.11781 4.79823 4.35547 5.03906 4.54109 5.36125 L4.54109 4.53125 L5.43953 4.53125 L5.43953 9.32125 Z" id="GlDejaVuSans74"/>
  <path d="M3.06156 5.16109 C2.57979 5.16109 2.19891 5.34911 1.91891 5.72516 C1.63901 6.10109 1.49906 6.6162 1.49906 7.27047 C1.49906 7.92474 1.63823 8.4399 1.91656 8.81594 C2.1949 9.19187 2.57656 9.37984 3.06156 9.37984 C3.5401 9.37984 3.91932 9.19104 4.19922 8.81344 C4.47922 8.43583 4.61922 7.92151 4.61922 7.27047 C4.61922 6.62266 4.47922 6.10917 4.19922 5.73 C3.91932 5.35073 3.5401 5.16109 3.06156 5.16109 L3.06156 5.16109 Z M3.06156 4.39938 C3.84281 4.39938 4.45641 4.65328 4.90234 5.16109 C5.34828 5.66891 5.57125 6.37203 5.57125 7.27047 C5.57125 8.16568 5.34828 8.86802 4.90234 9.3775 C4.45641 9.88687 3.84281 10.1416 3.06156 10.1416 C2.27708 10.1416 1.66266 9.88687 1.21828 9.3775 C0.773906 8.86802 0.551719 8.16568 0.551719 7.27047 C0.551719 6.37203 0.773906 5.66891 1.21828 5.16109 C1.66266 4.65328 2.27708 4.39938 3.06156 4.39938 Z" id="GlDejaVuSans82"/>
  <path d="M5.48828 6.69922 L5.48828 10 L4.58984 10 L4.58984 6.72844 C4.58984 6.21094 4.48891 5.82359 4.28703 5.56641 C4.08526 5.30922 3.78255 5.18063 3.37891 5.18063 C2.89391 5.18063 2.51141 5.33526 2.23141 5.64453 C1.95151 5.9538 1.81156 6.37536 1.81156 6.90922 L1.81156 10 L0.908281 10 L0.908281 4.53125 L1.81156 4.53125 L1.81156 5.38078 C2.02635 5.05203 2.27943 4.8063 2.57078 4.64359 C2.86214 4.48078 3.19823 4.39938 3.57906 4.39938 C4.2074 4.39938 4.68266 4.59391 5.00484 4.98297 C5.32714 5.37193 5.48828 5.94401 5.48828 6.69922 Z" id="GlDejaVuSans81"/>
  <path d="M5.35156 2.94922 L5.35156 3.91109 C4.97719 3.73203 4.62396 3.59859 4.29188 3.51078 C3.9599 3.42286 3.63932 3.37891 3.33016 3.37891 C2.79297 3.37891 2.3787 3.48307 2.08734 3.69141 C1.79609 3.89974 1.65047 4.19594 1.65047 4.58 C1.65047 4.90229 1.74729 5.14562 1.94094 5.31 C2.13458 5.47438 2.50161 5.60703 3.04203 5.70797 L3.63766 5.83 C4.37339 5.97 4.9162 6.21661 5.26609 6.56984 C5.61609 6.92297 5.79109 7.39578 5.79109 7.98828 C5.79109 8.69464 5.55427 9.2301 5.08063 9.59469 C4.60698 9.95927 3.91281 10.1416 2.99812 10.1416 C2.65302 10.1416 2.28594 10.1025 1.89688 10.0244 C1.50792 9.94625 1.1051 9.83068 0.688438 9.67766 L0.688438 8.66203 C1.08885 8.88672 1.48109 9.05604 1.86516 9.17 C2.24932 9.28385 2.62698 9.34078 2.99812 9.34078 C3.56125 9.34078 3.99578 9.2301 4.30172 9.00875 C4.60776 8.7874 4.76078 8.47167 4.76078 8.06156 C4.76078 7.70344 4.65089 7.42349 4.43109 7.22172 C4.21141 7.01984 3.85094 6.86844 3.34969 6.7675 L2.74906 6.65031 C2.01333 6.50385 1.48109 6.27438 1.15234 5.96188 C0.823594 5.64938 0.659219 5.21479 0.659219 4.65813 C0.659219 4.01365 0.88625 3.50589 1.34031 3.13484 C1.79448 2.7637 2.42031 2.57813 3.21781 2.57813 C3.55958 2.57813 3.90786 2.60906 4.26266 2.67094 C4.61755 2.73271 4.98052 2.82547 5.35156 2.94922 Z" id="GlDejaVuSans54"/>
  <path d="M1.83109 2.97844 L1.83109 4.53125 L3.68172 4.53125 L3.68172 5.22953 L1.83109 5.22953 L1.83109 8.19828 C1.83109 8.64422 1.89214 8.93068 2.01422 9.05766 C2.1363 9.18453 2.38448 9.24797 2.75875 9.24797 L3.68172 9.24797 L3.68172 10 L2.75875 10 C2.06542 10 1.58693 9.87063 1.32328 9.61187 C1.05964 9.35302 0.927813 8.88182 0.927813 8.19828 L0.927813 5.22953 L0.268594 5.22953 L0.268594 4.53125 L0.927813 4.53125 L0.927813 2.97844 L1.83109 2.97844 Z" id="GlDejaVuSans87"/>
  <path d="M4.86813 7.27047 C4.86813 6.60964 4.73224 6.09125 4.46047 5.71531 C4.1887 5.33937 3.81516 5.15141 3.33984 5.15141 C2.86464 5.15141 2.49109 5.33937 2.21922 5.71531 C1.94745 6.09125 1.81156 6.60964 1.81156 7.27047 C1.81156 7.9313 1.94745 8.44974 2.21922 8.82578 C2.49109 9.20172 2.86464 9.38969 3.33984 9.38969 C3.81516 9.38969 4.1887 9.20172 4.46047 8.82578 C4.73224 8.44974 4.86813 7.9313 4.86813 7.27047 L4.86813 7.27047 Z M1.81156 5.36125 C2.00031 5.03573 2.23875 4.79406 2.52687 4.63625 C2.815 4.47833 3.15922 4.39938 3.55953 4.39938 C4.22359 4.39938 4.76313 4.66307 5.17813 5.19047 C5.59323 5.71776 5.80078 6.41109 5.80078 7.27047 C5.80078 8.12984 5.59323 8.82323 5.17813 9.35063 C4.76313 9.87792 4.22359 10.1416 3.55953 10.1416 C3.15922 10.1416 2.815 10.0627 2.52687 9.90484 C2.23875 9.74693 2.00031 9.50521 1.81156 9.17969 L1.81156 10 L0.908281 10 L0.908281 2.40234 L1.81156 2.40234 L1.81156 5.36125 Z" id="GlDejaVuSans69"/>
  <path d="M0.942344 2.40234 L1.84078 2.40234 L1.84078 10 L0.942344 10 L0.942344 2.40234 Z" id="GlDejaVuSans79"/>
  <path d="M5.62016 7.04094 L5.62016 7.48047 L1.48922 7.48047 C1.52828 8.09891 1.71464 8.5701 2.04828 8.89406 C2.38203 9.21792 2.84672 9.37984 3.44234 9.37984 C3.78745 9.37984 4.12193 9.33755 4.44578 9.25297 C4.76974 9.16828 5.0912 9.0413 5.41016 8.87203 L5.41016 9.72172 C5.08786 9.85839 4.75745 9.9625 4.41891 10.0341 C4.08036 10.1057 3.73698 10.1416 3.38875 10.1416 C2.51635 10.1416 1.82542 9.88766 1.31594 9.37984 C0.806458 8.87203 0.551719 8.18521 0.551719 7.31937 C0.551719 6.42417 0.793438 5.7137 1.27687 5.18797 C1.76031 4.66224 2.41219 4.39938 3.2325 4.39938 C3.96813 4.39938 4.54995 4.6362 4.97797 5.10984 C5.40609 5.58349 5.62016 6.22719 5.62016 7.04094 L5.62016 7.04094 Z M4.72172 6.77734 C4.71516 6.28578 4.5776 5.89354 4.30906 5.60062 C4.04052 5.3076 3.6849 5.16109 3.24219 5.16109 C2.74094 5.16109 2.33974 5.30271 2.03859 5.58594 C1.73745 5.86917 1.56411 6.26792 1.51859 6.78219 L4.72172 6.77734 Z" id="GlDejaVuSans72"/>
 </defs>
 <g id="Background" inkscape:label="Background" inkscape:groupmode="layer">
  <g transform="translate(9.9011, 13.3337)">
   <use xlink:href="#GlDejaVuSans-Bold41" transform="matrix(2.2 0 0 2.2 0 -5.27516)" style="fill:#171615;stroke:none;"/>
   <use xlink:href="#GlDejaVuSans-Bold76" transform="matrix(2.2 0 0 2.2 15 -5.27516)" style="fill:#171615;stroke:none;"/>
   <use xlink:href="#GlDejaVuSans-Bold85" transform="matrix(2.2 0 0 2.2 22.5 -5.27516)" style="fill:#171615;stroke:none;"/>
   <use xlink:href="#GlDejaVuSans-Bold72" transform="matrix(2.2 0 0 2.2 33.3 -5.27516)" style="fill:#171615;stroke:none;"/>
   <use xlink:href="#GlDejaVuSans39" transform="matrix(2.2 0 0 2.2 48.2 -5.27516)" style="fill:#171615;stroke:none;"/>
   <use xlink:href="#GlDejaVuSans85" transform="matrix(2.2 0 0 2.2 65.1 -5.27516)" style="fill:#171615;stroke:none;"/>
   <use xlink:href="#GlDejaVuSans68" transform="matrix(2.2 0 0 2.2 74.1 -5.27516)" style="fill:#171615;stroke:none;"/>
   <use xlink:href="#GlDejaVuSans74" transform="matrix(2.2 0 0 2.2 87.5 -5.27516)" style="fill:#171615;stroke:none;"/>
   <use xlink:href="#GlDejaVuSans82" transform="matrix(2.2 0 0 2.2 101.4 -5.27516)" style="fill:#171615;stroke:none;"/>
   <use xlink:href="#GlDejaVuSans81" transform="matrix(2.2 0 0 2.2 114.8 -5.27516)" style="fill:#171615;stroke:none;"/>
   <path d="M0 0 L142.993 0 L142.993 25.5804 L0 25.5804 L0 0 Z" style="fill:none; stroke:none;"/>
  </g>
  <g transform="translate(11.978, 33.4875)">
   <use xlink:href="#GlDejaVuSans54" transform="matrix(1.6 0 0 1.6 0 -3.83375)" style="fill:#171615;stroke:none;"/>
   <use xlink:href="#GlDejaVuSans87" transform="matrix(1.6 0 0 1.6 10.1 -3.83375)" style="fill:#171615;stroke:none;"/>
   <use xlink:href="#GlDejaVuSans68" transform="matrix(1.6 0 0 1.6 16.3 -3.83375)" style="fill:#171615;stroke:none;"/>
   <use xlink:href="#GlDejaVuSans69" transform="matrix(1.6 0 0 1.6 26.1 -3.83375)" style="fill:#171615;stroke:none;"/>
   <use xlink:href="#GlDejaVuSans79" transform="matrix(1.6 0 0 1.6 36.2 -3.83375)" style="fill:#171615;stroke:none;"/>
   <use xlink:href="#GlDejaVuSans72" transform="matrix(1.6 0 0 1.6 40.6 -3.83375)" style="fill:#171615;stroke:none;"/>
   <path d="M0 0 L68.7273 0 L68.7273 19.5175 L0 19.5175 L0 0 Z" style="fill:none; stroke:none;"/>
  </g>
 </g>
</svg>
