<?xml version="1.0" encoding="UTF-8" standalone="no"?>
<svg
   height="200pt"
   viewBox="0 0 650 200"
   width="650pt"
   version="1.1"
   id="svg34"
   sodipodi:docname="firefox-wordmark-forum-2.svg"
   inkscape:version="1.3.2 (091e20ef0f, 2023-11-25, custom)"
   xmlns:inkscape="http://www.inkscape.org/namespaces/inkscape"
   xmlns:sodipodi="http://sodipodi.sourceforge.net/DTD/sodipodi-0.dtd"
   xmlns:xlink="http://www.w3.org/1999/xlink"
   xmlns="http://www.w3.org/2000/svg"
   xmlns:svg="http://www.w3.org/2000/svg">
  <defs
     id="defs34" />
  <sodipodi:namedview
     id="namedview34"
     pagecolor="#505050"
     bordercolor="#ffffff"
     borderopacity="1"
     inkscape:showpageshadow="0"
     inkscape:pageopacity="0"
     inkscape:pagecheckerboard="1"
     inkscape:deskcolor="#d1d1d1"
     inkscape:document-units="pt"
     showgrid="false"
     inkscape:zoom="0.99538878"
     inkscape:cx="476.19585"
     inkscape:cy="165.76438"
     inkscape:current-layer="svg34" />
  <filter
     id="a"
     color-interpolation-filters="sRGB"
     height="3.5548959"
     width="3.0573605"
     x="-0.97312469"
     y="-1.1465367">
    <feFlood
       result="flood"
       id="feFlood1" />
    <feComposite
       in="flood"
       in2="SourceGraphic"
       operator="in"
       result="composite1"
       id="feComposite1" />
    <feGaussianBlur
       in="composite1"
       result="blur"
       stdDeviation="1.8246088"
       id="feGaussianBlur1" />
    <feOffset
       dx=".5"
       dy="1"
       result="offset"
       id="feOffset1" />
    <feComposite
       in="SourceGraphic"
       in2="offset"
       operator="over"
       result="composite2"
       id="feComposite2" />
  </filter>
  <filter
     id="b"
     color-interpolation-filters="sRGB"
     height="1.4373149"
     width="1.5671749"
     x="-0.26695758"
     y="-0.19443338">
    <feFlood
       result="flood"
       id="feFlood2" />
    <feComposite
       in="flood"
       in2="SourceGraphic"
       operator="in"
       result="composite1"
       id="feComposite3" />
    <feGaussianBlur
       in="composite1"
       result="blur"
       stdDeviation="1.6721778"
       id="feGaussianBlur3" />
    <feOffset
       dx=".5"
       dy="1"
       result="offset"
       id="feOffset3" />
    <feComposite
       in="SourceGraphic"
       in2="offset"
       operator="over"
       result="composite2"
       id="feComposite4" />
  </filter>
  <filter
     id="c"
     color-interpolation-filters="sRGB"
     height="1.1158291"
     width="1.0356397"
     x="-0.017819857"
     y="-0.057914536">
    <feGaussianBlur
       stdDeviation="1.9304845"
       id="feGaussianBlur4" />
  </filter>
  <linearGradient
     id="d">
    <stop
       offset="0"
       stop-color="#1d99f3"
       id="stop4" />
    <stop
       offset="1"
       stop-color="#be0ece"
       id="stop5" />
  </linearGradient>
  <linearGradient
     id="e"
     gradientTransform="matrix(2.4131537 0 0 2.1662778 254.40732 39.344216)"
     gradientUnits="userSpaceOnUse"
     x1="123.04078"
     x2="-68.229858"
     y1="68.261589"
     y2="-11.686676">
    <stop
       offset="0"
       stop-color="#0b1c63"
       id="stop6" />
    <stop
       offset="1"
       stop-color="#51024d"
       id="stop7" />
  </linearGradient>
  <linearGradient
     id="f"
     gradientUnits="userSpaceOnUse"
     x1="-6.128998"
     x2="12.929552"
     xlink:href="#d"
     y1="45.641911"
     y2="23.502031" />
  <linearGradient
     id="g"
     gradientUnits="userSpaceOnUse"
     x1="113.41444"
     x2="144.54462"
     xlink:href="#d"
     y1="37.189026"
     y2="20.106991" />
  <linearGradient
     id="h"
     gradientUnits="userSpaceOnUse"
     x1="12.9"
     x2="30.871168"
     xlink:href="#d"
     y1="26.5"
     y2="50.690567" />
  <linearGradient
     id="i"
     gradientUnits="userSpaceOnUse"
     x1="11.299936"
     x2="21.703646"
     xlink:href="#d"
     y1="20.032253"
     y2="26.418795" />
  <linearGradient
     id="j"
     gradientUnits="userSpaceOnUse"
     x1="7.440104"
     x2="44.176052"
     xlink:href="#d"
     y1="51.352932"
     y2="37.126827" />
  <linearGradient
     id="k"
     gradientUnits="userSpaceOnUse"
     x1="29.535084"
     x2="53.131847"
     xlink:href="#d"
     y1="26.167486"
     y2="47.140194" />
  <linearGradient
     id="l"
     gradientUnits="userSpaceOnUse"
     x1="45.494396"
     x2="68.524025"
     xlink:href="#d"
     y1="23.528399"
     y2="47.770905" />
  <linearGradient
     id="m"
     gradientUnits="userSpaceOnUse"
     x1="61.265385"
     x2="87.482307"
     xlink:href="#d"
     y1="45.368633"
     y2="37.126827" />
  <linearGradient
     id="n"
     gradientUnits="userSpaceOnUse"
     x1="110.84289"
     x2="127.64062"
     xlink:href="#d"
     y1="12.706193"
     y2="36.544922" />
  <linearGradient
     id="o"
     gradientUnits="userSpaceOnUse"
     x1="81.039764"
     x2="120.34452"
     xlink:href="#d"
     y1="27.87982"
     y2="40.720734" />
  <linearGradient
     id="p"
     gradientUnits="userSpaceOnUse"
     x1="104.61091"
     x2="136.07822"
     xlink:href="#d"
     y1="63.663265"
     y2="37.5" />
  <linearGradient
     id="q"
     gradientUnits="userSpaceOnUse"
     x1="34.799999"
     x2="19.4"
     xlink:href="#d"
     y1="16.6"
     y2="21.6" />
  <linearGradient
     id="r"
     gradientUnits="userSpaceOnUse"
     x1="25.94373652023"
     x2="101.73312976301"
     xlink:href="#d"
     y1="20.82487726431"
     y2="44.33062006431" />
  <linearGradient
     id="s"
     gradientUnits="userSpaceOnUse"
     x1="37"
     x2="26.919016"
     xlink:href="#d"
     y1="9.9"
     y2="1.411707" />
  <linearGradient
     id="t"
     gradientUnits="userSpaceOnUse"
     x1="40.104485"
     x2="35.861839"
     xlink:href="#d"
     y1="16.91691"
     y2="27.487743" />
  <filter
     id="u"
     color-interpolation-filters="sRGB"
     height="1.0561314"
     width="1.0503119"
     x="-0.025155954"
     y="-0.028065718">
    <feGaussianBlur
       stdDeviation="10.285342"
       id="feGaussianBlur7" />
  </filter>
  <linearGradient
     id="v"
     gradientUnits="userSpaceOnUse"
     x1="178.41525559956"
     x2="284.0259016"
     y1="-417.90791880089"
     y2="-312.2972684"
     gradientTransform="translate(304.53905,754.81261)">
    <stop
       offset="0"
       stop-color="#111a61"
       id="stop8" />
    <stop
       offset="1"
       stop-color="#460650"
       id="stop9" />
  </linearGradient>
  <linearGradient
     id="w"
     gradientUnits="userSpaceOnUse"
     x1="277.99077631843"
     x2="171.41254145293"
     xlink:href="#d"
     y1="-325.94327513475"
     y2="-381.07666110448"
     gradientTransform="translate(-161.31546,653.4065)" />
  <linearGradient
     id="x"
     gradientUnits="userSpaceOnUse"
     x1="189.25915126101"
     x2="272.95418784941"
     y1="-364.9708826043"
     y2="-364.9708826043">
    <stop
       offset="0"
       stop-color="#c20ed2"
       id="stop10" />
    <stop
       offset="1"
       stop-color="#2592f1"
       id="stop11" />
  </linearGradient>
  <g
     id="g35">
    <path
       d="m-62.079581-12.456451h184.477621c20.91971 0 37.76119 16.5354381 37.76119 37.074973v5.850054c0 20.539535-16.84148 37.074973-37.76119 37.074973h-184.477621c-20.919696 0-37.761189-16.535438-37.761189-37.074973v-5.850054c0-20.5395349 16.841493-37.074973 37.761189-37.074973z"
       fill-rule="evenodd"
       filter="url(#c)"
       stroke-width=".33078"
       transform="matrix(2.4039586 0 0 2.1979662 252.49848 39.460206)"
       id="path11" />
    <path
       d="m103.96474 12.360076h442.07059c50.1307 0 90.4885 36.22911 90.4885 81.23118v12.817464c0 45.00208-40.3578 81.23119-90.4885 81.23119h-442.07059c-50.13066 0-90.48855-36.22911-90.48855-81.23119v-12.817464c0-45.00207 40.35789-81.23118 90.48855-81.23118z"
       fill="url(#e)"
       fill-rule="evenodd"
       opacity=".973837"
       stroke-width=".757939"
       id="path12" />
    <g
       id="g34"
       transform="matrix(1.2445726,0,0,1.2445726,-180.19209,-16.95726)">
      <path
         d="m 0,22.5 h 12.9 v 4 H 4.8 v 3.9 h 7.6 v 4 H 4.8 v 8.8 H 0 Z"
         fill="url(#f)"
         filter="url(#a)"
         transform="matrix(2.9142078,0,0,2.7827103,206.82874,17.939926)"
         id="path13"
         style="fill:url(#f)" />
      <path
         d="m 136.5,33.8 v 9.4 h -2.3 v -9.3 c 0,-1.5 -0.3,-2.6 -0.8,-3.3 -0.5,-0.7 -1.3,-1.1 -2.3,-1.1 -1.2,0 -2.2,0.4 -2.9,1.3 -0.7,0.9 -1.1,2.1 -1.1,3.6 v 8.8 h -2.3 V 27.7 h 2.3 v 2.4 c 0.5,-0.9 1.2,-1.6 1.9,-2.1 0.7,-0.5 1.6,-0.7 2.6,-0.7 1.6,0 2.8,0.6 3.6,1.7 0.9,1 1.3,2.7 1.3,4.8 z"
         fill="url(#g)"
         filter="url(#a)"
         transform="matrix(2.9142078,0,0,2.7827103,206.82874,17.939926)"
         id="path14"
         style="fill:url(#g)" />
      <path
         d="m 14.9,27.7 h 4.5 v 15.5 h -4.5 z"
         fill="url(#h)"
         filter="url(#a)"
         transform="matrix(2.9142078,0,0,2.7827103,206.82874,17.939926)"
         id="path15"
         style="fill:url(#h)" />
      <path
         d="m 32.8,31.9 c -0.4,-0.2 -0.8,-0.4 -1.2,-0.5 -0.4,-0.1 -0.8,-0.1 -1.2,-0.1 -1.1,0 -2,0.4 -2.6,1.2 -0.6,0.8 -0.9,2 -0.9,3.5 v 7.1 H 22.5 V 27.7 h 4.4 v 2.5 c 0.6,-1 1.2,-1.8 2,-2.2 0.7,-0.5 1.6,-0.7 2.7,-0.7 h 0.5 c 0.2,0 0.4,0 0.8,0.1 z"
         fill="url(#j)"
         filter="url(#a)"
         transform="matrix(2.9142078,0,0,2.7827103,206.82874,17.939926)"
         id="path17"
         style="fill:url(#j)" />
      <path
         d="m 48.8,35.4 v 1.4 H 38.4 c 0.1,1.2 0.5,2 1.1,2.6 0.6,0.6 1.6,0.9 2.7,0.9 0.9,0 1.9,-0.2 2.9,-0.5 1,-0.3 2,-0.8 3,-1.4 v 3.8 c -1,0.4 -2.1,0.8 -3.2,1 -1.1,0.2 -2.1,0.3 -3.2,0.3 -2.5,0 -4.5,-0.7 -5.9,-2.1 -1.4,-1.4 -2.1,-3.4 -2.1,-6 0,-2.5 0.7,-4.5 2.1,-6 1.4,-1.5 3.3,-2.2 5.7,-2.2 2.2,0 3.9,0.7 5.3,2.2 1.3,1.6 2,3.5 2,6 z M 44.2,33.7 C 44.2,32.8 44,32 43.5,31.4 43,30.8 42.4,30.5 41.6,30.5 c -0.9,0 -1.6,0.3 -2.1,0.8 -0.5,0.5 -0.9,1.3 -1,2.3 h 5.7"
         fill="url(#k)"
         filter="url(#a)"
         transform="matrix(2.9142078,0,0,2.7827103,206.82874,17.939926)"
         id="path18"
         style="fill:url(#k)" />
      <path
         d="m 54.9,24.8 v 16.1 h 3 c 2.6,0 4.4,-0.6 5.6,-1.9 1.2,-1.3 1.8,-3.3 1.8,-6.1 0,-2.8 -0.6,-4.8 -1.8,-6.1 -1.2,-1.3 -3.1,-1.9 -5.6,-1.9 h -3 z m -2.5,-2.3 h 5.1 c 3.6,0 6.2,0.8 7.9,2.5 1.7,1.7 2.5,4.3 2.5,7.8 0,3.6 -0.8,6.2 -2.5,7.9 -1.7,1.7 -4.3,2.5 -7.9,2.5 h -5.1 z"
         fill="url(#l)"
         filter="url(#a)"
         transform="matrix(2.9142078,0,0,2.7827103,206.82874,17.939926)"
         id="path19"
         style="fill:url(#l)" />
      <path
         d="m 78.7,30 c -0.3,-0.2 -0.5,-0.3 -0.8,-0.4 -0.3,-0.1 -0.6,-0.1 -1,-0.1 -1.3,0 -2.3,0.5 -3,1.4 -0.7,0.9 -1,2.3 -1,4 v 8.2 H 70.6 V 27.7 h 2.3 v 2.4 c 0.5,-0.9 1.1,-1.6 1.9,-2.1 0.8,-0.5 1.7,-0.7 2.8,-0.7 h 0.5 c 0.2,0 0.4,0.1 0.6,0.1 z"
         fill="url(#m)"
         filter="url(#a)"
         transform="matrix(2.9142078,0,0,2.7827103,206.82874,17.939926)"
         id="path20"
         style="fill:url(#m)" />
      <path
         d="m 115.8,29.4 c -1.2,0 -2.2,0.5 -2.9,1.6 -0.7,1.1 -1.1,2.5 -1.1,4.4 0,1.9 0.4,3.3 1.1,4.4 0.7,1.1 1.7,1.6 2.9,1.6 1.2,0 2.2,-0.5 2.9,-1.6 0.7,-1.1 1.1,-2.5 1.1,-4.4 0,-1.8 -0.4,-3.3 -1.1,-4.4 -0.7,-1 -1.7,-1.6 -2.9,-1.6 z m 0,-2.1 c 2,0 3.5,0.7 4.7,2.2 1.1,1.4 1.7,3.4 1.7,6 0,2.5 -0.6,4.5 -1.7,6 -1.1,1.4 -2.7,2.2 -4.7,2.2 -2,0 -3.6,-0.7 -4.7,-2.2 -1.1,-1.4 -1.7,-3.4 -1.7,-6 0,-2.5 0.6,-4.5 1.7,-6 1.2,-1.5 2.7,-2.2 4.7,-2.2"
         fill="url(#p)"
         filter="url(#a)"
         transform="matrix(2.9142078,0,0,2.7827103,206.82874,17.939926)"
         id="path22"
         style="fill:url(#p)" />
      <path
         d="m 14.9,21.6 h 4.5 v 4.1 h -4.5 z"
         fill="url(#i)"
         filter="url(#a)"
         transform="matrix(2.9142078,0,0,2.7827103,206.82874,17.939926)"
         id="path16"
         style="fill:url(#i)" />
      <path
         d="m 119.99609,16.414062 c -0.89181,0 -1.91046,0.128008 -2.92968,0.382813 -1.01922,0.254805 -2.03938,0.509922 -3.0586,1.019531 v 3.056641 c 0.89182,-0.637012 1.78352,-1.018633 2.80274,-1.273438 0.89181,-0.254804 1.91242,-0.382812 2.93164,-0.382812 1.52883,0 2.80154,0.510976 3.69336,1.275391 0.89181,0.764414 1.27539,1.910624 1.27539,3.439453 v 0.253906 h -4.07813 c -2.67545,0 -4.71425,0.509628 -5.98828,1.65625 -1.40143,1.019219 -2.03711,2.802909 -2.03711,4.96875 0,1.911036 0.63703,3.441269 1.65625,4.587891 1.01922,1.146621 2.54645,1.65625 4.33008,1.65625 1.52883,0 2.67609,-0.382969 3.69531,-0.892579 0.89182,-0.637012 1.78487,-1.529159 2.42188,-2.675781 v 3.058594 h 2.92968 V 25.205078 c 1e-5,-2.930255 -0.63808,-5.223573 -1.9121,-6.625 -1.27403,-1.401426 -3.18438,-2.166016 -5.73243,-2.166016 z m 1.78321,10.19336 h 2.80273 v 0.763672 c 0,2.165841 -0.38117,3.821679 -1.40039,5.095703 -0.89182,1.274024 -2.16603,1.912109 -3.82226,1.912109 -1.14663,0 -2.16573,-0.382519 -2.80274,-1.019531 -0.63701,-0.764414 -1.01953,-1.656113 -1.01953,-2.802734 0,-1.401427 0.50857,-2.421582 1.40039,-3.058594 0.89182,-0.637012 2.54855,-0.890625 4.8418,-0.890625 z"
         fill="url(#n)"
         filter="url(#b)"
         stroke-width="1.27402"
         transform="matrix(2.2874041,0,0,2.1841898,182.21354,57.928686)"
         id="path21"
         style="fill:url(#n)" />
      <path
         d="m 34.8,16.9 c -0.6,0.1 -1.1,0.2 -1.7,0.3 -2.1,0.3 -3.6,1.6 -4.7,3.3 -0.6,0.9 -1.3,1.9 -2,2.8 -0.5,0.6 -1,1 -1.6,1.5 C 24.6,25 24.3,25 24.1,25.1 24.1,25 24,25 24,24.9 c 0.4,-0.6 0.9,-1.2 1.4,-1.9 -1.1,-0.1 -2.1,0.5 -3.1,-0.2 0.1,-0.2 0.2,-0.4 0.3,-0.5 1.8,-1.6 3.6,-3.2 5.6,-4.6 1.4,-1 3,-1.6 4.7,-1.5 0.6,0 1.3,0.3 1.9,0.4 z"
         fill="url(#q)"
         filter="url(#a)"
         transform="matrix(2.9142078,0,0,2.7827103,206.82874,17.939926)"
         id="path23"
         style="fill:url(#q)" />
      <path
         d="m 58.429688,9.5605469 c -1.146622,2.9302551 0.508729,5.0949791 1.910156,7.5156251 -6.115316,-0.764415 -11.082674,1.020486 -14.777344,5.734375 0.127402,0.127402 0.126953,0.126504 0.126953,0.253906 h 1.65625 c -1.911036,2.548048 -4.20451,3.823476 -7.134765,4.587891 0.254804,0.254805 0.637773,0.38041 0.892578,0.507812 1.401426,0.382207 2.929101,0.256153 4.203125,-0.380859 1.401426,-0.637012 2.802147,-1.274199 4.076171,-2.166016 3.439865,-2.165841 6.880448,-1.274922 10.320313,0.253907 0.254805,0.127402 0.637168,0.891679 0.509766,1.146484 -0.382208,0.637012 -0.126797,0.893183 0.382812,1.27539 1.528829,1.146622 1.529141,1.145605 1.019531,3.056641 0,0 0.126954,0.128457 0.126954,0.255859 h 2.802734 c 0.254805,0.127403 0.763222,0.126504 0.890625,0.253907 0.509609,1.146621 1.274648,0.636719 2.039062,0.636719 1.401427,-0.382208 2.930898,0.128768 3.695313,1.27539 0.637012,1.019219 0.636407,1.655058 -0.382813,2.546875 -0.382207,0.382207 -0.890781,0.764277 -1.40039,1.146485 2.165841,0.764414 4.968163,-0.253476 6.242187,-2.03711 0.254805,-0.382207 0.509023,-1.02043 1.273438,-0.765625 0.127402,0 0.509765,-0.382363 0.509765,-0.509765 0.127403,-1.01922 0.25586,-1.910469 0.25586,-2.929688 -0.127403,-0.764414 -0.382363,-1.528105 -0.509766,-2.419922 -1.401426,1.019219 -1.785312,1.145723 -2.294922,0.253906 -0.637012,-1.019219 -1.14664,-2.166327 -1.65625,-3.185546 -0.127402,-0.254805 0.0011,-0.763223 0.25586,-0.890626 0.637012,-0.509609 0.382207,-0.764277 0,-1.146484 -1.274024,-1.401426 -2.547793,-2.804101 -3.949219,-4.078125 -1.274024,-1.146622 -2.676699,-2.419784 -4.078125,-3.566406 -2.420646,-1.783634 -4.966816,-3.566737 -6.623047,-6.2421876 0,-0.1274024 -0.128008,-0.2554101 -0.382812,-0.3828125 z m 6.699218,12.8750001 c 0.04064,2.32e-4 0.491223,0.109841 1.001953,0.244141 1.572339,0.413465 2.813916,1.18242 3.451172,2.136718 0.187563,0.280878 0.341797,0.540577 0.341797,0.576172 0,0.09653 -0.480634,0.244556 -0.771484,0.238281 -0.140028,-0.0031 -0.403347,-0.05253 -0.583985,-0.109375 -0.180637,-0.05683 -0.417268,-0.150865 -0.52539,-0.208984 -0.303962,-0.163387 -0.901971,-0.741091 -1.238281,-1.195312 -0.398044,-0.537598 -0.95712,-1.109462 -1.396485,-1.427735 -0.194032,-0.140559 -0.319943,-0.254194 -0.279297,-0.253906 z"
         fill="url(#r)"
         filter="url(#a)"
         stroke-width="1.27402"
         transform="matrix(2.2874041,0,0,2.1841898,176.63165,8.189356)"
         id="path24"
         style="fill:url(#r)" />
      <path
         d="m 26.2,4.9 c 1.5,0.9 3.2,0.6 4.8,0.8 0.7,0.1 1.4,0.1 2,0.3 1.1,0.3 1.7,1.1 1.9,2.1 C 35,8.5 35,8.8 34.6,8.7 32.4,8.5 30.2,8.4 28.2,7.5 27.6,7.2 27,6.8 26.5,6.4 26.1,6.1 25.9,5.5 26.2,4.9 Z"
         fill="url(#s)"
         filter="url(#a)"
         transform="matrix(2.9142078,0,0,2.7827103,206.82874,17.939926)"
         id="path25"
         style="fill:url(#s)" />
      <path
         d="m 35.4,18.1 c -2.1,1.5 -3.8,3 -2.5,5.7 -0.1,0.1 -0.1,0.1 -0.2,0.1 -1.3,-0.5 -2.4,-1.4 -3.1,-2.7 -0.1,-0.2 -0.1,-0.6 0,-0.9 0.8,-1.6 3.4,-2.9 5.2,-2.6 0.1,0.1 0.2,0.2 0.6,0.4 z"
         fill="url(#t)"
         filter="url(#a)"
         transform="matrix(2.9142078,0,0,2.7827103,206.82874,17.939926)"
         id="path26"
         style="fill:url(#t)" />
      <path
         d="m 333.47633,64.261926 c -0.4132,-0.12411 -0.9536,-0.32956 -1.2009,-0.4565 -0.6953,-0.35687 -2.0667,-1.61994 -2.8359,-2.61204 -0.9105,-1.17422 -2.1897,-2.42259 -3.1947,-3.11776 -0.4438,-0.30699 -0.7309,-0.55767 -0.6379,-0.55704 0.093,5.1e-4 1.1249,0.24117 2.2931,0.5345 3.5966,0.90309 6.4375,2.58227 7.8951,4.66663 0.429,0.61349 0.7801,1.17904 0.7801,1.25679 0,0.21084 -1.1,0.53683 -1.7653,0.52313 -0.3203,-0.007 -0.9204,-0.11356 -1.3336,-0.23771 z"
         fill="#1d84dd"
         fill-rule="evenodd"
         stroke-width="0.081119"
         id="path27" />
      <path
         d="m 104.6,35.2 c 0,-1.8 -0.3,-3.3 -1,-4.3 -0.7,-1 -1.6,-1.5 -2.9,-1.5 -1.2,0 -2.2,0.5 -2.9,1.5 -0.7,1 -1,2.4 -1,4.3 0,1.8 0.3,3.3 1,4.3 0.7,1 1.6,1.5 2.9,1.5 1.2,0 2.2,-0.5 2.9,-1.5 0.7,-1 1,-2.4 1,-4.3 z m 2.3,6 c 0,2.6 -0.5,4.6 -1.6,5.9 -1.1,1.3 -2.7,1.9 -4.8,1.9 -0.8,0 -1.6,-0.1 -2.3,-0.2 -0.7,-0.1 -1.4,-0.3 -2.1,-0.6 v -2.5 c 0.7,0.4 1.3,0.7 2,0.9 0.7,0.2 1.3,0.3 2,0.3 1.5,0 2.6,-0.4 3.4,-1.3 0.7,-0.9 1.1,-2.2 1.1,-4 v -1.3 c -0.5,0.9 -1.1,1.6 -1.8,2.1 -0.7,0.5 -1.6,0.7 -2.6,0.7 -1.7,0 -3.1,-0.7 -4.1,-2.2 -1,-1.5 -1.6,-3.4 -1.6,-5.8 0,-2.4 0.5,-4.3 1.6,-5.8 1,-1.5 2.4,-2.2 4.1,-2.2 1,0 1.9,0.2 2.6,0.7 0.7,0.5 1.3,1.1 1.8,2.1 v -2.4 h 2.3 z"
         fill="url(#o)"
         filter="url(#a)"
         transform="matrix(2.9142078,0,0,2.7827103,206.82874,19.261636)"
         id="path34"
         style="fill:url(#o)" />
    </g>
  </g>
</svg>
