<?xml version="1.0" encoding="UTF-8" standalone="no"?>
<svg
   version="1.1"
   width="650pt"
   viewBox="0 0 650 200"
   height="200pt"
   id="svg60"
   sodipodi:docname="firefox-wordmark.svg"
   inkscape:version="1.3.2 (091e20ef0f, 2023-11-25, custom)"
   inkscape:export-filename="firefox-wordmark.png"
   inkscape:export-xdpi="192"
   inkscape:export-ydpi="192"
   xml:space="preserve"
   xmlns:inkscape="http://www.inkscape.org/namespaces/inkscape"
   xmlns:sodipodi="http://sodipodi.sourceforge.net/DTD/sodipodi-0.dtd"
   xmlns:xlink="http://www.w3.org/1999/xlink"
   xmlns="http://www.w3.org/2000/svg"
   xmlns:svg="http://www.w3.org/2000/svg"><sodipodi:namedview
     id="namedview62"
     pagecolor="#ffffff"
     bordercolor="#ac2020"
     borderopacity="1"
     inkscape:pageshadow="2"
     inkscape:pageopacity="0"
     inkscape:pagecheckerboard="true"
     inkscape:document-units="pt"
     showgrid="false"
     inkscape:zoom="1.6949"
     inkscape:cx="494.71945"
     inkscape:cy="152.22137"
     inkscape:window-width="1436"
     inkscape:window-height="856"
     inkscape:window-x="0"
     inkscape:window-y="0"
     inkscape:window-maximized="1"
     inkscape:current-layer="Background"
     inkscape:lockguides="false"
     showguides="true"
     inkscape:guide-bbox="true"
     inkscape:snap-global="false"
     inkscape:showpageshadow="false"
     width="270pt"
     inkscape:deskcolor="#d1d1d1" /><defs
     id="defs17"><radialGradient
       id="radialGradient46365"
       cx="-7938.3828"
       cy="-8508.1758"
       r="73.720001"
       gradientTransform="matrix(5.0375515,0,0,5.0375515,40172.924,42938.649)"
       gradientUnits="userSpaceOnUse"><stop
         offset="0.12293794"
         stop-color="#fff44f"
         id="stop46357"
         style="stop-color:#be103b;stop-opacity:1" /><stop
         offset="0.22507964"
         stop-color="#fff44f"
         id="stop46757"
         style="stop-color:#e87a05;stop-opacity:1" /><stop
         offset="0.34187669"
         stop-color="#fff44f"
         id="stop46561"
         style="stop-color:#d62437;stop-opacity:1" /><stop
         offset="0.4526383"
         stop-color="#fff44f"
         id="stop46367"
         style="stop-color:#fa4225;stop-opacity:1" /><stop
         offset="0.58689529"
         stop-color="#ff980e"
         id="stop46359"
         style="stop-color:#e48300;stop-opacity:1" /><stop
         offset="0.63703501"
         stop-color="#ff5634"
         id="stop46361"
         style="stop-color:#ff4623;stop-opacity:1" /><stop
         offset="0.73291695"
         stop-color="#ff5634"
         id="stop56987"
         style="stop-color:#e52427;stop-opacity:1" /><stop
         offset="0.82672489"
         stop-color="#ff5634"
         id="stop77159"
         style="stop-color:#e1680e;stop-opacity:1" /><stop
         offset="0.86545533"
         stop-color="#ff5634"
         id="stop69595"
         style="stop-color:#e26f0a;stop-opacity:1" /><stop
         offset="0.97851986"
         stop-color="#ff3647"
         id="stop46363"
         style="stop-color:#be103b;stop-opacity:1" /></radialGradient><radialGradient
       id="radialGradient38464"
       cx="-7938.3828"
       cy="-8508.1758"
       r="73.720001"
       gradientTransform="matrix(5.0375515,0,0,5.0375515,40172.924,42938.649)"
       gradientUnits="userSpaceOnUse"><stop
         offset=".137"
         stop-color="#fff44f"
         id="stop38456" /><stop
         offset=".48"
         stop-color="#ff980e"
         id="stop38458" /><stop
         offset=".592"
         stop-color="#ff5634"
         id="stop38460" /><stop
         offset="0.8657282"
         stop-color="#ff3647"
         id="stop38462"
         style="stop-color:#aa0f35;stop-opacity:1" /></radialGradient><radialGradient
       id="radialGradient29019"
       cx="-7938.3828"
       cy="-8508.1758"
       r="73.720001"
       gradientTransform="matrix(5.0375515,0,0,5.0375515,40172.924,42938.649)"
       gradientUnits="userSpaceOnUse"><stop
         offset=".137"
         stop-color="#fff44f"
         id="stop29011" /><stop
         offset=".48"
         stop-color="#ff980e"
         id="stop29013" /><stop
         offset="0.72455388"
         stop-color="#ff5634"
         id="stop29015" /><stop
         offset="0.79393554"
         stop-color="#ff3647"
         id="stop29017"
         style="stop-color:#aa0f35;stop-opacity:1" /></radialGradient><radialGradient
       id="radialGradient28451"
       cx="-7938.3828"
       cy="-8508.1758"
       r="73.720001"
       gradientTransform="matrix(5.0375515,0,0,5.0375515,40172.924,42938.649)"
       gradientUnits="userSpaceOnUse"><stop
         offset="0.80304402"
         stop-color="#ff3647"
         id="stop28449"
         style="stop-color:#ed2e5d;stop-opacity:1" /></radialGradient><radialGradient
       id="radialGradient20290"
       cx="-7938.3828"
       cy="-8508.1758"
       r="73.720001"
       gradientTransform="matrix(5.0375515,0,0,5.0375515,40172.924,42938.649)"
       gradientUnits="userSpaceOnUse"><stop
         offset="0.33097732"
         stop-color="#fff44f"
         id="stop20282"
         style="stop-color:#be103b;stop-opacity:1" /><stop
         offset=".48"
         stop-color="#ff980e"
         id="stop20284" /><stop
         offset="0.59200001"
         stop-color="#ff5634"
         id="stop20286"
         style="stop-color:#e22600;stop-opacity:1" /><stop
         offset="0.80304402"
         stop-color="#ff3647"
         id="stop20288"
         style="stop-color:#ebed2e;stop-opacity:1" /></radialGradient><radialGradient
       id="radialGradient1197"
       cx="-7938.3828"
       cy="-8508.1758"
       r="73.720001"
       gradientTransform="matrix(5.0375515,0,0,5.0375515,40172.924,42938.649)"
       gradientUnits="userSpaceOnUse"><stop
         offset="0.18914856"
         stop-color="#fff44f"
         id="stop1189"
         style="stop-color:#aa0f35;stop-opacity:1" /><stop
         offset="0.49062765"
         stop-color="#ff980e"
         id="stop1191"
         style="stop-color:#e48300;stop-opacity:1" /><stop
         offset="0.59200001"
         stop-color="#ff5634"
         id="stop1193"
         style="stop-color:#ff4623;stop-opacity:1" /><stop
         offset="0.80304402"
         stop-color="#ff3647"
         id="stop1195"
         style="stop-color:#be103b;stop-opacity:1" /></radialGradient><filter
       style="color-interpolation-filters:sRGB"
       inkscape:label="Drop Shadow"
       id="filter954"
       x="-0.97312469"
       y="-1.1465367"
       width="3.0573605"
       height="3.5548959"><feFlood
         flood-opacity="1"
         flood-color="rgb(0,0,0)"
         result="flood"
         id="feFlood944" /><feComposite
         in="flood"
         in2="SourceGraphic"
         operator="in"
         result="composite1"
         id="feComposite946" /><feGaussianBlur
         in="composite1"
         stdDeviation="1.8246088"
         result="blur"
         id="feGaussianBlur948" /><feOffset
         dx="0.5"
         dy="1"
         result="offset"
         id="feOffset950" /><feComposite
         in="SourceGraphic"
         in2="offset"
         operator="over"
         result="composite2"
         id="feComposite952" /></filter><filter
       style="color-interpolation-filters:sRGB"
       inkscape:label="Drop Shadow"
       id="filter1320"
       x="-0.26695758"
       y="-0.19443338"
       width="1.5671749"
       height="1.4373149"><feFlood
         flood-opacity="1"
         flood-color="rgb(0,0,0)"
         result="flood"
         id="feFlood1310" /><feComposite
         in="flood"
         in2="SourceGraphic"
         operator="in"
         result="composite1"
         id="feComposite1312" /><feGaussianBlur
         in="composite1"
         stdDeviation="1.6721778"
         result="blur"
         id="feGaussianBlur1314" /><feOffset
         dx="0.5"
         dy="1"
         result="offset"
         id="feOffset1316" /><feComposite
         in="SourceGraphic"
         in2="offset"
         operator="over"
         result="composite2"
         id="feComposite1318" /></filter><radialGradient
       id="b"
       cx="-7907.187"
       cy="-8515.1211"
       r="80.796997"
       gradientTransform="matrix(5.0375515,0,0,5.0375515,40172.924,42938.649)"
       gradientUnits="userSpaceOnUse"><stop
         offset=".129"
         stop-color="#ffbd4f"
         id="stop851" /><stop
         offset=".186"
         stop-color="#ffac31"
         id="stop853" /><stop
         offset=".247"
         stop-color="#ff9d17"
         id="stop855" /><stop
         offset=".283"
         stop-color="#ff980e"
         id="stop857" /><stop
         offset=".403"
         stop-color="#ff563b"
         id="stop859" /><stop
         offset=".467"
         stop-color="#ff3750"
         id="stop861" /><stop
         offset=".71"
         stop-color="#f5156c"
         id="stop863" /><stop
         offset=".782"
         stop-color="#eb0878"
         id="stop865" /><stop
         offset=".86"
         stop-color="#e50080"
         id="stop867" /></radialGradient><radialGradient
       id="radialGradient1828"
       cx="-7938.3828"
       cy="-8508.1758"
       r="73.720001"
       gradientTransform="matrix(5.0375515,0,0,5.0375515,40172.924,42938.649)"
       gradientUnits="userSpaceOnUse"><stop
         offset=".137"
         stop-color="#fff44f"
         id="stop1818" /><stop
         offset=".48"
         stop-color="#ff980e"
         id="stop1820" /><stop
         offset=".592"
         stop-color="#ff5634"
         id="stop1822" /><stop
         offset="0.80304402"
         stop-color="#ff3647"
         id="stop1824"
         style="stop-color:#ed2e5d;stop-opacity:1" /></radialGradient><linearGradient
       gradientTransform="matrix(5.0375515,0,0,5.0375515,-1.5488165,-1.4394645)"
       gradientUnits="userSpaceOnUse"
       y2="74.468002"
       x2="6.447"
       y1="12.393"
       x1="70.786003"
       id="linearGradient1265"><stop
         style="stop-color:#f3e300;stop-opacity:1"
         id="stop1249"
         stop-color="#fff44f"
         offset=".048" /><stop
         style="stop-color:#d8bd00;stop-opacity:1"
         id="stop1251"
         stop-color="#ffe847"
         offset=".111" /><stop
         style="stop-color:#ff7139;stop-opacity:1"
         id="stop1253"
         stop-color="#ffc830"
         offset="0.15208137" /><stop
         style="stop-color:#ff7f7f;stop-opacity:1"
         id="stop1255"
         stop-color="#ff980e"
         offset="0.27911803" /><stop
         id="stop1257"
         stop-color="#ff8b16"
         offset="0.29647699" /><stop
         style="stop-color:#ff7f7f;stop-opacity:1"
         id="stop1259"
         stop-color="#ff672a"
         offset="0.49346635" /><stop
         style="stop-color:#000000;stop-opacity:1"
         id="stop1263"
         stop-color="#e31587"
         offset="0.73228592" /></linearGradient><radialGradient
       id="radialGradient1069"
       cx="-7907.187"
       cy="-8515.1211"
       r="80.796997"
       gradientTransform="matrix(5.0375515,0,0,5.0375515,40172.924,42938.649)"
       gradientUnits="userSpaceOnUse"><stop
         offset=".129"
         stop-color="#ffbd4f"
         id="stop1051" /><stop
         offset=".186"
         stop-color="#ffac31"
         id="stop1053" /><stop
         offset=".247"
         stop-color="#ff9d17"
         id="stop1055" /><stop
         offset=".283"
         stop-color="#ff980e"
         id="stop1057" /><stop
         offset=".403"
         stop-color="#ff563b"
         id="stop1059" /><stop
         offset=".467"
         stop-color="#ff3750"
         id="stop1061"
         style="stop-color:#885cf6;stop-opacity:1" /><stop
         offset=".71"
         stop-color="#f5156c"
         id="stop1063" /><stop
         offset=".782"
         stop-color="#eb0878"
         id="stop1065" /><stop
         offset=".86"
         stop-color="#e50080"
         id="stop1067" /></radialGradient><radialGradient
       id="e"
       cx="-7945.6479"
       cy="-8460.9844"
       r="38.471001"
       gradientTransform="matrix(5.0375515,0,0,5.0375515,40172.924,42938.649)"
       gradientUnits="userSpaceOnUse"><stop
         offset=".353"
         stop-color="#3a8ee6"
         id="stop890" /><stop
         offset=".472"
         stop-color="#5c79f0"
         id="stop892" /><stop
         offset=".669"
         stop-color="#9059ff"
         id="stop894" /><stop
         offset="1"
         stop-color="#c139e6"
         id="stop896" /></radialGradient><radialGradient
       id="radialGradient1584"
       cx="-7945.6479"
       cy="-8460.9844"
       r="38.471001"
       gradientTransform="matrix(5.0375515,0,0,5.0375515,40172.924,42938.649)"
       gradientUnits="userSpaceOnUse"><stop
         offset=".353"
         stop-color="#3a8ee6"
         id="stop1576" /><stop
         offset=".472"
         stop-color="#5c79f0"
         id="stop1578" /><stop
         offset=".669"
         stop-color="#9059ff"
         id="stop1580" /><stop
         offset="1"
         stop-color="#c139e6"
         id="stop1582"
         style="stop-color:#b91661;stop-opacity:1" /></radialGradient><radialGradient
       id="b-4"
       cx="-7907.187"
       cy="-8515.1211"
       r="80.796997"
       gradientTransform="matrix(5.0375515,0,0,5.0375515,40172.924,42938.649)"
       gradientUnits="userSpaceOnUse"><stop
         offset=".129"
         stop-color="#ffbd4f"
         id="stop851-0" /><stop
         offset=".186"
         stop-color="#ffac31"
         id="stop853-5" /><stop
         offset=".247"
         stop-color="#ff9d17"
         id="stop855-9" /><stop
         offset=".283"
         stop-color="#ff980e"
         id="stop857-4" /><stop
         offset=".403"
         stop-color="#ff563b"
         id="stop859-6" /><stop
         offset=".467"
         stop-color="#ff3750"
         id="stop861-9" /><stop
         offset=".71"
         stop-color="#f5156c"
         id="stop863-2" /><stop
         offset=".782"
         stop-color="#eb0878"
         id="stop865-2" /><stop
         offset=".86"
         stop-color="#e50080"
         id="stop867-4" /></radialGradient><radialGradient
       id="radialGradient1694"
       cx="-7915.9771"
       cy="-8535.9814"
       r="118.081"
       gradientTransform="matrix(5.0375515,0,0,5.0375515,40172.924,42938.649)"
       gradientUnits="userSpaceOnUse"><stop
         offset=".113"
         stop-color="#fff44f"
         id="stop1684"
         style="stop-color:#7e00e3;stop-opacity:1" /><stop
         offset=".456"
         stop-color="#ff980e"
         id="stop1686"
         style="stop-color:#ff2626;stop-opacity:1" /><stop
         offset=".622"
         stop-color="#ff5634"
         id="stop1688"
         style="stop-color:#ffa014;stop-opacity:1" /><stop
         offset=".716"
         stop-color="#ff3647"
         id="stop1690" /><stop
         offset=".904"
         stop-color="#e31587"
         id="stop1692" /></radialGradient><radialGradient
       id="radialGradient1526"
       cx="-7945.6479"
       cy="-8460.9844"
       r="38.471001"
       gradientTransform="matrix(5.0375515,0,0,5.0375515,40172.924,42938.649)"
       gradientUnits="userSpaceOnUse"><stop
         style="stop-color:#e70000;stop-opacity:1"
         offset=".353"
         stop-color="#3a8ee6"
         id="stop1518" /><stop
         offset="0.67403209"
         stop-color="#9059ff"
         id="stop1522"
         style="stop-color:#ff9915;stop-opacity:1" /><stop
         offset="1"
         stop-color="#c139e6"
         id="stop1524"
         style="stop-opacity:1;stop-color:#ffffff" /></radialGradient><radialGradient
       gradientUnits="userSpaceOnUse"
       gradientTransform="matrix(5.0375515,0,0,5.0375515,40172.924,42938.649)"
       r="38.471001"
       cy="-8460.9844"
       cx="-7945.6479"
       id="radialGradient1247"><stop
         style="stop-color:#ed2e5d;stop-opacity:1"
         id="stop1239"
         stop-color="#3a8ee6"
         offset=".353" /><stop
         style="stop-color:#c92856;stop-opacity:1"
         id="stop1241"
         stop-color="#5c79f0"
         offset="0.51741093" /><stop
         style="stop-color:#eb1beb;stop-opacity:1"
         id="stop1243"
         stop-color="#9059ff"
         offset="0.67411792" /><stop
         style="stop-color:#f24ab2;stop-opacity:1"
         id="stop1852"
         stop-color="#9059ff"
         offset="0.81574661" /><stop
         style="stop-color:#a70000;stop-opacity:1"
         id="stop1245"
         stop-color="#c139e6"
         offset="1" /></radialGradient><linearGradient
       id="linearGradient933"
       x1="0"
       y1="0.5"
       x2="1"
       y2="0.5"
       gradientTransform="matrix(43.93,0,0,43,2,2.5)"
       gradientUnits="userSpaceOnUse"><stop
         offset="0%"
         stop-opacity="1"
         style="stop-color:#e700e5;stop-opacity:1"
         id="stop929-3" /><stop
         offset="100%"
         stop-opacity="1"
         style="stop-color:#7300e3;stop-opacity:1"
         id="stop931" /></linearGradient><clipPath
       clipPathUnits="userSpaceOnUse"
       id="clipPath925"><path
         id="path927"
         style="opacity:0.512051;fill:#dd955d;stroke-width:0.245843"
         d="M 46.763384,69.064991 C 46.763384,79.308998 34.244002,87.548407 24,87.548407 13.755998,87.548407 5.4515934,79.244002 5.4515934,69 c 0,-3.060123 0.7564413,-5.938386 2.0576151,-8.489103 C 7.6371218,60.260147 6.3892731,55.603438 6.5275131,55.359158 8.2549238,52.306694 10.13171,56.167357 11.540078,55.259592 15.277089,52.850899 19.203763,50.451593 24,50.451593 c 10.244002,0 22.763384,8.369396 22.763384,18.613398 z"
         sodipodi:nodetypes="ssssssss" /></clipPath><radialGradient
       id="radialGradient1473"
       cx="-7915.9771"
       cy="-8535.9814"
       r="118.081"
       gradientTransform="matrix(5.0375515,0,0,5.0375515,40172.924,42938.649)"
       gradientUnits="userSpaceOnUse"><stop
         offset=".113"
         stop-color="#fff44f"
         id="stop1463"
         style="stop-color:#7e00e3;stop-opacity:1" /><stop
         offset=".456"
         stop-color="#ff980e"
         id="stop1465"
         style="stop-color:#ff2626;stop-opacity:1" /><stop
         offset=".622"
         stop-color="#ff5634"
         id="stop1467"
         style="stop-color:#ffa014;stop-opacity:1" /><stop
         offset=".716"
         stop-color="#ff3647"
         id="stop1469" /><stop
         offset=".904"
         stop-color="#e31587"
         id="stop1471" /></radialGradient><clipPath
       clipPathUnits="userSpaceOnUse"
       id="clipPath1477"><path
         id="path1475"
         style="opacity:0.512051;fill:#dd955d;stroke-width:0.245843"
         d="M 46.763384,69.064991 C 46.763384,79.308998 34.244002,87.548407 24,87.548407 13.755998,87.548407 5.4515934,79.244002 5.4515934,69 c 0,-3.060123 0.7564413,-5.938386 2.0576151,-8.489103 C 7.6371218,60.260147 6.3892731,55.603438 6.5275131,55.359158 8.2549238,52.306694 10.13171,56.167357 11.540078,55.259592 15.277089,52.850899 19.203763,50.451593 24,50.451593 c 10.244002,0 22.763384,8.369396 22.763384,18.613398 z"
         sodipodi:nodetypes="ssssssss" /></clipPath><radialGradient
       id="radialGradient1828-7"
       cx="-7938.3828"
       cy="-8508.1758"
       r="73.720001"
       gradientTransform="matrix(5.0375515,0,0,5.0375515,40172.924,42938.649)"
       gradientUnits="userSpaceOnUse"><stop
         offset=".137"
         stop-color="#fff44f"
         id="stop1818-7" /><stop
         offset=".48"
         stop-color="#ff980e"
         id="stop1820-5" /><stop
         offset=".592"
         stop-color="#ff5634"
         id="stop1822-4" /><stop
         offset="0.80304402"
         stop-color="#ff3647"
         id="stop1824-8"
         style="stop-color:#aa0f35;stop-opacity:1" /></radialGradient><clipPath
       clipPathUnits="userSpaceOnUse"
       id="clipPath1499"><path
         id="path1497"
         style="opacity:0.512051;fill:#dd955d;stroke-width:0.245843"
         d="M 46.763384,69.064991 C 46.763384,79.308998 34.244002,87.548407 24,87.548407 13.755998,87.548407 5.4515934,79.244002 5.4515934,69 c 0,-3.060123 0.7564413,-5.938386 2.0576151,-8.489103 C 7.6371218,60.260147 6.3892731,55.603438 6.5275131,55.359158 8.2549238,52.306694 10.13171,56.167357 11.540078,55.259592 15.277089,52.850899 19.203763,50.451593 24,50.451593 c 10.244002,0 22.763384,8.369396 22.763384,18.613398 z"
         sodipodi:nodetypes="ssssssss" /></clipPath><filter
       inkscape:collect="always"
       style="color-interpolation-filters:sRGB"
       id="filter87465"
       x="-0.017819857"
       y="-0.057914536"
       width="1.0356397"
       height="1.1158291"><feGaussianBlur
         inkscape:collect="always"
         stdDeviation="1.9304845"
         id="feGaussianBlur87467" /></filter><linearGradient
       id="linearGradient36"
       inkscape:collect="always"><stop
         style="stop-color:#0b1c63;stop-opacity:1;"
         offset="0"
         id="stop35" /><stop
         style="stop-color:#51024d;stop-opacity:1;"
         offset="1"
         id="stop36" /></linearGradient><linearGradient
       inkscape:collect="always"
       id="linearGradient12"><stop
         style="stop-color:#1d99f3;stop-opacity:1;"
         offset="0"
         id="stop11" /><stop
         style="stop-color:#be0ece;stop-opacity:1;"
         offset="1"
         id="stop12" /></linearGradient><linearGradient
       id="linearGradient76"
       inkscape:collect="always"><stop
         style="stop-color:#c20ed2;stop-opacity:1;"
         offset="0"
         id="stop76" /><stop
         style="stop-color:#2592f1;stop-opacity:1;"
         offset="1"
         id="stop77" /></linearGradient><linearGradient
       inkscape:collect="always"
       xlink:href="#linearGradient36"
       id="linearGradient46"
       gradientUnits="userSpaceOnUse"
       gradientTransform="matrix(2.4131537,0,0,2.1662778,254.40732,39.344216)"
       x1="123.04078"
       y1="68.261589"
       x2="-68.229858"
       y2="-11.686676" /><linearGradient
       inkscape:collect="always"
       xlink:href="#linearGradient12"
       id="linearGradient47"
       gradientUnits="userSpaceOnUse"
       x1="-6.1289978"
       y1="45.641911"
       x2="12.929552"
       y2="23.502031" /><linearGradient
       inkscape:collect="always"
       xlink:href="#linearGradient12"
       id="linearGradient49"
       gradientUnits="userSpaceOnUse"
       x1="113.41444"
       y1="37.189026"
       x2="144.54462"
       y2="20.106991" /><linearGradient
       inkscape:collect="always"
       xlink:href="#linearGradient12"
       id="linearGradient50"
       gradientUnits="userSpaceOnUse"
       x1="12.9"
       y1="26.5"
       x2="30.871168"
       y2="50.690567" /><linearGradient
       inkscape:collect="always"
       xlink:href="#linearGradient12"
       id="linearGradient51"
       gradientUnits="userSpaceOnUse"
       x1="11.299936"
       y1="20.032253"
       x2="21.703646"
       y2="26.418795" /><linearGradient
       inkscape:collect="always"
       xlink:href="#linearGradient12"
       id="linearGradient52"
       gradientUnits="userSpaceOnUse"
       x1="7.4401035"
       y1="51.352932"
       x2="44.176052"
       y2="37.126827" /><linearGradient
       inkscape:collect="always"
       xlink:href="#linearGradient12"
       id="linearGradient53"
       gradientUnits="userSpaceOnUse"
       x1="29.535084"
       y1="26.167486"
       x2="53.131847"
       y2="47.140194" /><linearGradient
       inkscape:collect="always"
       xlink:href="#linearGradient12"
       id="linearGradient54"
       gradientUnits="userSpaceOnUse"
       x1="45.494396"
       y1="23.528399"
       x2="68.524025"
       y2="47.770905" /><linearGradient
       inkscape:collect="always"
       xlink:href="#linearGradient12"
       id="linearGradient55"
       gradientUnits="userSpaceOnUse"
       x1="61.265385"
       y1="45.368633"
       x2="87.482307"
       y2="37.126827" /><linearGradient
       inkscape:collect="always"
       xlink:href="#linearGradient12"
       id="linearGradient56"
       gradientUnits="userSpaceOnUse"
       x1="110.84289"
       y1="12.706193"
       x2="127.64062"
       y2="36.544922" /><linearGradient
       inkscape:collect="always"
       xlink:href="#linearGradient12"
       id="linearGradient57"
       gradientUnits="userSpaceOnUse"
       x1="81.039764"
       y1="27.87982"
       x2="120.34452"
       y2="40.720734" /><linearGradient
       inkscape:collect="always"
       xlink:href="#linearGradient12"
       id="linearGradient58"
       gradientUnits="userSpaceOnUse"
       x1="104.61091"
       y1="63.663265"
       x2="136.07822"
       y2="37.5" /><linearGradient
       inkscape:collect="always"
       xlink:href="#linearGradient12"
       id="linearGradient59"
       gradientUnits="userSpaceOnUse"
       x1="34.799999"
       y1="16.6"
       x2="19.4"
       y2="21.6" /><linearGradient
       inkscape:collect="always"
       xlink:href="#linearGradient12"
       id="linearGradient60"
       gradientUnits="userSpaceOnUse"
       gradientTransform="matrix(1.274024,0,0,1.274024,13.201467,4.4641631)"
       x1="10.001593"
       y1="12.841763"
       x2="69.489792"
       y2="31.291763" /><linearGradient
       inkscape:collect="always"
       xlink:href="#linearGradient12"
       id="linearGradient61"
       gradientUnits="userSpaceOnUse"
       x1="37"
       y1="9.8999996"
       x2="26.919016"
       y2="1.4117067" /><linearGradient
       inkscape:collect="always"
       xlink:href="#linearGradient12"
       id="linearGradient62"
       gradientUnits="userSpaceOnUse"
       x1="40.104485"
       y1="16.91691"
       x2="35.861839"
       y2="27.487743" /><linearGradient
       inkscape:collect="always"
       id="linearGradient2"><stop
         style="stop-color:#111a61;stop-opacity:1;"
         offset="0"
         id="stop1" /><stop
         style="stop-color:#460650;stop-opacity:1;"
         offset="1"
         id="stop2" /></linearGradient><filter
       inkscape:collect="always"
       style="color-interpolation-filters:sRGB"
       id="filter31-6"
       x="-0.025155954"
       y="-0.028065718"
       width="1.0503119"
       height="1.0561314"><feGaussianBlur
         inkscape:collect="always"
         stdDeviation="10.285342"
         id="feGaussianBlur31-7" /></filter><linearGradient
       inkscape:collect="always"
       xlink:href="#linearGradient2"
       id="linearGradient66"
       gradientUnits="userSpaceOnUse"
       gradientTransform="matrix(2.2002217,0,0,2.2002217,178.41526,-417.90791)"
       x1="-1.8359758e-06"
       y1="-4.3368595e-06"
       x2="48"
       y2="48" /><linearGradient
       inkscape:collect="always"
       xlink:href="#linearGradient12"
       id="linearGradient67"
       gradientUnits="userSpaceOnUse"
       gradientTransform="matrix(0.13756246,0,0,0.13756246,160.78861,-435.53457)"
       x1="851.99237"
       y1="796.66571"
       x2="77.229874"
       y2="395.87769" /><linearGradient
       inkscape:collect="always"
       xlink:href="#linearGradient76"
       id="linearGradient68"
       gradientUnits="userSpaceOnUse"
       gradientTransform="matrix(0.13756246,0,0,0.13756246,751.13218,-595.83266)"
       x1="-4084.4939"
       y1="1678.2324"
       x2="-3476.0791"
       y2="1678.2324" /></defs><g
     id="Background"
     inkscape:label="Background"
     inkscape:groupmode="layer"><g
       id="g71"><path
         id="path15"
         style="fill:#000000;fill-rule:evenodd;stroke-width:0.33078;paint-order:stroke markers fill;filter:url(#filter87465);stop-color:#000000"
         d="M -62.079581,-12.456451 H 122.39804 c 20.91971,0 37.76119,16.5354381 37.76119,37.074973 v 5.850054 c 0,20.539535 -16.84148,37.074973 -37.76119,37.074973 H -62.079581 c -20.919696,0 -37.761189,-16.535438 -37.761189,-37.074973 v -5.850054 c 0,-20.5395349 16.841493,-37.074973 37.761189,-37.074973 z"
         sodipodi:nodetypes="sssssssss"
         transform="matrix(2.4039586,0,0,2.1979662,252.49848,39.460206)" /><path
         id="path16"
         style="opacity:0.973837;fill:url(#linearGradient46);fill-rule:evenodd;stroke-width:0.757939;paint-order:stroke markers fill;stop-color:#000000"
         d="m 103.96474,12.360076 h 442.07059 c 50.1307,0 90.4885,36.22911 90.4885,81.23118 v 12.817464 c 0,45.00208 -40.3578,81.23119 -90.4885,81.23119 H 103.96474 c -50.13066,0 -90.48855,-36.22911 -90.48855,-81.23119 V 93.591256 c 0,-45.00207 40.35789,-81.23118 90.48855,-81.23118 z"
         sodipodi:nodetypes="sssssssss" /><g
         id="g70"><path
           class="st0"
           d="m 0,22.5 h 12.9 v 4 H 4.8 v 3.9 h 7.6 v 4 H 4.8 v 8.8 H 0 Z"
           id="path18"
           transform="matrix(2.9142078,0,0,2.7827103,206.82874,17.939926)"
           style="fill:url(#linearGradient47);filter:url(#filter954)" /><path
           class="st0"
           d="m 136.5,33.8 v 9.4 h -2.3 v -9.3 c 0,-1.5 -0.3,-2.6 -0.8,-3.3 -0.5,-0.7 -1.3,-1.1 -2.3,-1.1 -1.2,0 -2.2,0.4 -2.9,1.3 -0.7,0.9 -1.1,2.1 -1.1,3.6 v 8.8 h -2.3 V 27.7 h 2.3 v 2.4 c 0.5,-0.9 1.2,-1.6 1.9,-2.1 0.7,-0.5 1.6,-0.7 2.6,-0.7 1.6,0 2.8,0.6 3.6,1.7 0.9,1 1.3,2.7 1.3,4.8 z"
           id="path19"
           transform="matrix(2.9142078,0,0,2.7827103,206.82874,17.939926)"
           style="fill:url(#linearGradient49);filter:url(#filter954)" /><polyline
           class="st0"
           points="14.9,27.7 19.4,27.7 19.4,43.2 14.9,43.2 14.9,27.7 14.9,27.7  "
           id="polyline19"
           transform="matrix(2.9142078,0,0,2.7827103,206.82874,17.939926)"
           style="fill:url(#linearGradient50);filter:url(#filter954)" /><polyline
           class="st0"
           points="14.9,21.6 19.4,21.6 19.4,25.7 14.9,25.7 14.9,21.6  "
           id="polyline20"
           transform="matrix(2.9142078,0,0,2.7827103,206.82874,17.939926)"
           style="fill:url(#linearGradient51);filter:url(#filter954)" /><path
           class="st0"
           d="m 32.8,31.9 c -0.4,-0.2 -0.8,-0.4 -1.2,-0.5 -0.4,-0.1 -0.8,-0.1 -1.2,-0.1 -1.1,0 -2,0.4 -2.6,1.2 -0.6,0.8 -0.9,2 -0.9,3.5 v 7.1 H 22.5 V 27.7 h 4.4 v 2.5 c 0.6,-1 1.2,-1.8 2,-2.2 0.7,-0.5 1.6,-0.7 2.7,-0.7 0.1,0 0.3,0 0.5,0 0.2,0 0.4,0 0.8,0.1 z"
           id="path20"
           transform="matrix(2.9142078,0,0,2.7827103,206.82874,17.939926)"
           style="fill:url(#linearGradient52);filter:url(#filter954)" /><path
           class="st0"
           d="m 48.8,35.4 v 1.4 H 38.4 c 0.1,1.2 0.5,2 1.1,2.6 0.6,0.6 1.6,0.9 2.7,0.9 0.9,0 1.9,-0.2 2.9,-0.5 1,-0.3 2,-0.8 3,-1.4 v 3.8 c -1,0.4 -2.1,0.8 -3.2,1 -1.1,0.2 -2.1,0.3 -3.2,0.3 -2.5,0 -4.5,-0.7 -5.9,-2.1 -1.4,-1.4 -2.1,-3.4 -2.1,-6 0,-2.5 0.7,-4.5 2.1,-6 1.4,-1.5 3.3,-2.2 5.7,-2.2 2.2,0 3.9,0.7 5.3,2.2 1.3,1.6 2,3.5 2,6 v 0 M 44.2,33.7 C 44.2,32.8 44,32 43.5,31.4 43,30.8 42.4,30.5 41.6,30.5 c -0.9,0 -1.6,0.3 -2.1,0.8 -0.5,0.5 -0.9,1.3 -1,2.3 h 5.7"
           id="path22"
           transform="matrix(2.9142078,0,0,2.7827103,206.82874,17.939926)"
           style="fill:url(#linearGradient53);filter:url(#filter954)" /><path
           class="st0"
           d="m 54.9,24.8 v 16.1 h 3 c 2.6,0 4.4,-0.6 5.6,-1.9 1.2,-1.3 1.8,-3.3 1.8,-6.1 0,-2.8 -0.6,-4.8 -1.8,-6.1 -1.2,-1.3 -3.1,-1.9 -5.6,-1.9 h -3 v -0.1 m -2.5,-2.3 h 5.1 c 3.6,0 6.2,0.8 7.9,2.5 1.7,1.7 2.5,4.3 2.5,7.8 0,3.6 -0.8,6.2 -2.5,7.9 -1.7,1.7 -4.3,2.5 -7.9,2.5 H 52.4 V 22.5"
           id="path23"
           transform="matrix(2.9142078,0,0,2.7827103,206.82874,17.939926)"
           style="fill:url(#linearGradient54);filter:url(#filter954)" /><path
           class="st0"
           d="m 78.7,30 c -0.3,-0.2 -0.5,-0.3 -0.8,-0.4 -0.3,-0.1 -0.6,-0.1 -1,-0.1 -1.3,0 -2.3,0.5 -3,1.4 -0.7,0.9 -1,2.3 -1,4 v 8.2 H 70.6 V 27.7 h 2.3 v 2.4 c 0.5,-0.9 1.1,-1.6 1.9,-2.1 0.8,-0.5 1.7,-0.7 2.8,-0.7 0.2,0 0.3,0 0.5,0 0.2,0 0.4,0.1 0.6,0.1 z"
           id="path24"
           transform="matrix(2.9142078,0,0,2.7827103,206.82874,17.939926)"
           style="fill:url(#linearGradient55);filter:url(#filter954)" /><path
           id="path25"
           style="mix-blend-mode:normal;fill:url(#linearGradient56);stroke-width:1.27402;filter:url(#filter1320)"
           d="m 119.99609,16.414062 c -0.89181,0 -1.91046,0.128008 -2.92968,0.382813 -1.01922,0.254805 -2.03938,0.509922 -3.0586,1.019531 v 3.056641 c 0.89182,-0.637012 1.78352,-1.018633 2.80274,-1.273438 0.89181,-0.254804 1.91242,-0.382812 2.93164,-0.382812 1.52883,0 2.80154,0.510976 3.69336,1.275391 0.89181,0.764414 1.27539,1.910624 1.27539,3.439453 v 0.253906 h -4.07813 c -2.67545,0 -4.71425,0.509628 -5.98828,1.65625 -1.40143,1.019219 -2.03711,2.802909 -2.03711,4.96875 0,1.911036 0.63703,3.441269 1.65625,4.587891 1.01922,1.146621 2.54645,1.65625 4.33008,1.65625 1.52883,0 2.67609,-0.382969 3.69531,-0.892579 0.89182,-0.637012 1.78487,-1.529159 2.42188,-2.675781 v 3.058594 h 2.92968 V 25.205078 c 1e-5,-2.930255 -0.63808,-5.223573 -1.9121,-6.625 -1.27403,-1.401426 -3.18438,-2.166016 -5.73243,-2.166016 z m 1.78321,10.19336 h 2.80273 v 0.763672 c 0,2.165841 -0.38117,3.821679 -1.40039,5.095703 -0.89182,1.274024 -2.16603,1.912109 -3.82226,1.912109 -1.14663,0 -2.16573,-0.382519 -2.80274,-1.019531 -0.63701,-0.764414 -1.01953,-1.656113 -1.01953,-2.802734 0,-1.401427 0.50857,-2.421582 1.40039,-3.058594 0.89182,-0.637012 2.54855,-0.890625 4.8418,-0.890625 z"
           transform="matrix(2.2874041,0,0,2.1841898,182.21354,57.928686)" /><path
           class="st0"
           d="m 115.8,29.4 c -1.2,0 -2.2,0.5 -2.9,1.6 -0.7,1.1 -1.1,2.5 -1.1,4.4 0,1.9 0.4,3.3 1.1,4.4 0.7,1.1 1.7,1.6 2.9,1.6 1.2,0 2.2,-0.5 2.9,-1.6 0.7,-1.1 1.1,-2.5 1.1,-4.4 0,-1.8 -0.4,-3.3 -1.1,-4.4 -0.7,-1 -1.7,-1.6 -2.9,-1.6 v 0 m 0,-2.1 c 2,0 3.5,0.7 4.7,2.2 1.1,1.4 1.7,3.4 1.7,6 0,2.5 -0.6,4.5 -1.7,6 -1.1,1.4 -2.7,2.2 -4.7,2.2 -2,0 -3.6,-0.7 -4.7,-2.2 -1.1,-1.4 -1.7,-3.4 -1.7,-6 0,-2.5 0.6,-4.5 1.7,-6 1.2,-1.5 2.7,-2.2 4.7,-2.2"
           id="path27"
           transform="matrix(2.9142078,0,0,2.7827103,206.82874,17.939926)"
           style="fill:url(#linearGradient58);filter:url(#filter954)" /><path
           class="st0"
           d="m 34.8,16.9 c -0.6,0.1 -1.1,0.2 -1.7,0.3 -2.1,0.3 -3.6,1.6 -4.7,3.3 -0.6,0.9 -1.3,1.9 -2,2.8 -0.5,0.6 -1,1 -1.6,1.5 C 24.6,25 24.3,25 24.1,25.1 24.1,25 24,25 24,24.9 c 0.4,-0.6 0.9,-1.2 1.4,-1.9 -1.1,-0.1 -2.1,0.5 -3.1,-0.2 0.1,-0.2 0.2,-0.4 0.3,-0.5 1.8,-1.6 3.6,-3.2 5.6,-4.6 1.4,-1 3,-1.6 4.7,-1.5 0.6,0 1.3,0.3 1.9,0.4 0,0.1 0,0.2 0,0.3 z"
           id="path28"
           style="fill:url(#linearGradient59);filter:url(#filter954)"
           transform="matrix(2.9142078,0,0,2.7827103,206.82874,17.939926)" /><path
           id="path30"
           style="fill:url(#linearGradient60);stroke-width:1.27402;filter:url(#filter954)"
           class="st0"
           d="m 58.429688,9.5605469 c -1.146622,2.9302551 0.508729,5.0949791 1.910156,7.5156251 -6.115316,-0.764415 -11.082674,1.020486 -14.777344,5.734375 0.127402,0.127402 0.126953,0.126504 0.126953,0.253906 h 1.65625 c -1.911036,2.548048 -4.20451,3.823476 -7.134765,4.587891 0.254804,0.254805 0.637773,0.38041 0.892578,0.507812 1.401426,0.382207 2.929101,0.256153 4.203125,-0.380859 1.401426,-0.637012 2.802147,-1.274199 4.076171,-2.166016 3.439865,-2.165841 6.880448,-1.274922 10.320313,0.253907 0.254805,0.127402 0.637168,0.891679 0.509766,1.146484 -0.382208,0.637012 -0.126797,0.893183 0.382812,1.27539 1.528829,1.146622 1.529141,1.145605 1.019531,3.056641 0,0 0.126954,0.128457 0.126954,0.255859 h 2.802734 c 0.254805,0.127403 0.763222,0.126504 0.890625,0.253907 0.509609,1.146621 1.274648,0.636719 2.039062,0.636719 1.401427,-0.382208 2.930898,0.128768 3.695313,1.27539 0.637012,1.019219 0.636407,1.655058 -0.382813,2.546875 -0.382207,0.382207 -0.890781,0.764277 -1.40039,1.146485 2.165841,0.764414 4.968163,-0.253476 6.242187,-2.03711 0.254805,-0.382207 0.509023,-1.02043 1.273438,-0.765625 0.127402,0 0.509765,-0.382363 0.509765,-0.509765 0.127403,-1.01922 0.25586,-1.910469 0.25586,-2.929688 -0.127403,-0.764414 -0.382363,-1.528105 -0.509766,-2.419922 -1.401426,1.019219 -1.785312,1.145723 -2.294922,0.253906 -0.637012,-1.019219 -1.14664,-2.166327 -1.65625,-3.185546 -0.127402,-0.254805 0.0011,-0.763223 0.25586,-0.890626 0.637012,-0.509609 0.382207,-0.764277 0,-1.146484 -1.274024,-1.401426 -2.547793,-2.804101 -3.949219,-4.078125 -1.274024,-1.146622 -2.676699,-2.419784 -4.078125,-3.566406 -2.420646,-1.783634 -4.966816,-3.566737 -6.623047,-6.2421876 0,-0.1274024 -0.128008,-0.2554101 -0.382812,-0.3828125 z m 6.699218,12.8750001 c 0.04064,2.32e-4 0.491223,0.109841 1.001953,0.244141 1.572339,0.413465 2.813916,1.18242 3.451172,2.136718 0.187563,0.280878 0.341797,0.540577 0.341797,0.576172 0,0.09653 -0.480634,0.244556 -0.771484,0.238281 -0.140028,-0.0031 -0.403347,-0.05253 -0.583985,-0.109375 -0.180637,-0.05683 -0.417268,-0.150865 -0.52539,-0.208984 -0.303962,-0.163387 -0.901971,-0.741091 -1.238281,-1.195312 -0.398044,-0.537598 -0.95712,-1.109462 -1.396485,-1.427735 -0.194032,-0.140559 -0.319943,-0.254194 -0.279297,-0.253906 z"
           transform="matrix(2.2874041,0,0,2.1841898,176.63165,8.189356)" /><path
           class="st0"
           d="m 26.2,4.9 c 1.5,0.9 3.2,0.6 4.8,0.8 0.7,0.1 1.4,0.1 2,0.3 1.1,0.3 1.7,1.1 1.9,2.1 C 35,8.5 35,8.8 34.6,8.7 32.4,8.5 30.2,8.4 28.2,7.5 27.6,7.2 27,6.8 26.5,6.4 26.1,6.1 25.9,5.5 26.2,4.9 Z"
           id="path32"
           style="fill:url(#linearGradient61);filter:url(#filter954)"
           transform="matrix(2.9142078,0,0,2.7827103,206.82874,17.939926)" /><path
           class="st0"
           d="m 35.4,18.1 c -2.1,1.5 -3.8,3 -2.5,5.7 -0.1,0.1 -0.1,0.1 -0.2,0.1 -1.3,-0.5 -2.4,-1.4 -3.1,-2.7 -0.1,-0.2 -0.1,-0.6 0,-0.9 0.8,-1.6 3.4,-2.9 5.2,-2.6 0.1,0.1 0.2,0.2 0.6,0.4 z"
           id="path33"
           style="fill:url(#linearGradient62);filter:url(#filter954)"
           transform="matrix(2.9142078,0,0,2.7827103,206.82874,17.939926)" /><path
           style="fill:#1d84dd;fill-opacity:1;fill-rule:evenodd;stroke-width:0.0811186;paint-order:stroke markers fill;stop-color:#000000"
           d="m 333.47633,64.261926 c -0.4132,-0.12411 -0.9536,-0.32956 -1.2009,-0.4565 -0.6953,-0.35687 -2.0667,-1.61994 -2.8359,-2.61204 -0.9105,-1.17422 -2.1897,-2.42259 -3.1947,-3.11776 -0.4438,-0.30699 -0.7309,-0.55767 -0.6379,-0.55704 0.093,5.1e-4 1.1249,0.24117 2.2931,0.5345 3.5966,0.90309 6.4375,2.58227 7.8951,4.66663 0.429,0.61349 0.7801,1.17904 0.7801,1.25679 0,0.21084 -1.1,0.53683 -1.7653,0.52313 -0.3203,-0.007 -0.9204,-0.11356 -1.3336,-0.23771 z"
           id="path34" /><g
           id="g69"
           transform="translate(-117.76507,465.1026)"><circle
             style="isolation:isolate;fill:url(#linearGradient66);fill-opacity:1;fill-rule:evenodd;stroke-width:11.7486;stroke-linecap:round;stroke-linejoin:round;stroke-miterlimit:50;paint-order:stroke fill markers;stop-color:#000000"
             id="circle2"
             cx="231.22057"
             cy="-365.1026"
             r="52.805321" /><path
             id="path2"
             style="fill:#000000;fill-opacity:1;stroke-width:99.5617;stroke-linecap:round;stroke-linejoin:round;stroke-dasharray:none;paint-order:stroke fill markers;filter:url(#filter31-6)"
             d="m -4664.9213,72.2371 c -37.7675,0.1414 -89.5787,3.1089 -164.8243,3.5566 -300.9821,1.7909 -227.5266,-41.2021 -376.4668,220.3516 -148.9401,261.5536 -149.4482,176.4423 2.5938,436.205 152.042,259.7628 78.0823,217.6464 379.0644,215.8555 300.9822,-1.7908 227.5286,41.204 376.4688,-220.3496 148.9401,-261.5536 149.4463,-176.4442 -2.5957,-436.207 C -4564.7126,96.8271 -4551.619,71.8126 -4664.9213,72.2371 Z m -39.1348,106.0898 c 85.9689,-0.322 76.0325,18.6578 162.5547,166.4805 115.3629,197.0968 114.9781,132.5189 1.9687,330.9746 -113.0094,198.4557 -57.276,165.8345 -285.6484,167.1933 -228.3724,1.3589 -172.2542,33.3137 -287.6172,-163.7832 -115.363,-197.0968 -114.9782,-132.5189 -1.9687,-330.9746 113.0094,-198.4557 57.276,-165.8326 285.6484,-167.1914 57.0931,-0.3397 96.4062,-2.5918 125.0625,-2.6992 z"
             transform="matrix(0.13928813,0,0,0.13928813,903.58524,-436.41814)" /><path
             id="path3"
             style="fill:url(#linearGradient67);fill-opacity:1;stroke-width:13.6959;stroke-linecap:round;stroke-linejoin:round;stroke-dasharray:none;paint-order:stroke fill markers"
             d="m 253.53707,-425.59747 c -5.19539,0.0195 -12.32266,0.42767 -22.67364,0.48925 -41.40383,0.24636 -31.29911,-5.66786 -51.78769,30.31211 -20.48857,35.97996 -20.55846,24.27184 0.35681,60.00543 20.91527,35.73361 10.74119,29.93997 52.14503,29.69361 41.40385,-0.24634 31.29939,5.66812 51.78797,-30.31183 20.48855,-35.97995 20.55819,-24.2721 -0.35707,-60.0057 -15.68645,-26.80021 -13.88527,-30.24127 -29.47141,-30.18287 z m -5.38348,14.59397 c 11.82609,-0.0443 10.45922,2.56662 22.36142,22.90147 15.86961,27.11312 15.81667,18.22962 0.27082,45.52968 -15.54585,27.30005 -7.87902,22.8126 -39.29449,22.99951 -31.41547,0.18694 -23.69571,4.58272 -39.56533,-22.53041 -15.86961,-27.11312 -15.81668,-18.22963 -0.27082,-45.52968 15.54585,-27.30005 7.87903,-22.81234 39.2945,-22.99926 7.85386,-0.0467 13.26187,-0.35653 17.2039,-0.37131 z" /><path
             id="path4"
             style="isolation:isolate;mix-blend-mode:normal;fill:#06355f;fill-opacity:1;fill-rule:evenodd;stroke-width:0.443248;stroke-linecap:round;stroke-linejoin:round;stroke-miterlimit:50;paint-order:stroke fill markers;stop-color:#000000"
             d="m 231.60014,-407.36269 c -3.77894,0 -6.49412,0.32371 -10.03275,1.19403 -6.34606,1.56078 -12.24657,4.61042 -17.28792,8.93701 -1.46561,1.2578 -1.67484,1.51994 -1.7692,2.20603 -0.12051,0.87629 0.10549,1.60896 0.66982,2.17328 0.55953,0.55952 1.16084,0.75721 2.05313,0.6771 0.94655,-0.085 1.7079,-0.51337 3.10522,-1.75464 4.37795,-3.88903 11.0334,-6.56854 18.71856,-7.53911 1.77761,-0.2245 7.10924,-0.18952 8.8642,0.0583 6.31743,0.89188 12.17434,3.23659 16.97121,6.79649 6.55803,4.86689 11.19495,11.53054 13.49105,19.38838 1.30472,4.46503 1.71303,10.15809 1.09939,15.27482 -0.19018,1.58585 -0.15443,2.15339 0.1711,2.79577 0.29987,0.59175 0.90323,1.18738 1.44522,1.42337 0.41164,0.17924 1.48408,0.20161 1.9148,0.0401 0.51372,-0.1927 1.10506,-0.65253 1.40152,-1.08482 0.2266,-0.33041 0.33353,-0.74589 0.56061,-2.23152 0.42365,-2.77135 0.54907,-4.81806 0.47326,-7.64834 -0.0735,-2.74097 -0.31913,-4.90695 -0.84457,-7.43354 -2.85424,-13.72501 -12.46879,-25.1476 -25.54783,-30.35307 -5.05124,-2.01041 -9.87194,-2.92054 -15.45682,-2.91955 z m -31.25222,14.33197 c -0.21532,0 -0.081,1.40585 0.29122,3.0506 0.37565,1.65972 1.76645,3.90156 3.34181,5.38769 0.96163,0.90714 3.48509,2.70889 4.53949,3.23988 1.69967,0.85595 4.06209,1.67985 9.72696,3.39644 1.64557,0.49863 3.09947,0.96392 3.23261,1.03385 0.46692,0.24523 2.81328,2.53417 3.30907,3.22897 0.44245,0.62004 1.48889,2.67169 1.48889,2.9159 0,0.0504 -0.25323,0.1569 -0.56425,0.23662 -1.58995,0.4075 -2.56613,1.19602 -3.85874,3.11977 -1.23433,1.83698 -1.16814,1.92069 1.57261,1.95486 2.88058,0.0359 3.30703,0.14726 4.97997,1.32143 1.04929,0.73646 1.43619,1.19216 1.75464,2.07135 0.13539,0.37379 0.56554,1.38157 0.95377,2.2388 0.38823,0.85724 0.70258,1.6447 0.70258,1.74736 0,0.52996 -0.40045,0.0231 -2.08591,-2.6174 -0.61388,-0.96174 -1.29871,-1.97036 -1.52166,-2.24243 -0.51667,-0.63053 -1.6207,-1.19741 -2.35529,-1.2086 -0.60469,-0.009 -1.21374,0.3619 -2.17692,1.32509 -0.65465,0.65466 -0.88421,1.15423 -1.32507,2.90497 -0.37039,1.47096 -0.44462,2.2923 -0.28759,3.08337 0.22713,1.14417 0.17481,1.08173 0.82998,1.00473 0.31946,-0.0375 0.79837,-0.14693 1.06664,-0.2439 0.62075,-0.22441 1.30652,-0.16 3.01418,0.28029 2.62528,0.67691 3.3032,1.02142 6.00654,3.0688 1.04671,0.79273 3.41667,3.10924 3.64762,3.56389 0.10239,0.2016 0.35772,1.03657 0.56424,1.85657 0.20652,0.81998 0.51339,1.75259 0.68439,2.07135 0.44331,0.82632 1.12119,1.46649 1.8056,1.70731 0.31668,0.11141 0.62284,0.28942 0.68074,0.39679 0.14722,0.27307 -0.20517,1.03442 -0.84819,1.82381 -0.28397,0.34858 -0.46073,0.65458 -0.39316,0.6771 0.23499,0.0783 1.14128,-0.45697 1.78012,-1.04842 0.70005,-0.64811 0.77903,-0.68707 0.77903,-0.40408 0,0.10374 -0.37654,0.54467 -0.83363,0.98289 -0.45711,0.43822 -0.83,0.85352 -0.83,0.92101 0,0.21711 0.60258,0.13071 1.22315,-0.17474 0.38058,-0.18733 0.93537,-0.63262 1.49617,-1.20495 0.64551,-0.65877 0.99466,-0.92978 1.27412,-0.99017 0.63686,-0.13762 1.17986,-0.47154 1.43065,-0.87732 0.34369,-0.5561 0.55654,-1.7263 0.55698,-3.05788 0.001,-1.63513 -0.14453,-2.05842 -0.44413,-1.29959 -0.28969,0.73372 -1.08238,1.29959 -1.81289,1.29959 -0.8075,0 -0.88091,-0.17371 -0.49507,-1.13213 0.24256,-0.60258 0.34619,-2.03679 0.17836,-2.4463 -0.11134,-0.2717 -0.27156,-0.16154 -0.95376,0.66254 -0.66714,0.80587 -1.97887,1.67261 -2.18784,1.4452 -0.0688,-0.0749 -0.59704,-0.83749 -1.17584,-1.69639 -1.11793,-1.65898 -1.55003,-2.60169 -2.19146,-4.80887 -0.36218,-1.24622 -1.56267,-6.34414 -1.50711,-6.39971 0.0185,-0.0184 0.3254,-0.1372 0.68076,-0.26209 0.91312,-0.32094 1.21603,-0.23257 2.14778,0.62249 0.94067,0.86325 1.84437,1.33989 2.88315,1.51802 0.70091,0.1202 0.87659,0.10771 1.75099,-0.1092 0.90292,-0.22402 1.01613,-0.22808 1.6345,-0.0801 0.36568,0.0875 0.93199,0.26279 1.25955,0.38951 1.32994,0.51448 1.75136,0.83606 2.39535,1.82745 0.49617,0.76384 0.92813,1.13792 1.56534,1.36513 0.45387,0.16183 0.5488,0.24423 0.57882,0.50236 0.0544,0.46824 -0.37009,1.75032 -1.05934,3.19984 -0.34062,0.71633 -0.58837,1.33374 -0.5497,1.37241 0.0387,0.0387 0.30086,0.007 0.5861,-0.0728 0.98867,-0.27682 3.23153,-2.35727 3.88422,-3.60393 0.166,-0.31705 0.40225,-0.64097 0.52421,-0.71714 0.28986,-0.18102 1.42859,-0.25755 2.06043,-0.13833 0.49778,0.0939 0.50059,0.0949 0.49144,0.55331 -0.009,0.43188 -0.42672,1.37244 -1.27775,2.87587 -0.14422,0.25479 -0.22661,0.50144 -0.18202,0.54605 0.27309,0.27308 1.53056,-0.86607 2.38806,-2.166 0.90891,-1.37786 1.21748,-1.73921 1.82017,-2.12594 0.56418,-0.36205 0.86275,-0.78899 0.86275,-1.23408 0,-0.14471 -0.12431,-0.62956 -0.27667,-1.07754 -0.15236,-0.44797 -0.27667,-0.89902 -0.27667,-1.00109 0,-0.10206 0.16233,-0.39771 0.36039,-0.6589 0.71535,-0.94327 0.74562,-1.02139 0.74628,-1.79831 0,-0.40779 -0.0478,-0.76881 -0.10557,-0.80452 -0.0578,-0.0357 -0.46401,0.16286 -0.90281,0.44412 -0.43878,0.28126 -0.85968,0.53877 -0.93556,0.5679 -0.0759,0.0291 -0.57773,-0.19782 -1.11757,-0.50237 -1.16565,-0.65763 -1.81068,-0.85254 -3.36731,-1.01566 -0.72718,-0.0762 -1.30837,-0.20039 -1.55077,-0.33127 -0.21332,-0.11516 -1.03748,-0.52932 -1.83109,-0.921 -1.03508,-0.51087 -1.55607,-0.84036 -1.84928,-1.16491 -0.48028,-0.5316 -0.8037,-1.49889 -0.71714,-2.14416 0.0318,-0.23723 0.008,-0.60523 -0.051,-0.81908 -0.17605,-0.63755 -1.40471,-1.82433 -3.01784,-2.91589 -1.77453,-1.20077 -2.06706,-1.4618 -1.98761,-1.76556 0.0745,-0.28481 -0.35418,-1.22897 -0.97196,-2.14416 -1.68935,-2.50259 -5.04069,-4.78118 -11.12121,-7.56823 -2.73349,-1.25293 -3.72019,-1.75497 -4.35747,-2.20968 -0.28682,-0.20465 -0.97315,-0.63522 -1.52166,-0.95741 -0.99444,-0.58412 -2.16678,-1.64892 -3.07972,-2.79213 -0.77209,-0.9668 -0.80546,-0.53373 -0.0874,1.13578 0.73413,1.70682 1.40282,2.70302 2.25336,3.35274 1.35693,1.03655 2.32416,1.6242 4.07353,2.47906 2.26821,1.10841 3.4082,1.86393 4.51037,2.98871 1.17669,1.20085 2.96299,3.91933 4.23005,6.43975 0.50361,1.00181 0.48277,1.07142 -0.29121,1.00108 -0.7097,-0.0645 -1.57991,-0.29362 -1.57991,-0.41864 0,-0.0447 0.12522,-0.11488 0.27667,-0.15289 0.409,-0.10266 0.46283,-0.52134 0.18202,-1.38333 -0.73768,-2.26434 -2.89022,-4.57221 -5.38769,-5.77355 -1.8944,-0.91124 -8.22121,-2.66332 -15.79903,-4.37568 -5.08742,-1.14961 -6.50228,-1.58392 -7.71022,-2.36621 -2.13308,-1.38143 -4.37652,-4.04139 -5.59881,-6.63268 -0.29634,-0.6282 -0.58841,-1.14307 -0.64798,-1.14307 z m 4.01528,12.08225 c -0.6682,0.0142 -0.46433,0.31807 1.04477,0.89916 0.47822,0.18416 1.04229,0.43931 1.25591,0.5679 0.56106,0.33772 1.79386,1.31862 1.7328,1.37969 -0.0285,0.0285 -0.96533,-0.19921 -2.08227,-0.50601 -3.09932,-0.85135 -3.79786,-1.01201 -4.35748,-1.01201 -0.50997,0 -0.94284,0.14461 -0.94284,0.31671 0,0.049 0.56299,0.2536 1.24863,0.45504 2.0057,0.58924 2.74117,0.98212 2.74117,1.46341 0,0.22623 0.0693,0.23312 -1.47796,-0.14926 -1.41607,-0.34994 -2.09064,-0.36946 -3.45468,-0.10193 -1.30274,0.25552 -2.21928,0.54373 -2.10411,0.6589 0.0388,0.0388 0.44487,0.0814 0.89916,0.0947 0.45428,0.0132 1.15942,0.10334 1.56898,0.20386 0.81383,0.19972 2.12959,0.77879 2.12959,0.93556 0,0.1357 -0.57519,0.19106 -3.26902,0.31671 -1.27987,0.0597 -2.45062,0.15701 -2.60283,0.21477 -0.24609,0.0934 -0.18846,0.12435 0.51329,0.28395 0.43403,0.0987 1.62893,0.28668 2.65744,0.41864 1.02851,0.13194 1.89305,0.25887 1.91845,0.2803 0.1183,0.0998 -0.21395,0.16389 -2.38077,0.47326 -3.75516,0.53612 -4.06065,0.76479 -1.71096,1.27774 1.17057,0.25555 1.32372,0.4251 0.66619,0.74627 -0.41072,0.20062 -1.40388,0.46665 -2.19877,0.58974 l -0.47688,0.0764 0.0874,-0.42955 c 0.0476,-0.23457 0.085,-0.75332 0.0837,-1.15398 -0.002,-0.60405 -0.0585,-0.83017 -0.33855,-1.32872 -1.01873,-1.81339 -3.39128,-2.02287 -4.62322,-0.40772 -0.89897,1.17861 -1.42756,8.87741 -0.91372,13.3236 0.45354,3.92447 1.33956,7.49191 2.72661,10.97195 1.15122,2.88837 2.25632,4.9935 4.04804,7.70293 7.15384,10.81798 18.89858,17.66884 31.96573,18.64941 1.17036,0.0878 4.92662,0.0659 6.15215,-0.0364 9.24658,-0.7718 17.78555,-4.43048 24.69599,-10.57879 0.8639,-0.76864 0.9515,-0.88375 1.0739,-1.43065 0.262,-1.17076 -0.12863,-2.20753 -1.04477,-2.77394 -0.45941,-0.28402 -0.64271,-0.32958 -1.27412,-0.32399 -1.31695,0.0117 -1.78385,0.27242 -4.06989,2.27885 -1.2532,1.09992 -2.96823,2.19163 -5.08918,3.23989 -5.79415,2.8637 -12.55947,4.25612 -19.08623,3.92791 -4.45301,-0.22392 -8.57985,-1.04524 -12.43172,-2.84308 -1.17719,-0.54947 -2.22791,-1.39714 -3.1052,-2.3553 -2.86277,-3.12668 -5.66876,-6.6824 -6.7601,-10.77174 -0.517,-1.93726 -0.70015,-3.3494 -0.70258,-5.40589 -0.005,-3.96669 0.98752,-6.68995 3.52384,-9.67963 1.44959,-1.70869 4.76775,-3.33526 7.86675,-3.85511 0.86354,-0.14485 1.39522,-0.28737 1.51074,-0.4077 0.11796,-0.12292 0.24051,-0.66698 0.36768,-1.61268 0.43596,-3.24218 0.84334,-3.8599 2.99962,-4.56132 0.59825,-0.19461 0.90893,-0.34725 0.86276,-0.42592 -1.0128,-1.726 -2.99474,-3.93843 -4.29195,-4.79068 -0.61956,-0.407 -0.6985,-0.42962 -1.43792,-0.41136 -1.0355,0.0257 -4.79367,0.98964 -6.49071,1.66363 -4.91234,1.95095 -8.84163,4.55138 -11.55076,7.65198 -1.53916,1.76154 -2.63162,3.35344 -4.24463,6.17763 -0.30193,0.52866 -0.32251,0.541 -0.3968,0.27666 -0.2345,-0.83446 -0.0748,-1.24132 1.26684,-3.26537 2.70349,-4.07851 6.08082,-7.1746 10.45138,-9.58134 2.6517,-1.46021 5.04411,-2.39873 7.81944,-3.06516 0.90962,-0.21842 1.63501,-0.41814 1.60901,-0.44412 -0.026,-0.026 -0.71645,-0.26327 -1.53257,-0.52785 -0.81612,-0.26457 -2.38823,-0.83965 -3.49472,-1.27411 -1.10647,-0.43447 -2.6199,-0.9628 -3.36002,-1.17583 -1.9838,-0.571 -3.52183,-0.84422 -4.19001,-0.83 z m 30.99739,2.97416 c 0.21206,0.0564 0.74674,0.51892 1.62359,1.40153 1.65889,1.66975 1.89429,1.84529 3.62213,2.70476 1.44259,0.7176 2.15749,1.22421 2.02766,1.43428 -0.14146,0.22888 -0.42418,0.13187 -2.50455,-0.85183 -2.50864,-1.18621 -2.99878,-1.50903 -3.33089,-2.19512 -0.1379,-0.28484 -0.48352,-0.82247 -0.76811,-1.19403 -0.49613,-0.64768 -0.7754,-1.08575 -0.7754,-1.2195 0,-0.0706 0.0349,-0.0989 0.10557,-0.0801 z m -6.64724,2.10774 c 0.16445,0.0442 0.60047,0.54657 1.15763,1.4707 0.71807,1.19107 1.59704,1.96704 3.01054,2.65744 0.63506,0.31018 1.15398,0.5842 1.15398,0.60793 0,0.16762 -2.17332,-0.46447 -2.74115,-0.79723 -0.51919,-0.30426 -1.37834,-1.38579 -2.10776,-2.65015 -0.52873,-0.91653 -0.6377,-1.33283 -0.47324,-1.28869 z m -8.7914,4.57954 c 0.16402,-0.0115 0.34022,-0.003 0.52786,0.0255 0.66351,0.0995 0.65805,0.22489 -0.0583,1.40153 -0.71842,1.18011 -0.82523,1.49227 -0.97925,2.83218 -0.069,0.60017 -0.1781,1.25526 -0.24027,1.4525 -0.0622,0.19722 -0.15367,0.38536 -0.20748,0.41862 -0.3048,0.18838 -0.77548,-1.55694 -0.77175,-2.86492 0.003,-0.95035 0.2753,-2.14213 0.60428,-2.63925 0.25215,-0.38102 0.63279,-0.59169 1.12486,-0.62613 z m -3.40734,0.33128 0.6225,0.0328 -0.04,1.33236 c -0.0342,1.14681 0.003,1.49627 0.25845,2.56279 0.16292,0.68018 0.28135,1.42961 0.26211,1.66364 -0.0316,0.38423 -0.0694,0.42879 -0.37495,0.45867 -1.04662,0.10239 -1.71096,-1.6334 -1.71096,-4.47031 0,-1.53133 0.0593,-1.62852 0.9829,-1.5799 z m -2.78848,0.44047 c 0.0654,-0.006 0.13955,-0.004 0.22569,0.004 l 0.41499,0.0328 0.0656,1.2195 c 0.0744,1.38293 0.30444,2.35065 0.77537,3.28358 0.35203,0.69734 0.40524,1.1083 0.17474,1.29959 -0.0808,0.0671 -0.32583,0.19557 -0.54605,0.28759 -0.36577,0.15282 -0.41611,0.15177 -0.58972,-0.0219 -0.5272,-0.52718 -1.23928,-2.88104 -1.33965,-4.42663 l -0.0692,-1.0193 0.34948,-0.34582 c 0.2146,-0.2146 0.34255,-0.29638 0.53877,-0.31308 z m -2.32619,0.58245 c 0.28349,0.0298 0.3745,0.329 0.48054,1.17583 0.14596,1.16586 0.52008,2.29738 1.16126,3.51291 0.27179,0.51527 0.49509,1.02225 0.49509,1.12851 0,0.10625 -0.12871,0.25325 -0.28396,0.32398 -0.74925,0.34139 -1.07903,0.0786 -1.9148,-1.52166 -0.73652,-1.41014 -1.12486,-2.59366 -1.12486,-3.4219 0,-0.74997 0.14995,-0.96257 0.82998,-1.15034 0.1446,-0.0399 0.26226,-0.0573 0.35675,-0.0473 z m -2.83945,0.96104 c 0.38965,-0.0385 0.61199,0.26455 0.70622,0.93193 0.15927,1.12778 0.83393,2.47157 2.07499,4.12813 0.30159,0.40256 0.33839,0.51545 0.24754,0.7754 -0.0819,0.23428 -0.19012,0.3118 -0.46596,0.33854 -0.30693,0.0298 -0.44464,-0.0515 -0.96104,-0.56788 -0.61932,-0.61932 -1.58637,-2.01715 -2.09684,-3.03241 -0.60833,-1.20994 -0.59024,-2.09111 0.0473,-2.4208 0.16867,-0.0872 0.31789,-0.14006 0.44776,-0.15291 z m -2.26063,1.32144 c 0.16935,0.007 0.26679,0.12591 0.31669,0.35676 0.2285,1.05682 1.54416,3.02984 2.76665,4.14269 0.51599,0.46971 0.9392,0.91867 0.9392,1.0011 0,0.0824 -0.16231,0.25053 -0.36038,0.37131 -0.19808,0.12076 -0.49095,0.2182 -0.65162,0.21842 -0.96668,10e-4 -3.67674,-2.84291 -4.31015,-4.52493 -0.25926,-0.68848 -0.22862,-0.7583 0.55333,-1.25591 0.33615,-0.21393 0.5769,-0.31685 0.74628,-0.30944 z m 31.25221,0.24027 c 0.39695,-0.057 2.29163,0.49671 3.11248,0.91009 0.90289,0.45468 1.90626,1.33706 2.31525,2.03493 0.28202,0.48122 0.28676,0.50582 0.0874,0.65162 -0.34976,0.25577 -1.37489,0.1888 -2.01674,-0.13104 -0.54377,-0.27099 -0.89628,-0.6109 -2.07498,-1.99126 -0.30014,-0.3515 -0.79869,-0.8167 -1.10667,-1.0375 -0.47916,-0.34353 -0.52382,-0.40707 -0.3167,-0.43684 z m -34.00067,1.64179 c 0.24195,0 0.48534,0.26668 1.23407,1.36512 0.79386,1.16464 2.15722,2.41689 3.18164,2.92319 0.44311,0.21898 0.80452,0.43515 0.80452,0.48052 -10e-6,0.0454 -0.17771,0.23677 -0.39315,0.42592 -0.21543,0.18916 -0.47427,0.34297 -0.57882,0.34218 -0.30229,-0.002 -1.84986,-0.88855 -2.70475,-1.55078 -1.22694,-0.95039 -2.41718,-2.52708 -2.41718,-3.19984 0,-0.25269 0.59329,-0.78631 0.87367,-0.78631 z m -2.13323,1.90025 c 0.26967,0.0345 0.63635,0.42384 1.47433,1.3906 1.01922,1.17583 1.95347,1.84008 3.24354,2.30069 0.56074,0.20021 1.04048,0.42765 1.06661,0.506 0.0261,0.0784 -0.0398,0.31006 -0.14925,0.51329 -0.24729,0.45915 -0.43144,0.46449 -1.77284,0.0473 -1.43685,-0.44685 -1.55357,-0.50601 -2.30797,-1.14307 -2.17779,-1.83905 -2.666,-2.64156 -2.02039,-3.33817 0.17536,-0.18924 0.30417,-0.29735 0.46597,-0.27667 z m -1.751,2.08955 c 0.0735,0 0.64336,0.51733 1.26683,1.15033 1.29939,1.31927 1.77435,1.60008 3.76774,2.2279 0.71486,0.22513 1.29959,0.44529 1.29959,0.49144 0,0.15891 -0.65987,0.99392 -0.87732,1.11029 -0.11977,0.0641 -0.28383,0.11363 -0.36401,0.11286 -0.29988,-0.003 -1.97544,-0.64394 -2.5992,-0.99381 -1.59954,-0.89714 -3.13995,-2.50106 -3.1416,-3.27629 -0.001,-0.34373 0.37742,-0.82271 0.64797,-0.82271 z m 51.79095,0.24026 c 0.13569,0.0268 0.3261,0.14801 0.58974,0.36403 0.64375,0.52743 0.64624,0.79268 0.011,1.19403 -0.26531,0.16761 -0.53931,0.30579 -0.60794,0.30579 -0.1626,0 -0.24069,-0.34568 -0.26939,-1.16128 -0.0185,-0.52387 0.0505,-0.74732 0.27667,-0.70257 z m -53.1488,1.87477 0.81545,0.89188 c 0.44753,0.48926 1.08243,1.05877 1.4088,1.26684 0.32637,0.20806 0.85221,0.54634 1.17218,0.7499 0.64825,0.4124 1.41373,0.68147 2.2461,0.79359 0.30472,0.041 0.61546,0.12659 0.69165,0.1893 0.19916,0.16393 0.16916,0.46471 -0.0655,0.67711 -0.65416,0.59201 -3.73256,-0.26789 -5.51508,-1.53986 -1.17997,-0.84202 -1.53359,-1.75756 -1.00473,-2.6174 z m 39.42477,1.65998 c -0.16751,0.0446 0.0719,0.26983 0.76083,0.66619 2.00332,1.15264 3.1844,2.34411 5.04913,5.10373 2.19396,3.24689 3.43754,4.73531 4.99089,5.97379 1.881,1.4997 2.46228,1.77721 4.12085,1.9767 1.44841,0.17421 2.89098,-0.0482 3.81506,-0.58974 0.54046,-0.31672 1.55733,-1.54513 2.47907,-2.99963 1.24788,-1.96916 1.63226,-2.28874 3.06515,-2.51182 0.89601,-0.13949 1.93937,0.0156 2.81763,0.41499 0.83193,0.37825 2.0462,1.6361 2.6101,2.70477 0.50608,0.95906 0.63589,0.82144 0.2439,-0.25847 -0.62116,-1.71129 -1.82175,-3.04425 -3.48015,-3.86602 -0.83391,-0.41323 -1.02283,-0.46569 -1.74008,-0.46961 -0.75442,-0.004 -0.87974,0.0337 -1.99854,0.58974 -1.3654,0.67858 -1.95543,1.20208 -2.99598,2.672 -0.36568,0.51656 -1.04988,1.33412 -1.52166,1.81653 l -0.85912,0.87731 -1.19038,-0.0619 c -2.11559,-0.11184 -2.86302,-0.4382 -4.4849,-1.95485 -1.07942,-1.00941 -1.55434,-1.73462 -2.95957,-4.51765 -1.67243,-3.31217 -2.93957,-5.13287 -3.57116,-5.13287 -0.30446,0 -0.19199,0.32106 0.40407,1.16491 0.2583,0.36567 0.56874,0.86287 0.69165,1.10666 0.24354,0.48304 0.42229,1.16491 0.30579,1.16491 -0.0401,0 -0.5814,-0.51109 -1.20129,-1.13578 -1.31599,-1.32618 -1.9656,-1.74049 -3.6549,-2.3189 -0.9525,-0.32614 -1.5289,-0.45962 -1.69639,-0.41499 z m -40.64063,0.98653 c 0.0337,0 0.43996,0.33169 0.9028,0.73536 0.46284,0.40366 1.10612,0.90269 1.43065,1.11029 1.23649,0.79098 3.01032,1.31329 4.008,1.17947 0.37128,-0.0498 0.46941,-0.0234 0.53149,0.13834 0.10269,0.26761 -0.27722,0.95275 -0.62615,1.12849 -0.17263,0.087 -0.6927,0.13395 -1.38332,0.12742 -1.72015,-0.0164 -2.1198,-0.13137 -3.38186,-0.98289 -0.3352,-0.22617 -0.76265,-0.48978 -0.95012,-0.58609 -0.29594,-0.15203 -0.37971,-0.30621 -0.64071,-1.17583 -0.28231,-0.9407 -0.29022,-1.02115 -0.1274,-1.336 0.0953,-0.18436 0.20289,-0.33854 0.23662,-0.33854 z m 10.90279,4.21186 c -0.20771,0 -0.22206,0.0758 -0.22206,1.2632 0,4.37975 1.16678,8.71196 2.56643,9.53402 0.99752,0.58588 2.76994,-0.1495 4.69602,-1.95121 0.39706,-0.37145 0.74435,-0.65355 0.77175,-0.62614 0.0274,0.0274 -0.0229,0.64336 -0.11286,1.36876 -0.20376,1.64266 -0.20657,2.27703 -0.011,2.5446 0.14952,0.20443 0.15893,0.20721 0.46961,0.004 0.17463,-0.11443 0.83795,-0.75197 1.47434,-1.4161 0.63638,-0.66412 1.3782,-1.36077 1.64906,-1.54713 0.86382,-0.59433 1.93922,-0.51214 2.03495,0.15652 0.0226,0.15796 0.15281,0.29024 0.35311,0.36039 0.26479,0.0928 0.40598,0.0637 0.85911,-0.1893 0.60921,-0.34012 0.87369,-0.3834 0.87369,-0.13833 0,0.0914 -0.0987,0.16744 -0.21842,0.16744 -0.37538,0 -0.48126,0.39159 -0.415,1.54351 0.0435,0.75562 0.1808,1.46049 0.46961,2.4463 0.4997,1.70563 0.62346,3.11253 0.34582,3.94612 -0.0994,0.29835 -0.38266,0.83926 -0.62613,1.20495 -0.24349,0.36568 -0.44025,0.73171 -0.44049,0.81179 -0.001,0.23185 0.84715,-0.29368 1.45978,-0.90281 1.3699,-1.36207 1.78939,-3.26454 1.34329,-6.07935 -0.21036,-1.32726 -0.15249,-1.52894 0.41862,-1.52894 0.30658,0 0.31214,0.0157 0.30578,0.58246 -0.007,0.63063 0.18122,1.4398 0.62979,2.74116 0.34662,1.00556 0.46287,2.13705 0.28032,2.69022 -0.0723,0.21908 -0.27842,0.58129 -0.45869,0.80815 -0.18026,0.22684 -0.30472,0.4379 -0.27667,0.46596 0.0923,0.0923 0.81639,-0.42011 1.17946,-0.83364 0.71275,-0.81178 1.04357,-2.1751 0.86277,-3.54932 -0.0458,-0.34838 -0.11727,-0.89741 -0.16018,-1.2195 -0.0655,-0.49183 -0.0463,-0.61005 0.12013,-0.73171 0.17366,-0.12698 0.19048,-0.27375 0.14197,-1.20132 -0.0461,-0.88103 -0.11011,-1.18201 -0.3968,-1.79468 -0.29553,-0.63151 -0.41497,-0.76505 -0.82271,-0.95012 -0.26131,-0.1186 -0.57799,-0.21708 -0.70623,-0.21842 -0.28811,-0.003 -0.66118,-0.3419 -1.13214,-1.02657 -0.39097,-0.56837 -1.067,-1.02288 -1.68547,-1.13579 -0.30139,-0.055 -0.45594,-0.0203 -0.68074,0.15653 -0.16036,0.12611 -0.33554,0.22934 -0.38952,0.22934 -0.054,0 -0.34047,-0.25386 -0.63342,-0.56424 -0.6998,-0.74146 -1.12225,-0.91298 -2.22788,-0.90646 -1.40368,0.008 -2.64952,0.46562 -5.63159,2.06407 -0.54041,0.28968 -0.89448,0.40408 -1.24135,0.40408 -0.75658,0 -1.07446,-0.41977 -2.61012,-3.44739 -1.46137,-2.88116 -1.86689,-3.53476 -2.20604,-3.53476 z m -10.04731,0.14927 c 0.0216,-0.0216 0.36507,0.0804 0.76083,0.22933 1.38539,0.52147 2.08583,0.65817 3.41463,0.66619 l 1.2741,0.007 v 0.60793 c 0,0.55884 -0.027,0.62199 -0.31671,0.76083 -0.31755,0.1522 -2.1631,0.26544 -2.78849,0.1711 -1.20744,-0.18217 -1.46546,-0.27637 -1.60538,-0.57517 -0.3268,-0.69791 -0.77534,-1.83114 -0.73898,-1.86748 z m 5.22751,3.34182 0.0328,0.35675 c 0.0636,0.65699 -0.33153,1.02937 -1.25227,1.18311 -1.17325,0.19589 -1.16361,0.18558 -0.44047,0.415 0.43565,0.13812 0.83226,0.18833 1.16126,0.14925 0.62899,-0.0747 0.81907,0.0525 0.81907,0.53877 0,0.45963 -0.15495,0.66316 -0.75719,1.00837 -0.88548,0.50756 -0.87859,0.51048 -1.5435,-0.51329 -0.52514,-0.80855 -1.7328,-2.90706 -1.7328,-3.01055 0,-0.0208 0.51108,-0.0465 1.13579,-0.0582 0.6247,-0.0117 1.46042,-0.0306 1.85657,-0.0437 z m 0.63342,4.11357 c 0.12225,0.0756 0.10929,1.07712 -0.0183,1.41245 -0.058,0.15263 -0.20403,0.3326 -0.32399,0.39678 -0.18944,0.10139 -0.27615,0.038 -0.64071,-0.45867 -0.39,-0.53131 -0.40296,-0.58021 -0.21478,-0.69166 0.11142,-0.066 0.40594,-0.25173 0.65527,-0.415 0.24933,-0.16327 0.4943,-0.27363 0.54241,-0.2439 z m 20.20745,1.81652 c 0.41888,0 1.04478,0.65458 1.04478,1.09575 0,0.46292 -0.13356,0.4312 -0.4332,-0.10194 -0.13736,-0.24442 -0.39295,-0.51923 -0.57153,-0.61157 -0.402,-0.20787 -0.42222,-0.38225 -0.04,-0.38225 z m -3.54568,0.35312 c -0.28742,0.028 -0.38545,0.11912 -0.60793,0.56788 -0.29865,0.60244 -0.30804,0.84188 -0.17473,3.81143 0.0684,1.52335 0.0511,1.9154 -0.11286,2.58463 -0.22667,0.92499 -0.74189,1.75083 -1.245,2.00218 -0.19642,0.0981 -0.32292,0.20855 -0.28394,0.24755 0.12595,0.12593 0.52158,0.0719 0.97561,-0.13471 1.03693,-0.47174 2.32201,-2.36013 2.72661,-4.00435 0.21881,-0.88922 0.19242,-2.89942 -0.0473,-3.68402 -0.26369,-0.86302 -0.77072,-1.43541 -1.23042,-1.39061 z m -16.24679,0.42227 c 0.36399,0 0.55698,0.24838 0.55698,0.71351 0,0.15637 -0.038,0.28141 -0.0837,0.2803 -0.0903,-0.002 -0.80088,-0.82926 -0.80088,-0.93192 0,-0.0346 0.14693,-0.0619 0.32763,-0.0619 z m 10.54968,0.0437 c -0.0864,0.0155 -0.19483,0.2972 -0.36039,0.81907 -0.56128,1.76922 -0.16467,4.2797 0.91737,5.81361 0.11822,0.16761 0.25622,0.30215 0.30942,0.30215 0.20208,0 0.23458,-0.24073 0.0655,-0.49872 -0.34876,-0.53229 -0.19435,-0.94075 0.97561,-2.57008 0.77879,-1.08459 1.28504,-1.95842 1.28504,-2.21696 0,-0.2198 -0.32684,-0.1002 -1.15034,0.42228 -0.71665,0.45468 -1.26813,0.55293 -1.50346,0.26939 -0.0738,-0.0889 -0.18202,-0.54807 -0.24027,-1.02293 -0.11251,-0.91735 -0.18746,-1.33774 -0.29849,-1.31781 z m 11.83107,0.17836 c 0.3127,0 0.78268,0.19596 0.78268,0.32764 0,0.13368 -0.14627,0.13079 -0.63707,-0.011 -0.39388,-0.11372 -0.48757,-0.3167 -0.14562,-0.3167 z" /><path
             id="path14"
             style="isolation:isolate;fill:url(#linearGradient68);fill-opacity:1;fill-rule:evenodd;stroke-width:0.443248;stroke-linecap:round;stroke-linejoin:round;stroke-miterlimit:50;paint-order:stroke fill markers;stop-color:#000000"
             d="m 231.08417,-406.81108 c -3.77894,10e-4 -6.49412,0.32372 -10.03275,1.19403 -6.34606,1.56079 -12.24656,4.61042 -17.28791,8.93701 -1.46561,1.2578 -1.67484,1.51994 -1.76921,2.20603 -0.12051,0.87628 0.1055,1.60896 0.66982,2.17328 0.55953,0.55952 1.16084,0.75722 2.05315,0.6771 0.94653,-0.085 1.70788,-0.51337 3.1052,-1.75464 4.37795,-3.88902 11.0334,-6.56854 18.71857,-7.53912 1.77761,-0.2245 7.10923,-0.18952 8.8642,0.0582 6.31742,0.8919 12.17435,3.23661 16.97122,6.7965 6.55801,4.8669 11.19494,11.53055 13.49105,19.38839 1.30471,4.46503 1.71302,10.15809 1.09937,15.27483 -0.19018,1.58584 -0.15433,2.15339 0.1711,2.79576 0.29987,0.59175 0.90324,1.18737 1.44523,1.42337 0.41166,0.17925 1.48407,0.2016 1.9148,0.0401 0.51373,-0.19269 1.10507,-0.65253 1.40153,-1.08482 0.2266,-0.33041 0.33351,-0.74588 0.56061,-2.23151 0.42365,-2.77135 0.54907,-4.81806 0.47324,-7.64834 -0.0734,-2.74097 -0.31912,-4.90694 -0.84456,-7.43354 -2.85423,-13.72502 -12.46879,-25.1476 -25.54783,-30.35307 -5.05125,-2.01041 -9.87193,-2.92055 -15.45683,-2.91955 z m -31.25222,14.33198 c -0.21532,0 -0.081,1.40584 0.29122,3.05059 0.37565,1.65972 1.76645,3.90155 3.34183,5.38768 0.96161,0.90715 3.48507,2.7089 4.53949,3.2399 1.69965,0.85594 4.06208,1.67984 9.72696,3.39643 1.64555,0.49863 3.09945,0.96391 3.23259,1.03385 0.46692,0.24523 2.81329,2.53417 3.30907,3.22897 0.44245,0.62004 1.48889,2.67169 1.48889,2.9159 0,0.0504 -0.25322,0.15691 -0.56424,0.23662 -1.58996,0.40749 -2.56614,1.19603 -3.85874,3.11977 -1.23433,1.83698 -1.16815,1.92069 1.57262,1.95486 2.88058,0.0359 3.30703,0.14726 4.97995,1.32144 1.0493,0.73645 1.43619,1.19215 1.75465,2.07134 0.13532,0.37377 0.56553,1.38156 0.95376,2.2388 0.38823,0.85724 0.70259,1.6447 0.70259,1.74736 0,0.52996 -0.40045,0.0231 -2.0859,-2.6174 -0.61389,-0.96174 -1.29871,-1.97036 -1.52166,-2.24244 -0.51669,-0.63053 -1.62072,-1.1974 -2.35531,-1.20859 -0.60468,-0.009 -1.21374,0.3619 -2.17691,1.32509 -0.65466,0.65464 -0.88422,1.15422 -1.32508,2.90497 -0.37039,1.47094 -0.4446,2.2923 -0.28758,3.08336 0.22713,1.14419 0.17483,1.08174 0.83,1.00474 0.31944,-0.0375 0.79836,-0.14693 1.06661,-0.24391 0.62076,-0.2244 1.30652,-0.15999 3.0142,0.28031 2.62528,0.6769 3.30319,1.0214 6.00653,3.06879 1.04671,0.79274 3.41667,3.10925 3.64761,3.56388 0.10233,0.20159 0.35773,1.03658 0.56424,1.85657 0.20654,0.81999 0.51339,1.7526 0.6844,2.07134 0.44331,0.82634 1.12119,1.46652 1.80559,1.70732 0.3167,0.11142 0.62287,0.28942 0.68076,0.3968 0.14723,0.27307 -0.20518,1.03443 -0.8482,1.8238 -0.28397,0.3486 -0.46072,0.65459 -0.39316,0.67711 0.23497,0.0783 1.14127,-0.45697 1.78012,-1.04842 0.70004,-0.64812 0.77903,-0.68708 0.77903,-0.40407 0,0.10373 -0.37653,0.54466 -0.83364,0.98288 -0.45709,0.43822 -0.82998,0.85352 -0.82998,0.92101 0,0.21711 0.60257,0.13071 1.22313,-0.17475 0.38058,-0.18732 0.93539,-0.63261 1.49617,-1.20493 0.64551,-0.65879 0.99466,-0.92979 1.27413,-0.99018 0.63685,-0.13763 1.17986,-0.47154 1.43067,-0.87732 0.34367,-0.55611 0.55652,-1.7263 0.55693,-3.05787 0.001,-1.63514 -0.14444,-2.05843 -0.4441,-1.2996 -0.28968,0.73371 -1.08237,1.2996 -1.81287,1.2996 -0.80752,0 -0.88094,-0.17372 -0.4951,-1.13214 0.24256,-0.60259 0.34619,-2.03679 0.17836,-2.4463 -0.11127,-0.2717 -0.27155,-0.16154 -0.95376,0.66254 -0.66712,0.80587 -1.97886,1.67259 -2.18783,1.4452 -0.0688,-0.0749 -0.59704,-0.83749 -1.17583,-1.69639 -1.11795,-1.65898 -1.55004,-2.60171 -2.19148,-4.80888 -0.36216,-1.24622 -1.56266,-6.34413 -1.50708,-6.3997 0.0186,-0.0184 0.32537,-0.13721 0.68071,-0.26209 0.91314,-0.32094 1.21605,-0.23257 2.14782,0.62249 0.94066,0.86325 1.84434,1.33989 2.88313,1.51802 0.70091,0.1202 0.8766,0.10771 1.75099,-0.10921 0.90292,-0.22401 1.01615,-0.22806 1.63452,-0.0801 0.36567,0.0875 0.93198,0.2628 1.25956,0.38952 1.32993,0.51447 1.75134,0.83605 2.39533,1.82745 0.49617,0.76384 0.92812,1.13792 1.56534,1.36512 0.45386,0.16184 0.54881,0.24423 0.57882,0.50236 0.0544,0.46824 -0.37009,1.75033 -1.05934,3.19985 -0.34062,0.71633 -0.58837,1.33373 -0.54971,1.37241 0.0388,0.0387 0.30087,0.007 0.58611,-0.0728 0.98866,-0.27681 3.23152,-2.35727 3.88423,-3.60392 0.16606,-0.31705 0.40223,-0.64097 0.52421,-0.71715 0.28984,-0.18101 1.42857,-0.25753 2.06042,-0.13834 0.49777,0.0939 0.50058,0.0948 0.49144,0.55334 -0.009,0.43187 -0.42673,1.37243 -1.27775,2.87586 -0.14426,0.2548 -0.22662,0.50145 -0.18209,0.54604 0.27307,0.27309 1.53055,-0.86608 2.38806,-2.16599 0.9089,-1.37786 1.21748,-1.73921 1.82016,-2.12595 0.56418,-0.36204 0.86275,-0.789 0.86275,-1.23408 0,-0.1447 -0.12432,-0.62955 -0.27667,-1.07753 -0.15228,-0.44798 -0.27666,-0.89902 -0.27666,-1.00109 0,-0.10206 0.16233,-0.39771 0.36038,-0.6589 0.71536,-0.94328 0.74562,-1.02139 0.74626,-1.79832 0,-0.4078 -0.0477,-0.7688 -0.10548,-0.80451 -0.0578,-0.0357 -0.46401,0.16286 -0.90279,0.44412 -0.43879,0.28126 -0.85968,0.53878 -0.93557,0.56788 -0.0759,0.0291 -0.57773,-0.1978 -1.11758,-0.50236 -1.16565,-0.65762 -1.81067,-0.85253 -3.3673,-1.01565 -0.72718,-0.0762 -1.30838,-0.2004 -1.55078,-0.33128 -0.21331,-0.11517 -1.03747,-0.52931 -1.83108,-0.92099 -1.03507,-0.51087 -1.55606,-0.84036 -1.84929,-1.16491 -0.48026,-0.5316 -0.80368,-1.49889 -0.71713,-2.14416 0.0319,-0.23724 0.007,-0.60525 -0.0509,-0.81907 -0.17596,-0.63758 -1.40472,-1.82436 -3.01785,-2.9159 -1.77451,-1.20077 -2.06705,-1.46179 -1.98761,-1.76556 0.0745,-0.28481 -0.35419,-1.22897 -0.97196,-2.14416 -1.68936,-2.5026 -5.04069,-4.78119 -11.12121,-7.56824 -2.73349,-1.25292 -3.7202,-1.75496 -4.35748,-2.20968 -0.28681,-0.20464 -0.97313,-0.63521 -1.52165,-0.95741 -0.99445,-0.58412 -2.16677,-1.64891 -3.07972,-2.79213 -0.77208,-0.96679 -0.80546,-0.53373 -0.0874,1.13578 0.73414,1.70684 1.40283,2.70304 2.25337,3.35274 1.35693,1.03656 2.32416,1.62422 4.07353,2.47907 2.26821,1.1084 3.40821,1.86392 4.51036,2.98871 1.1767,1.20085 2.96302,3.91933 4.23006,6.43974 0.50361,1.00183 0.48277,1.07143 -0.29123,1.0011 -0.70968,-0.0645 -1.57989,-0.29363 -1.57989,-0.41865 0,-0.0447 0.12525,-0.11488 0.27665,-0.15289 0.409,-0.10266 0.46283,-0.52136 0.18209,-1.38332 -0.73766,-2.26436 -2.89019,-4.57224 -5.38766,-5.77357 -1.89441,-0.91124 -8.22124,-2.6633 -15.79903,-4.37567 -5.08743,-1.14961 -6.50229,-1.58393 -7.71023,-2.36621 -2.13308,-1.38143 -4.3765,-4.04139 -5.59882,-6.63268 -0.29632,-0.62821 -0.58839,-1.14306 -0.64797,-1.14306 z m 4.01528,12.08224 c -0.66818,0.0142 -0.46433,0.31806 1.04477,0.89917 0.47824,0.18414 1.04228,0.4393 1.25592,0.56788 0.56106,0.33772 1.79386,1.31863 1.73279,1.3797 -0.0285,0.0285 -0.96532,-0.19921 -2.08227,-0.50601 -3.09932,-0.85135 -3.79785,-1.01202 -4.35747,-1.01202 -0.50998,0 -0.94284,0.14462 -0.94284,0.31671 0,0.049 0.56298,0.25361 1.24863,0.45504 2.00569,0.58925 2.74117,0.98212 2.74117,1.46342 0,0.22622 0.0693,0.23311 -1.47797,-0.14926 -1.41607,-0.34994 -2.09064,-0.36947 -3.45468,-0.10193 -1.30274,0.25551 -2.21927,0.54373 -2.1041,0.6589 0.0388,0.0388 0.44486,0.0813 0.89916,0.0946 0.45428,0.0132 1.15941,0.10335 1.56897,0.20387 0.81385,0.19971 2.12961,0.77878 2.12961,0.93556 0,0.1357 -0.57521,0.19106 -3.26902,0.31671 -1.27988,0.0597 -2.45064,0.157 -2.60284,0.21478 -0.24608,0.0934 -0.18846,0.12433 0.51329,0.28394 0.43404,0.0987 1.62892,0.28668 2.65743,0.41864 1.02853,0.13194 1.89305,0.25887 1.91846,0.2803 0.11829,0.0998 -0.21396,0.16389 -2.38078,0.47324 -3.75515,0.53614 -4.06065,0.76479 -1.71096,1.27777 1.17059,0.25554 1.32372,0.42509 0.66619,0.74626 -0.41072,0.20061 -1.40387,0.46664 -2.19876,0.58973 l -0.47689,0.0764 0.0874,-0.42955 c 0.0476,-0.23457 0.085,-0.75333 0.0837,-1.15398 -0.002,-0.60405 -0.0585,-0.83016 -0.33856,-1.32873 -1.01871,-1.81338 -3.39128,-2.02286 -4.62321,-0.40771 -0.89898,1.17861 -1.42755,8.8774 -0.91371,13.3236 0.45354,3.92448 1.33955,7.4919 2.72659,10.97195 1.15122,2.88836 2.25632,4.99349 4.04805,7.70293 7.15384,10.81797 18.89857,17.66884 31.96572,18.6494 1.17037,0.0878 4.92662,0.0659 6.15217,-0.0364 9.24656,-0.77179 17.78554,-4.43047 24.69598,-10.5788 0.86392,-0.76861 0.9515,-0.88373 1.07389,-1.43065 0.262,-1.17073 -0.12861,-2.2075 -1.04476,-2.77392 -0.4594,-0.28404 -0.64272,-0.32958 -1.27413,-0.32398 -1.31695,0.0117 -1.78384,0.27241 -4.06988,2.27884 -1.25319,1.09992 -2.96823,2.19163 -5.08918,3.23989 -5.79416,2.86369 -12.55946,4.25613 -19.08624,3.92791 -4.45299,-0.22392 -8.57985,-1.04525 -12.43171,-2.8431 -1.17719,-0.54945 -2.22792,-1.39713 -3.1052,-2.35528 -2.86277,-3.12667 -5.66877,-6.68242 -6.76009,-10.77174 -0.51702,-1.93726 -0.70016,-3.34939 -0.70259,-5.40588 -0.005,-3.9667 0.98752,-6.68995 3.52384,-9.67964 1.4496,-1.70871 4.76774,-3.33526 7.86676,-3.85511 0.86352,-0.14485 1.3952,-0.28736 1.51073,-0.40772 0.11798,-0.1229 0.24051,-0.66695 0.36767,-1.61266 0.43598,-3.24218 0.84334,-3.8599 2.99963,-4.56133 0.59823,-0.1946 0.90892,-0.34725 0.86275,-0.42592 -1.0128,-1.726 -2.99473,-3.93842 -4.29193,-4.79067 -0.61957,-0.40701 -0.6985,-0.42962 -1.43793,-0.41135 -1.03551,0.0257 -4.79366,0.98963 -6.49072,1.66362 -4.91232,1.95095 -8.84162,4.55138 -11.55076,7.65197 -1.53914,1.76155 -2.63162,3.35345 -4.24461,6.17764 -0.30195,0.52866 -0.32252,0.541 -0.3968,0.27667 -0.2345,-0.83449 -0.0748,-1.24133 1.26683,-3.26538 2.7035,-4.07851 6.08082,-7.1746 10.45139,-9.58135 2.65168,-1.4602 5.04411,-2.39872 7.81942,-3.06515 0.9096,-0.21842 1.63501,-0.41814 1.60902,-0.44412 -0.0259,-0.026 -0.71645,-0.26327 -1.53258,-0.52784 -0.81612,-0.26459 -2.38823,-0.83966 -3.4947,-1.27412 -1.10649,-0.43446 -2.61992,-0.9628 -3.36004,-1.17583 -1.98378,-0.57099 -3.52183,-0.84422 -4.19001,-0.83 z m 30.9974,2.97416 c 0.21207,0.0564 0.74673,0.51892 1.62358,1.40153 1.6589,1.66974 1.89431,1.84527 3.62213,2.70475 1.44259,0.71759 2.1575,1.22422 2.02766,1.43429 -0.14147,0.22888 -0.42417,0.13187 -2.50455,-0.85184 -2.50863,-1.18621 -2.99876,-1.50903 -3.33091,-2.19511 -0.13792,-0.28485 -0.48349,-0.82249 -0.7681,-1.19403 -0.49612,-0.64768 -0.77538,-1.08576 -0.77538,-1.21952 0,-0.0706 0.0349,-0.0989 0.1055,-0.0801 z m -6.64725,2.10774 c 0.1644,0.0441 0.60049,0.54655 1.15764,1.4707 0.71806,1.19106 1.59703,1.96703 3.01054,2.65744 0.63506,0.31018 1.15399,0.5842 1.15399,0.60793 0,0.16762 -2.17334,-0.46446 -2.74117,-0.79723 -0.51919,-0.30427 -1.37833,-1.38579 -2.10774,-2.65016 -0.52874,-0.91651 -0.6377,-1.33282 -0.47326,-1.28868 z m -8.79138,4.57954 c 0.16403,-0.0115 0.3402,-0.003 0.52784,0.0255 0.66354,0.0995 0.65805,0.22489 -0.0582,1.40152 -0.71842,1.18011 -0.82524,1.49227 -0.97925,2.83218 -0.069,0.60017 -0.17819,1.25526 -0.24027,1.45248 -0.062,0.19724 -0.15376,0.38538 -0.2075,0.41865 -0.30477,0.18837 -0.77546,-1.55696 -0.77174,-2.86495 0.002,-0.95033 0.27531,-2.14211 0.6043,-2.63923 0.25215,-0.38102 0.63277,-0.59168 1.12486,-0.62614 z m -3.40736,0.33126 0.62252,0.0328 -0.0401,1.33236 c -0.0341,1.14681 0.004,1.49627 0.25846,2.56279 0.16291,0.68017 0.28133,1.42961 0.2621,1.66364 -0.0315,0.38421 -0.0695,0.4288 -0.37495,0.45868 -1.0466,0.10238 -1.71095,-1.63342 -1.71095,-4.47033 0,-1.53132 0.0593,-1.6285 0.98289,-1.57991 z m -2.78848,0.44048 c 0.0654,-0.006 0.13957,-0.004 0.2257,0.004 l 0.41499,0.0328 0.0655,1.21951 c 0.0744,1.38293 0.30444,2.35064 0.77538,3.28358 0.35204,0.69734 0.40525,1.1083 0.17473,1.29959 -0.0808,0.0671 -0.32581,0.19557 -0.54604,0.28759 -0.36576,0.15282 -0.41611,0.15177 -0.58974,-0.0219 -0.52718,-0.52719 -1.23926,-2.88103 -1.33964,-4.42663 l -0.0692,-1.0193 0.34947,-0.34583 c 0.2146,-0.2146 0.34256,-0.29636 0.53877,-0.31306 z m -2.32617,0.58245 c 0.28347,0.0298 0.37448,0.32901 0.48052,1.17583 0.14598,1.16586 0.52009,2.29739 1.16127,3.51292 0.27178,0.51527 0.49508,1.02224 0.49508,1.12851 0,0.10625 -0.12871,0.25325 -0.28395,0.32398 -0.74926,0.34138 -1.07902,0.0785 -1.91481,-1.52166 -0.73652,-1.41015 -1.12486,-2.59365 -1.12486,-3.4219 0,-0.74998 0.14997,-0.96258 0.82999,-1.15034 0.1446,-0.0399 0.26227,-0.0573 0.35676,-0.0473 z m -2.83945,0.96105 c 0.38963,-0.0385 0.61197,0.26455 0.70621,0.93194 0.15927,1.12778 0.83393,2.47157 2.075,4.12812 0.30159,0.40255 0.33837,0.51545 0.24752,0.77539 -0.0819,0.23429 -0.19012,0.31181 -0.46595,0.33855 -0.30693,0.0298 -0.44464,-0.0515 -0.96105,-0.56788 -0.61932,-0.61932 -1.58637,-2.01715 -2.09682,-3.0324 -0.60834,-1.20995 -0.59024,-2.09112 0.0473,-2.42083 0.16868,-0.0872 0.31788,-0.14004 0.44775,-0.15289 z m -2.26066,1.32144 c 0.16937,0.007 0.2668,0.1259 0.31671,0.35676 0.2285,1.05681 1.54415,3.02983 2.76665,4.14269 0.51598,0.46971 0.93921,0.91867 0.93921,1.00109 0,0.0824 -0.16232,0.25054 -0.3604,0.37132 -0.19806,0.12075 -0.49095,0.2182 -0.65162,0.21842 -0.96668,0.001 -3.67674,-2.84292 -4.31015,-4.52494 -0.25926,-0.68849 -0.2286,-0.7583 0.55333,-1.2559 0.33616,-0.21393 0.5769,-0.31686 0.74627,-0.30944 z m 31.25223,0.24027 c 0.39694,-0.057 2.29161,0.4967 3.11248,0.91007 0.9029,0.4547 1.90627,1.33707 2.31524,2.03495 0.28203,0.48122 0.28678,0.50582 0.0874,0.65162 -0.34977,0.25576 -1.37488,0.1888 -2.01673,-0.13104 -0.54379,-0.27099 -0.89628,-0.6109 -2.075,-1.99127 -0.30013,-0.35149 -0.79867,-0.8167 -1.10665,-1.0375 -0.47917,-0.34352 -0.52383,-0.40707 -0.3167,-0.43683 z m -34.00068,1.64178 c 0.24196,0 0.48535,0.26668 1.23407,1.36513 0.79386,1.16465 2.15722,2.41688 3.18166,2.92319 0.44309,0.21898 0.80451,0.43515 0.80451,0.48052 0,0.0454 -0.17772,0.23676 -0.39316,0.42592 -0.21543,0.18915 -0.47427,0.34296 -0.57882,0.34219 -0.30229,-0.002 -1.84986,-0.88856 -2.70475,-1.55079 -1.22692,-0.95039 -2.41718,-2.52708 -2.41718,-3.19984 0,-0.2527 0.59331,-0.78632 0.87367,-0.78632 z m -2.13324,1.90026 c 0.26968,0.0345 0.63636,0.42385 1.47435,1.39061 1.01922,1.17583 1.95348,1.84007 3.24353,2.30067 0.56074,0.20023 1.04049,0.42766 1.06661,0.50601 0.0261,0.0784 -0.0398,0.31006 -0.14925,0.51329 -0.24727,0.45916 -0.43144,0.46449 -1.77284,0.0473 -1.43685,-0.44684 -1.55357,-0.50599 -2.30797,-1.14306 -2.17779,-1.83904 -2.66598,-2.64156 -2.02038,-3.33817 0.17537,-0.18923 0.30416,-0.29734 0.46595,-0.27667 z m -1.75099,2.08955 c 0.0735,0 0.64337,0.51733 1.26684,1.15034 1.29937,1.31925 1.77435,1.60007 3.76774,2.22787 0.71486,0.22515 1.2996,0.44531 1.2996,0.49146 0,0.15891 -0.65989,0.99392 -0.87732,1.11029 -0.11979,0.0641 -0.28385,0.11363 -0.36403,0.11286 -0.29987,-0.003 -1.97542,-0.64395 -2.5992,-0.99381 -1.59952,-0.89714 -3.13993,-2.50107 -3.1416,-3.27629 -0.001,-0.34373 0.37742,-0.82272 0.64797,-0.82272 z m 51.79096,0.24025 c 0.13569,0.0268 0.32611,0.14802 0.58972,0.36405 0.64378,0.52742 0.64625,0.79266 0.0111,1.19401 -0.2653,0.16762 -0.5393,0.30579 -0.60792,0.30579 -0.16253,0 -0.2407,-0.34568 -0.26939,-1.16126 -0.0186,-0.5239 0.0505,-0.74732 0.27668,-0.70259 z m -53.14879,1.87477 0.81543,0.89189 c 0.44754,0.48927 1.08243,1.05876 1.4088,1.26684 0.32637,0.20806 0.85223,0.54634 1.1722,0.74991 0.64825,0.41239 1.41371,0.68147 2.24606,0.79358 0.30474,0.0411 0.61549,0.1266 0.69167,0.1893 0.19917,0.16392 0.16917,0.4647 -0.0655,0.67709 -0.65418,0.59203 -3.73258,-0.26787 -5.5151,-1.53986 -1.17997,-0.842 -1.53359,-1.75753 -1.00473,-2.61738 z m 39.42475,1.65999 c -0.16755,0.0446 0.072,0.26983 0.76083,0.66619 2.00332,1.15263 3.1844,2.34409 5.04913,5.10374 2.19397,3.24688 3.43755,4.73531 4.99091,5.97378 1.88098,1.49971 2.46227,1.77721 4.12084,1.97669 1.4484,0.17422 2.89099,-0.0482 3.81507,-0.58973 0.54045,-0.31672 1.55733,-1.54513 2.47905,-2.99963 1.2479,-1.96915 1.63227,-2.28874 3.06517,-2.51182 0.896,-0.13949 1.93937,0.0156 2.8176,0.41499 0.83193,0.37825 2.04622,1.6361 2.61013,2.70476 0.50606,0.95906 0.63588,0.82145 0.2439,-0.25845 -0.62117,-1.71129 -1.82177,-3.04426 -3.48017,-3.86603 -0.83391,-0.41324 -1.02282,-0.46569 -1.74007,-0.46961 -0.75442,-0.004 -0.87975,0.0337 -1.99854,0.58973 -1.36539,0.67859 -1.95544,1.20207 -2.99599,2.67201 -0.36568,0.51656 -1.04986,1.33411 -1.52166,1.81651 l -0.85911,0.87733 -1.19039,-0.0619 c -2.11559,-0.11186 -2.86301,-0.4382 -4.4849,-1.95486 -1.07942,-1.00941 -1.55433,-1.73462 -2.95957,-4.51765 -1.67242,-3.31216 -2.93956,-5.13285 -3.57116,-5.13285 -0.30446,0 -0.19197,0.32105 0.40409,1.16489 0.25828,0.36568 0.56872,0.86287 0.69165,1.10666 0.24352,0.48305 0.42227,1.16491 0.30578,1.16491 -0.0401,0 -0.58142,-0.51107 -1.2013,-1.13579 -1.31599,-1.32617 -1.9656,-1.74046 -3.6549,-2.31887 -0.95248,-0.32615 -1.52889,-0.45963 -1.69639,-0.41502 z m -40.64063,0.98653 c 0.0337,0 0.43997,0.33169 0.9028,0.73536 0.46286,0.40366 1.10612,0.9027 1.43065,1.11029 1.23651,0.79097 3.01032,1.3133 4.008,1.17946 0.37129,-0.0498 0.46942,-0.0234 0.53149,0.13835 0.10271,0.26761 -0.2772,0.95276 -0.62613,1.12849 -0.17265,0.087 -0.69271,0.13395 -1.38333,0.12741 -1.72016,-0.0164 -2.11979,-0.13136 -3.38186,-0.98288 -0.33521,-0.22617 -0.76266,-0.48979 -0.95013,-0.5861 -0.29594,-0.15203 -0.37971,-0.3062 -0.6407,-1.17582 -0.28232,-0.94072 -0.29021,-1.02115 -0.12741,-1.336 0.0954,-0.18438 0.20289,-0.33856 0.23662,-0.33856 z m 10.90279,4.21186 c -0.2077,0 -0.22207,0.0758 -0.22207,1.2632 0,4.37974 1.16681,8.71197 2.56644,9.53403 0.99753,0.58587 2.76996,-0.14951 4.69602,-1.95123 0.39706,-0.37143 0.74435,-0.65353 0.77174,-0.62613 0.0274,0.0274 -0.0228,0.64336 -0.11284,1.36876 -0.20376,1.64266 -0.20658,2.27701 -0.011,2.54459 0.14951,0.20444 0.15891,0.20722 0.46961,0.004 0.17465,-0.11442 0.83793,-0.75196 1.47433,-1.41608 0.63638,-0.66412 1.37819,-1.36078 1.64906,-1.54714 0.86383,-0.59433 1.93924,-0.51213 2.03495,0.15652 0.0226,0.15796 0.15285,0.29025 0.35311,0.3604 0.26481,0.0928 0.40599,0.0637 0.85912,-0.1893 0.60919,-0.34012 0.87367,-0.3834 0.87367,-0.13833 0,0.0914 -0.0986,0.16744 -0.2184,0.16744 -0.3754,0 -0.48128,0.39159 -0.41502,1.54351 0.0434,0.75561 0.18079,1.46048 0.46963,2.4463 0.49969,1.70562 0.62347,3.11251 0.3458,3.94611 -0.0993,0.29835 -0.38264,0.83927 -0.62614,1.20495 -0.24347,0.36567 -0.44023,0.7317 -0.44046,0.81179 -0.001,0.23184 0.84715,-0.29367 1.45977,-0.9028 1.36989,-1.36209 1.78938,-3.26455 1.34327,-6.07935 -0.21035,-1.32726 -0.15246,-1.52894 0.41864,-1.52894 0.30659,0 0.31212,0.0156 0.30578,0.58245 -0.007,0.63062 0.18117,1.4398 0.6298,2.74117 0.3466,1.00555 0.46287,2.13705 0.28029,2.6902 -0.0723,0.21909 -0.27841,0.58131 -0.45868,0.80817 -0.18024,0.22684 -0.3047,0.4379 -0.27667,0.46595 0.0923,0.0923 0.81641,-0.42011 1.17949,-0.83363 0.71275,-0.81179 1.04354,-2.1751 0.86275,-3.54932 -0.0459,-0.34839 -0.11725,-0.89742 -0.16011,-1.21952 -0.0656,-0.49181 -0.0462,-0.61003 0.12023,-0.73171 0.1737,-0.12698 0.19048,-0.27373 0.14201,-1.2013 -0.046,-0.88103 -0.11015,-1.18201 -0.39679,-1.79468 -0.29554,-0.63152 -0.41497,-0.76507 -0.82272,-0.95013 -0.26131,-0.11859 -0.57798,-0.21708 -0.70621,-0.21841 -0.28812,-0.003 -0.66119,-0.3419 -1.13216,-1.02657 -0.39097,-0.56838 -1.06697,-1.02288 -1.68545,-1.13579 -0.30139,-0.055 -0.45594,-0.0203 -0.68076,0.15652 -0.16029,0.12612 -0.33553,0.22934 -0.38951,0.22934 -0.054,0 -0.34047,-0.25385 -0.63342,-0.56425 -0.69978,-0.74145 -1.12225,-0.91296 -2.22788,-0.90644 -1.40367,0.008 -2.64952,0.46562 -5.63158,2.06407 -0.54042,0.28967 -0.89449,0.40408 -1.24137,0.40408 -0.75658,0 -1.07444,-0.41978 -2.61011,-3.4474 -1.46137,-2.88115 -1.8669,-3.53475 -2.20603,-3.53475 z m -10.04731,0.14926 c 0.0216,-0.0216 0.36507,0.0804 0.76083,0.22934 1.38539,0.52146 2.08585,0.65817 3.41463,0.66619 l 1.27412,0.007 v 0.60794 c 0,0.55881 -0.0271,0.62198 -0.31671,0.76083 -0.31755,0.1522 -2.16312,0.26544 -2.78851,0.1711 -1.20742,-0.18218 -1.46546,-0.27639 -1.60538,-0.57518 -0.3268,-0.69791 -0.77533,-1.83114 -0.73898,-1.86749 z m 5.22752,3.34183 0.0328,0.35674 c 0.0636,0.657 -0.33154,1.02938 -1.25226,1.18311 -1.17326,0.19589 -1.16363,0.18558 -0.44049,0.415 0.43566,0.13814 0.83226,0.18833 1.16126,0.14925 0.629,-0.0747 0.81908,0.0525 0.81908,0.53878 0,0.45962 -0.15494,0.66316 -0.75719,1.00837 -0.88549,0.50757 -0.87859,0.51047 -1.54351,-0.51328 -0.52513,-0.80856 -1.73279,-2.90709 -1.73279,-3.01056 0,-0.0208 0.51109,-0.0465 1.13579,-0.0582 0.62469,-0.0117 1.46041,-0.0306 1.85655,-0.0437 z m 0.63341,4.11357 c 0.12225,0.0756 0.10929,1.07712 -0.0183,1.41244 -0.058,0.15264 -0.20404,0.33261 -0.324,0.3968 -0.18942,0.10137 -0.27615,0.0379 -0.64069,-0.45868 -0.39002,-0.5313 -0.40298,-0.58021 -0.21478,-0.69166 0.1114,-0.066 0.40593,-0.25173 0.65525,-0.415 0.24933,-0.16327 0.4943,-0.27364 0.54241,-0.2439 z m 20.20746,1.81651 c 0.41889,0 1.04478,0.65459 1.04478,1.09574 0,0.46294 -0.13363,0.43122 -0.4332,-0.10193 -0.13737,-0.24442 -0.39294,-0.51922 -0.57153,-0.61157 -0.40201,-0.20787 -0.42223,-0.38224 -0.0401,-0.38224 z m -3.54566,0.35313 c -0.28745,0.028 -0.38547,0.11912 -0.60793,0.56788 -0.29865,0.60243 -0.30806,0.84188 -0.17465,3.81143 0.0684,1.52335 0.0511,1.91541 -0.11296,2.58464 -0.22667,0.92496 -0.7419,1.75081 -1.24499,2.00217 -0.19643,0.0981 -0.32294,0.20855 -0.28396,0.24755 0.126,0.12594 0.52158,0.0719 0.97561,-0.1347 1.03695,-0.47175 2.32203,-2.36013 2.72661,-4.00436 0.21882,-0.88923 0.19242,-2.89942 -0.0473,-3.68402 -0.26371,-0.86303 -0.77074,-1.43541 -1.23045,-1.39061 z m -16.2468,0.42227 c 0.36397,0 0.55697,0.24838 0.55697,0.7135 0,0.15638 -0.038,0.28142 -0.0837,0.28031 -0.0903,-0.002 -0.80086,-0.82927 -0.80086,-0.93193 0,-0.0346 0.14692,-0.0619 0.32763,-0.0619 z m 10.54966,0.0437 c -0.0864,0.0155 -0.19482,0.29721 -0.36038,0.81908 -0.56127,1.76921 -0.16468,4.27967 0.91736,5.81359 0.11823,0.16762 0.25623,0.30216 0.30943,0.30216 0.20207,0 0.23457,-0.24072 0.0655,-0.49874 -0.34876,-0.53228 -0.19433,-0.94073 0.97562,-2.57006 0.7788,-1.08458 1.28503,-1.95842 1.28503,-2.21696 0,-0.21979 -0.32682,-0.1002 -1.15035,0.42228 -0.71664,0.45468 -1.26812,0.55293 -1.50344,0.26937 -0.0738,-0.0889 -0.18203,-0.54805 -0.24027,-1.02292 -0.11252,-0.91735 -0.18746,-1.33775 -0.29851,-1.3178 z m 11.83107,0.17836 c 0.3127,0 0.78268,0.19596 0.78268,0.32764 0,0.13367 -0.14631,0.13078 -0.63707,-0.011 -0.39388,-0.11374 -0.48757,-0.31671 -0.14555,-0.31671 z" /><path
             style="isolation:isolate;fill:#2791f1;fill-opacity:1;fill-rule:evenodd;stroke-width:0.172726;stroke-linecap:round;stroke-linejoin:round;stroke-miterlimit:50;paint-order:stroke fill markers;stop-color:#000000"
             d="m 241.50708,-363.69199 c -0.0831,-0.0224 -0.21754,-0.0485 -0.29871,-0.0597 -0.22081,-0.0298 -0.63926,-0.25329 -0.93809,-0.49969 -0.14593,-0.11928 -0.56178,-0.55319 -0.92425,-0.9623 -0.36245,-0.40894 -0.82603,-0.90565 -1.0302,-1.10359 -0.35852,-0.34779 -0.36602,-0.35898 -0.22005,-0.32935 0.25757,0.0522 1.32531,0.40577 1.69174,0.56047 0.61682,0.26 1.15556,0.61283 1.77628,1.16341 0.45266,0.4013 1.03674,1.14646 0.95948,1.2238 -0.046,0.0466 -0.8454,0.0522 -1.0162,0 z"
             id="path45" /><path
             style="isolation:isolate;fill:#2790f1;fill-opacity:1;fill-rule:evenodd;stroke-width:0.172726;stroke-linecap:round;stroke-linejoin:round;stroke-miterlimit:50;paint-order:stroke fill markers;stop-color:#000000"
             d="m 251.20165,-359.71752 c -0.0397,-0.0634 -0.11091,-1.02307 -0.0816,-1.09911 0.0209,-0.0541 0.0576,-0.0429 0.20809,0.0652 0.10046,0.0727 0.28668,0.23653 0.41375,0.36531 0.23046,0.23336 0.23083,0.23411 0.14799,0.32561 -0.0859,0.0951 -0.5561,0.38602 -0.62357,0.38602 -0.0211,0 -0.0501,-0.0186 -0.0647,-0.0429 z"
             id="path46" /></g><path
           class="st0"
           d="m 104.6,35.2 c 0,-1.8 -0.3,-3.3 -1,-4.3 -0.7,-1 -1.6,-1.5 -2.9,-1.5 -1.2,0 -2.2,0.5 -2.9,1.5 -0.7,1 -1,2.4 -1,4.3 0,1.8 0.3,3.3 1,4.3 0.7,1 1.6,1.5 2.9,1.5 1.2,0 2.2,-0.5 2.9,-1.5 0.7,-1 1,-2.4 1,-4.3 v 0 m 2.3,6 c 0,2.6 -0.5,4.6 -1.6,5.9 -1.1,1.3 -2.7,1.9 -4.8,1.9 -0.8,0 -1.6,-0.1 -2.3,-0.2 -0.7,-0.1 -1.4,-0.3 -2.1,-0.6 v -2.5 c 0.7,0.4 1.3,0.7 2,0.9 0.7,0.2 1.3,0.3 2,0.3 1.5,0 2.6,-0.4 3.4,-1.3 0.7,-0.9 1.1,-2.2 1.1,-4 v -1.3 c -0.5,0.9 -1.1,1.6 -1.8,2.1 -0.7,0.5 -1.6,0.7 -2.6,0.7 -1.7,0 -3.1,-0.7 -4.1,-2.2 -1,-1.5 -1.6,-3.4 -1.6,-5.8 0,-2.4 0.5,-4.3 1.6,-5.8 1,-1.5 2.4,-2.2 4.1,-2.2 1,0 1.9,0.2 2.6,0.7 0.7,0.5 1.3,1.1 1.8,2.1 v -2.4 h 2.3 v 13.7"
           id="path26"
           transform="matrix(2.9142078,0,0,2.7827103,206.82874,19.261636)"
           style="fill:url(#linearGradient57);filter:url(#filter954)" /></g></g></g><style
     type="text/css"
     id="style64">
	.st0{fill:#FFFFFF;}
</style></svg>
