<?xml version="1.0" standalone="no"?>
<!DOCTYPE svg PUBLIC "-//W3C//DTD SVG 20010904//EN"
 "http://www.w3.org/TR/2001/REC-SVG-20010904/DTD/svg10.dtd">
<svg version="1.0" xmlns="http://www.w3.org/2000/svg"
 width="512.000000pt" height="512.000000pt" viewBox="0 0 512.000000 512.000000"
 preserveAspectRatio="xMidYMid meet">

<g transform="translate(0.000000,512.000000) scale(0.100000,-0.100000)"
fill="#000000" stroke="none">
<path d="M2195 5103 c-134 -16 -346 -59 -355 -72 -3 -5 -21 -12 -40 -16 -49
-10 -214 -66 -220 -74 -3 -4 -48 -24 -100 -45 -52 -21 -104 -47 -115 -56 -11
-10 -38 -25 -59 -34 -21 -9 -64 -33 -95 -54 -31 -21 -77 -50 -102 -65 -26 -14
-49 -33 -53 -42 -3 -8 -12 -15 -19 -15 -8 0 -33 -18 -57 -40 -24 -22 -45 -40
-48 -40 -22 0 -362 -340 -362 -362 0 -3 -18 -24 -40 -48 -22 -24 -40 -48 -40
-54 0 -6 -12 -22 -26 -35 -14 -14 -36 -46 -49 -72 -13 -26 -31 -53 -39 -61 -8
-9 -31 -48 -52 -89 -21 -41 -40 -76 -44 -79 -9 -7 -58 -115 -77 -170 -8 -25
-19 -47 -23 -50 -8 -5 -63 -169 -76 -225 -4 -16 -10 -32 -14 -35 -9 -7 -56
-238 -72 -360 -20 -148 -16 -577 5 -730 23 -157 54 -301 72 -337 8 -16 15 -34
15 -40 0 -19 61 -207 69 -213 4 -3 14 -23 23 -45 40 -100 72 -170 78 -175 4
-3 24 -39 44 -80 21 -41 42 -77 46 -80 3 -3 26 -38 49 -78 23 -39 46 -72 52
-72 5 0 14 -10 19 -22 18 -44 128 -175 250 -297 103 -103 287 -261 304 -261 6
0 16 -8 22 -18 6 -10 32 -28 57 -41 25 -13 54 -31 64 -40 22 -19 85 -57 133
-78 19 -8 37 -19 40 -23 6 -10 163 -80 178 -80 6 0 17 -6 24 -14 15 -15 220
-86 249 -86 9 0 19 -4 21 -10 4 -13 206 -55 356 -74 166 -21 572 -22 742 -1
132 17 338 58 367 74 10 6 71 26 135 46 64 20 118 40 120 44 2 4 46 25 98 45
52 21 102 45 110 52 8 8 47 30 85 50 39 20 72 40 75 44 3 4 28 20 56 36 28 16
66 40 84 54 89 68 272 223 324 276 108 109 290 335 325 406 8 15 22 36 32 47
9 10 35 52 56 92 21 41 41 76 44 79 4 3 21 39 39 80 17 41 45 102 60 135 16
33 40 103 55 155 15 52 31 100 36 106 5 6 20 62 33 125 74 343 76 833 6 1174
-32 154 -32 155 -41 155 -5 0 -9 8 -9 18 0 29 -71 234 -86 250 -8 7 -14 18
-14 24 0 13 -67 165 -80 181 -5 7 -26 43 -45 80 -20 38 -44 77 -54 88 -10 11
-24 32 -32 47 -17 35 -109 159 -178 242 -107 128 -322 330 -425 399 -21 14
-52 38 -68 53 -17 15 -34 28 -40 28 -5 0 -41 21 -79 46 -39 25 -85 52 -102 59
-18 7 -44 22 -58 33 -14 12 -68 37 -120 58 -52 21 -96 41 -99 45 -6 8 -224 79
-245 79 -8 0 -15 4 -15 8 0 16 -232 61 -415 82 -130 14 -528 10 -670 -7z m643
-213 c114 -13 315 -50 322 -60 3 -4 19 -10 35 -14 80 -19 233 -71 254 -88 13
-10 29 -18 36 -18 15 0 148 -60 155 -69 3 -4 38 -25 79 -47 41 -21 85 -49 98
-61 13 -11 40 -29 59 -38 19 -9 47 -27 62 -41 15 -13 63 -52 107 -87 156 -122
409 -401 470 -519 11 -21 23 -38 27 -38 4 0 26 -38 49 -85 23 -47 45 -85 49
-85 4 0 24 -44 45 -97 21 -54 43 -105 50 -113 12 -16 69 -191 80 -247 4 -18
10 -33 14 -33 9 0 45 -184 62 -315 17 -131 15 -438 -5 -565 -23 -149 -48 -274
-56 -280 -4 -3 -19 -48 -34 -100 -29 -101 -102 -268 -170 -388 -110 -195 -292
-405 -492 -569 -127 -104 -142 -115 -171 -130 -15 -8 -37 -23 -48 -33 -11 -11
-52 -36 -90 -56 -39 -20 -73 -41 -76 -46 -3 -4 -45 -24 -93 -44 -49 -20 -102
-44 -120 -54 -17 -9 -85 -33 -151 -51 -66 -19 -122 -36 -125 -39 -9 -10 -121
-29 -265 -46 -164 -19 -480 -14 -630 11 -124 20 -194 20 -202 -1 -4 -10 0 -20
10 -26 10 -5 23 -21 31 -36 8 -15 29 -43 48 -62 18 -19 41 -47 51 -63 l17 -27
-34 0 c-61 0 -112 26 -180 93 -36 35 -66 69 -66 75 0 6 -11 19 -23 29 -13 10
-43 50 -67 88 -24 39 -51 80 -60 91 -9 12 -29 54 -45 95 -16 41 -33 77 -37 80
-14 9 -55 188 -68 293 -9 69 -11 153 -5 280 12 292 21 252 -81 348 -49 46
-109 104 -133 131 -25 26 -51 47 -58 47 -22 0 -68 -74 -110 -180 -14 -36 -32
-74 -39 -85 -15 -24 -64 -173 -64 -195 0 -8 -7 -28 -15 -44 -24 -45 -53 -212
-75 -436 -12 -113 -25 -209 -30 -214 -13 -13 -84 32 -104 65 -36 61 -37 85
-10 308 14 117 23 215 21 217 -6 6 -154 -63 -158 -73 -2 -5 -39 -26 -82 -47
-69 -34 -81 -37 -106 -26 -18 7 -39 30 -55 61 -15 27 -38 61 -50 76 -13 16
-41 62 -61 103 -21 41 -41 77 -45 80 -4 3 -19 34 -34 70 -15 36 -37 85 -48
110 -12 25 -31 77 -43 117 l-23 71 22 19 c11 10 50 28 85 41 36 12 88 41 117
63 54 42 144 134 144 148 0 5 -75 11 -167 13 -182 4 -203 10 -255 65 -32 33
-48 101 -48 198 0 71 4 75 78 75 103 1 312 47 312 69 0 4 26 19 58 33 80 37
204 143 200 171 -3 21 -9 22 -169 29 -271 10 -358 30 -421 93 -37 37 -44 82
-23 144 16 50 17 50 41 35 13 -9 24 -20 24 -25 0 -11 158 -89 180 -89 10 0 20
-4 22 -9 2 -6 45 -15 96 -22 131 -17 148 -10 247 103 137 155 206 241 202 252
-2 7 -53 14 -128 18 -158 8 -226 21 -319 59 -123 52 -200 114 -200 164 0 25
37 113 55 131 9 9 26 0 74 -41 34 -29 82 -60 107 -70 24 -9 44 -20 44 -25 0
-10 101 -44 185 -62 36 -7 134 -13 246 -13 l185 0 91 58 c50 31 93 57 96 57 3
0 44 18 91 40 47 22 91 40 98 40 32 0 88 22 88 35 0 7 -13 23 -28 34 -27 19
-101 35 -372 81 -68 12 -129 25 -135 29 -5 4 -39 15 -75 24 -109 27 -232 92
-319 168 -71 63 -76 73 -52 112 25 40 190 202 281 275 36 29 80 64 98 79 17
14 46 33 62 41 16 8 40 24 53 36 13 11 57 39 98 60 41 22 76 43 79 47 3 4 39
21 80 39 41 18 98 43 125 56 28 12 102 38 165 56 63 18 117 35 120 39 6 8 222
47 320 58 110 12 435 13 548 1z"/>
<path d="M2397 4423 c-7 -13 -16 -56 -27 -129 -19 -131 21 -313 94 -428 18
-28 41 -68 51 -89 10 -22 24 -41 32 -44 8 -3 21 -20 30 -37 9 -17 36 -58 60
-90 l45 -59 -33 7 c-159 32 -556 33 -717 2 -103 -20 -335 -104 -381 -138 -13
-10 -28 -18 -32 -18 -13 0 -109 -60 -155 -97 -23 -18 -44 -33 -48 -33 -4 0
-32 -21 -63 -47 -49 -43 -97 -89 -234 -228 -21 -22 -39 -45 -39 -51 0 -6 -7
-17 -15 -24 -8 -7 -15 -19 -15 -27 0 -16 7 -16 132 8 104 20 112 -5 29 -95
-59 -64 -162 -166 -167 -166 -6 0 -87 -62 -95 -72 -3 -5 -40 -26 -83 -47 -43
-22 -83 -44 -89 -49 -26 -19 -176 -64 -257 -77 -25 -4 -53 -13 -63 -20 -24
-17 -9 -28 88 -61 67 -23 97 -27 185 -27 91 -1 117 4 202 31 53 18 98 36 100
41 2 5 41 25 88 45 47 21 90 43 95 49 6 7 46 30 90 51 44 21 82 43 85 47 3 5
44 27 90 50 47 22 87 45 90 50 7 11 138 65 181 74 19 4 37 13 41 19 10 15 396
15 406 0 4 -6 25 -14 47 -18 55 -10 239 -68 245 -77 3 -5 42 -20 85 -35 95
-32 116 -46 145 -97 21 -37 21 -39 4 -65 -10 -15 -24 -32 -32 -38 -27 -20 -6
-57 51 -91 30 -18 80 -56 111 -85 51 -47 59 -59 63 -98 4 -35 -1 -58 -22 -102
-14 -32 -31 -60 -36 -63 -5 -4 -9 -13 -9 -22 0 -14 24 -15 218 -8 207 7 218 6
240 -13 16 -14 22 -30 22 -62 0 -36 3 -42 18 -37 9 3 55 15 102 27 47 13 89
27 95 31 13 13 165 11 165 -1 0 -5 7 -10 15 -10 8 0 39 -11 69 -24 64 -28 141
-101 163 -154 8 -20 20 -40 27 -44 6 -4 11 -34 11 -70 0 -63 -1 -64 -50 -114
-27 -28 -87 -77 -132 -109 -46 -32 -83 -62 -83 -66 0 -15 94 -22 200 -16 116
7 210 24 210 38 0 5 6 9 13 9 30 0 143 64 197 112 33 29 60 55 60 59 0 16 103
159 115 159 7 0 27 -11 43 -25 17 -14 34 -25 40 -25 12 0 31 80 39 168 3 34
10 62 14 62 5 0 9 43 9 95 0 52 -4 95 -9 95 -4 0 -11 26 -14 58 -9 95 -37 202
-53 202 -8 0 -14 -10 -14 -21 0 -12 -19 -41 -44 -65 -33 -33 -51 -44 -75 -44
-42 0 -99 53 -136 125 -15 31 -33 62 -39 68 -7 7 -25 41 -40 77 -16 36 -42 93
-58 127 -52 113 -49 129 25 152 41 14 65 45 48 64 -5 7 -27 21 -48 32 -43 23
-423 403 -423 424 0 4 -40 52 -88 107 -89 99 -247 243 -283 256 -10 4 -19 12
-19 17 0 6 -28 27 -62 47 -35 20 -65 40 -68 45 -3 4 -35 27 -70 50 -36 23 -67
44 -70 48 -11 14 -79 61 -89 61 -5 0 -18 11 -29 24 -10 13 -36 36 -57 51 -75
51 -308 282 -332 329 -8 17 -27 47 -42 66 -14 19 -33 48 -41 64 -15 30 -35 43
-43 29z"/>
<path d="M1067 4257 c-10 -75 9 -131 71 -198 62 -70 192 -143 290 -164 17 -3
32 -10 32 -15 0 -10 182 -55 285 -70 44 -7 88 -16 97 -21 10 -5 98 -13 196
-19 98 -5 185 -11 193 -14 8 -2 33 -7 57 -10 l42 -6 0 45 c0 50 -30 136 -60
167 -11 12 -20 27 -20 34 0 11 -20 30 -99 93 -61 49 -181 77 -376 87 -77 3
-144 10 -150 14 -5 4 -77 10 -160 14 -203 9 -318 37 -353 87 -22 31 -39 22
-45 -24z"/>
<path d="M1883 2673 c-24 -2 -43 -8 -43 -12 0 -5 -19 -11 -43 -14 -47 -7 -229
-65 -237 -76 -3 -4 -43 -26 -90 -50 -47 -24 -87 -46 -90 -50 -3 -4 -32 -25
-65 -46 -33 -21 -64 -43 -70 -50 -5 -6 -21 -18 -35 -27 -14 -9 -52 -39 -85
-68 -33 -29 -87 -76 -119 -104 -103 -88 -169 -147 -216 -189 -25 -23 -74 -67
-109 -97 -34 -30 -86 -77 -114 -103 -50 -46 -51 -49 -33 -63 11 -8 25 -14 32
-14 7 0 14 -6 17 -12 3 -10 33 -12 117 -10 63 1 116 6 119 10 7 9 152 35 158
28 5 -4 -25 -67 -36 -76 -3 -3 -18 -24 -33 -47 -15 -23 -55 -71 -88 -107 -61
-65 -68 -86 -29 -86 25 0 126 65 142 92 7 10 17 18 23 18 15 0 125 117 156
165 14 22 33 47 42 54 10 8 26 31 36 51 10 20 30 48 44 61 14 13 26 27 26 30
0 10 64 103 100 147 16 20 30 41 30 47 0 5 16 27 35 48 19 21 35 42 35 47 0 9
150 162 194 198 16 13 50 34 76 47 26 13 54 30 61 37 27 25 177 73 264 83 30
4 55 11 55 16 0 5 20 9 44 9 23 0 71 3 105 6 49 6 61 10 61 24 0 14 -18 23
-69 39 -38 12 -78 21 -89 21 -11 0 -22 4 -24 10 -3 11 -188 21 -255 13z"/>
<path d="M2078 2440 c-66 -11 -178 -50 -178 -61 0 -5 -5 -9 -11 -9 -6 0 -31
-13 -56 -30 -24 -16 -47 -30 -50 -30 -14 0 -189 -175 -220 -219 -47 -69 -22
-150 81 -261 54 -58 189 -166 244 -194 18 -9 41 -25 52 -36 18 -18 77 -37 86
-27 5 5 -17 59 -28 67 -17 13 -41 141 -41 220 0 78 22 175 42 190 4 3 19 25
33 50 34 58 143 167 216 217 31 21 63 44 72 50 8 7 24 19 34 26 10 8 16 19 13
24 -18 29 -179 41 -289 23z"/>
</g>
</svg>
